<?xml version="1.0" encoding="utf-8"?>
<!-- Generator: Adobe Illustrator 24.3.0, SVG Export Plug-In . SVG Version: 6.00 Build 0)  -->
<svg version="1.1" xmlns="http://www.w3.org/2000/svg" xmlns:xlink="http://www.w3.org/1999/xlink" x="0px" y="0px"
	 viewBox="0 0 612 792" style="enable-background:new 0 0 612 792;" xml:space="preserve">
<style type="text/css">
	.st0{display:none;}
	.st1{display:inline;fill:#7AA2AF;}
	.st2{display:inline;fill:#C3E2B9;}
	.st3{fill:none;}
	.st4{fill:none;stroke:#000000;stroke-width:22;stroke-miterlimit:10;}
</style>
<g id="Layer_1">
</g>
<g id="Layer_8" class="st0">
	<rect class="st1" width="612" height="792"/>
	<rect x="-716.76" y="251.18" class="st1" width="612" height="792"/>
</g>
<g id="Layer_13" class="st0">
	<rect x="-16.8" y="113.27" class="st2" width="806.09" height="678.73"/>
</g>
<g id="Layer_11">
	<circle class="st3" cx="306.62" cy="395.48" r="222.25"/>
</g>
<g id="Layer_2">
	<circle class="st4" cx="306" cy="396" r="216.85"/>
</g>
<g id="Layer_14">
	<circle class="st3" cx="305.95" cy="395.48" r="222.35"/>
</g>
<g id="Layer_10">
</g>
<g id="Layer_3">
	<polyline class="st4" points="143.44,539.52 143.44,381.57 178.17,288.9 253.79,288.9 286.34,377.97 285.9,612.85 	"/>
</g>
<g id="Layer_6">
	<line class="st4" x1="169.61" y1="477.31" x2="286.16" y2="477.31"/>
	<line class="st4" x1="325.3" y1="477.31" x2="468.01" y2="477.31"/>
	<line class="st4" x1="325.3" y1="444.57" x2="468.01" y2="444.57"/>
</g>
<g id="Layer_5">
	<line class="st4" x1="324.41" y1="284.2" x2="325.3" y2="613.99"/>
	<line class="st4" x1="467.03" y1="312.48" x2="467.76" y2="540.66"/>
	<line class="st4" x1="176.88" y1="288.9" x2="177.61" y2="565.13"/>
</g>
<g id="Layer_7">
</g>
<g id="Layer_9">
</g>
<g id="Layer_12">
	<path class="st3" d="M528.37,398c0,63.11-26.25,120.1-68.42,160.62c-33.87,32.57-78.01,54.51-127.09,60.5
		c-8.93,1.09-18.03,1.65-27.26,1.65c-9.31,0-18.49-0.57-27.5-1.68c-36.37-4.48-70.02-17.72-98.78-37.54
		C121.04,541.37,82.83,474.14,82.83,398c0-123.03,99.74-222.77,222.77-222.77S528.37,274.97,528.37,398z"/>
</g>
<g id="Layer_15">
</g>
</svg>
