<?xml version="1.0" encoding="utf-8"?>
<!-- Generator: Adobe Illustrator 24.3.0, SVG Export Plug-In . SVG Version: 6.00 Build 0)  -->
<svg version="1.1" id="Layer_1" xmlns="http://www.w3.org/2000/svg" xmlns:xlink="http://www.w3.org/1999/xlink" x="0px" y="0px"
	 viewBox="0 0 6000 1500" style="enable-background:new 0 0 6000 1500;" xml:space="preserve">
<style type="text/css">
	.st0{clip-path:url(#SVGID_2_);fill:none;stroke:#000000;stroke-width:3;stroke-miterlimit:10;}
	.st1{clip-path:url(#SVGID_4_);fill:none;stroke:#000000;stroke-width:3;stroke-miterlimit:10;}
	.st2{clip-path:url(#SVGID_6_);fill:none;stroke:#000000;stroke-width:3;stroke-miterlimit:10;}
	.st3{clip-path:url(#SVGID_8_);fill:none;stroke:#000000;stroke-width:3;stroke-miterlimit:10;}
	.st4{clip-path:url(#SVGID_10_);fill:none;stroke:#000000;stroke-width:3;stroke-miterlimit:10;}
	.st5{clip-path:url(#SVGID_12_);fill:none;stroke:#000000;stroke-width:3;stroke-miterlimit:10;}
	.st6{clip-path:url(#SVGID_14_);fill:none;stroke:#000000;stroke-width:3;stroke-miterlimit:10;}
	.st7{clip-path:url(#SVGID_16_);fill:none;stroke:#000000;stroke-width:3;stroke-miterlimit:10;}
	.st8{clip-path:url(#SVGID_18_);fill:none;stroke:#000000;stroke-width:3;stroke-miterlimit:10;}
	.st9{clip-path:url(#SVGID_20_);fill:none;stroke:#000000;stroke-width:3;stroke-miterlimit:10;}
	.st10{clip-path:url(#SVGID_22_);fill:none;stroke:#000000;stroke-width:3;stroke-miterlimit:10;}
	.st11{clip-path:url(#SVGID_24_);fill:none;stroke:#000000;stroke-width:3;stroke-miterlimit:10;}
	.st12{clip-path:url(#SVGID_26_);fill:none;stroke:#000000;stroke-width:3;stroke-miterlimit:10;}
	.st13{clip-path:url(#SVGID_28_);fill:none;stroke:#000000;stroke-width:3;stroke-miterlimit:10;}
</style>
<g id="Layer_1_1_">
</g>
<g id="Layer_2_1_">
	<g>
		<g>
			<defs>
				<rect id="SVGID_1_" x="4.16" y="162" width="5999" height="1334.55"/>
			</defs>
			<clipPath id="SVGID_2_">
				<use xlink:href="#SVGID_1_"  style="overflow:visible;"/>
			</clipPath>
			<path class="st0" d="M566.54,1755.65c0-20.97-1.02-42.36-0.09-63.31c0.41-9.27,4.12-18.09,5.09-27.33
				c0.97-9.32-1.18-19.25-0.22-28.57c0.46-4.42,2.27-8.26,2.66-12.75c0.44-4.99,0.12-9.3,1.06-14.27c2.01-10.63,6-21.68,6.17-32.53
				c0.4-25.61-0.06-51.3-0.06-76.92c0-24.31,0-48.64,0-72.95c0-11.33,0.79-23.16,0.11-34.45c-0.64-10.56-9.05-20.4-14.55-28.26
				c-13.86-19.8-42.2-34.28-63.07-28.85c-12.89,3.35-24.44,10.54-33.89,21.4c-4.26,4.9-9.77,6.81-14.15,11.38
				c-5.23,5.45-9.9,13.25-14.4,19.61c-4.64,6.55-7.43,12.53-9.29,20.82c-1.67,7.43-7.9,25.44-3.04,31.75
				c4.43,5.76,20.59-4.77,25.76-6.08c6.43-1.63,12.86-1.67,19.42-1.46c5.83,0.19,10.54,2.39,16.21,3.23
				c10.5,1.55,24.31,1.31,34.79-0.42c11.67-1.93,21.46-5.91,29.48-17.11c6.89-9.63,11.92-21.01,12.09-33.88
				c0.09-7.19,0.55-11.19-5.06-15c-3.98-2.71-8.85-3.03-13.24-3.14c-17.65-0.42-46.78-7.28-58.27,13.58
				c-15.98,29.01,34.27,22.53,45.29,22.63c12.5,0.12,16.41-2.14,23.76-14.25c7.2-11.87,17.68-20.82,29.78-22.01
				c7.33-0.72,14.38-1.88,21.45-4.46c4.54-1.66,8.63-4.18,13.4-4.67c12.5-1.26,23.23,5.5,35.28,4.58
				c34-2.57,46.76-36.68,64.59-66.76c3.26-5.5,8.56-14.14,14.62-11.35c4.38,2.01,6.49,8.74,7.51,13.88
				c2.72,13.7,1.11,29.6,1.11,43.66c0,10.25,0.97,21-0.01,31.16c-1.04,10.87-6.16,18.99-11.25,27.59
				c-5.38,9.11-9.13,17.7-17.8,22.21c-10.41,5.42-23.31,6.07-34.51,7.35c-16.49,1.89-35-5.04-49.87-13.35
				c-7.66-4.28-14.81-8.91-21.71-14.84c-4.01-3.45-11.6-7.51-12.29-14.05c7.19-7.4,19.69-1.15,27.45,1.05
				c10.66,3.03,23.83,7.54,34.59,8.1c12.44,0.64,25.97-4.67,36.86-11.53c9.51-5.98,24.91-13.82,25.64-29.98
				c-7.15-1.21-17.45,8.89-24.38,12.85c-7.85,4.49-15.52,8.51-23.84,11.48c-8.58,3.07-15.67,2.38-24.43,0.07
				c-7.89-2.07-16.22-4.53-23.82-7.51c-4.1-1.61-7.65-4.67-12.06-6.13c-3.87-1.28-7.71-2.96-11.26-5.27
				c-4.53-2.95-11.8-7.5-15.7-11.85c-4.82-5.36-5.32-14.01-7.28-21.11c-3.16-11.39-2.41-22.57-2.42-34.54
				c-0.01-16.14-1.45-33.35,0.55-49.25c1.02-8.11,1.8-17.55,4.23-25.26c1.19-3.78,3.58-7.27,4.5-11.12
				c1.36-5.73,1.24-10.67,2.91-16.56c2.92-10.29,1.75-19.92,7.26-28.96c3.61-5.92,8.76-12.44,14.07-15.83
				c5.07-3.26,10.2-3.31,15.22-7.17c6.89-5.31,12.89-10.23,20.15-14.39c6.27-3.6,8.73-10.52,14.4-14.68
				c7.85-5.78,17.32,0.67,24.11,6.85c6.93,6.31,11.15,16.18,16.78,24.07c3.48,4.88,6.44,8.63,11.11,11.82
				c4.14,2.83,7.9,4.22,10.52,9.33c3.95,7.69,4.06,19.56-0.95,26.22c-8.17,10.87-22.25,2.48-32.43,3.05
				c-11.53,0.64-19.45,10.68-29.78,15.9c-9,4.56-22.1,3.94-31.81,2.01c-13.09-2.6-21.56-8.18-23.81-26.08
				c-1.24-9.85,1.13-17.58,4.93-26.03c4.32-9.61,6.58-17.26,5.31-28.39c-1.73-15.13-8.61-7.82-12.96,2.53
				c-4.98,11.84-10.26,21.57-18.6,30.49c-9.51,10.16-22,12.24-33.8,16.48c-13.51,4.84-26.91,7.34-41.02,5.66
				c-16.68-1.98-22.76-14.91-26.61-33.04c-2.6-12.26-4.54-20.86-10.13-32.24c-4.86-9.89-8.2-16.96-10.76-28.71
				c-1.33-6.09-5.14-23.65-4.43-31.4c1.44-15.71,19.35-18.06,28.84-17.93c15.8,0.22,27.24,9.61,41.74,15.61
				c12.33,5.1,25.52,4.67,37.68,9.36c7.81,3.01,14.59,10.76,20.27,17.65c9.37,11.38,5.06,18.56-6.41,24.03
				c-16.74,7.97-37.81,10.56-51.6,25.02c-1.15,19.1,35.67,2.46,42.31-1.08c6.45-3.44,13.28-10.36,17.99-17.03
				c9.6-13.63-9.52-27.71-17.86-33.76c-25.43-18.42-98.45-25.16-82.05-81.95c4.43-15.34,11.83-25.37,20.02-37.91
				c12.31-18.84,20.09-38.2,40.65-44.86c9.02-2.92,16.62-0.46,25.79,1.03c9.38,1.51,16.36-0.25,25.06-4.68
				c13.36-6.78,33.15-11.92,40.89,7.89c12.59,32.27-4.25,72.42-8.1,104.37c-1.6,13.26-3.56,26.32-5.51,39.49
				c-0.69,4.65-5,21.92-2.76,26.08c2.01,3.73,7.06,2.32,9.81-0.31c5.03-4.79,4.69-15.19,5.89-22.38c2.15-12.92,1.3-25.99,2.14-39.08
				c1.13-17.68,6.68-35.05,10.37-52.08c2.52-11.6,6.5-18.78,11.13-29.07c3.17-7.04,6.98-24.9,14.67-27.4
				c5.92-1.92,14.07,10.14,18.68,14.27c4.06,3.64,8.65,6.09,13.47,7.29c9.19,2.29,16.63,3.17,25.33,8.23
				c10.58,6.15,19.27,15.78,29.16,23.34c9.34,7.14,14.55,13.1,19.3,25.97c7.28,19.73,2.67,37.85-5.76,56.09
				c-11.86,25.7-33.77,32.48-55.7,34.43c-11.49,1.02-41.17,14.05-46.59-6.25c4.71-9.33,17.48-1.56,23.72,0.22
				c9.67,2.76,19.27,5.69,28.97,8.28c10.78,2.88,20.91,5.82,31.88,2.36c7.94-2.5,14.57-6.5,22.85-5.51
				c6.57,0.78,14.91,0.97,19.05,7.82c5.29,8.77,5.57,24,4.58,34.38c-1.07,11.19-3.55,26.32-10.71,34.08
				c-5.92,6.43-14.73,10.47-21.56,14.98c-6.68,4.42-12.77,9.62-20.66,8.83c-7.53-0.76-14.5-7.64-21.18-11.84
				c-7.63-4.8-15.67-7.35-23.32-11.86c-5.04-2.97-9.4-7.4-14.46-10.35c-4.59-2.67-10.86-3.6-14.4-8.59
				c-5.11-7.18-4.36-20.76-4.84-29.35c-0.57-10.39-3.62-18.46-8.49-26.99c-4.12-7.21-7.76-12.95-14.89-15.03
				c-5.8-1.68-11.76-2.08-17.59-3.89c-10.49-3.26-21.44-14.14-32.58-10.68c-16.74,5.2-14.41,23.86-3.54,34.56
				c7.16,7.04,15.61,11.06,23.65,16.22c5.1,3.27,9.83,6.59,14.74,1.18c10-10.98-4.06-21.12-12.71-19.57"/>
		</g>
		<g>
			<defs>
				<rect id="SVGID_3_" x="4.16" y="162" width="5999" height="1334.55"/>
			</defs>
			<clipPath id="SVGID_4_">
				<use xlink:href="#SVGID_3_"  style="overflow:visible;"/>
			</clipPath>
			<path class="st1" d="M99.09,1219.49c2.21-8.48,3.32-16.91,5.03-25.35c0.68-3.37,2.28-6.19,3.33-9.38
				c1.72-5.25-0.33-8.39,0.61-13.78c2.47-14.15,10.97-28.44,15.49-41.84c4.01-11.9-1.54-24.86-1.74-37.25
				c-0.18-10.93-0.8-22.36-1.71-33.23c-0.86-10.32-8.02-19.08-14.5-25.12c-10.19-9.48-18.4-22.09-28.41-31.85
				c-5.96-5.83-12.64-6.76-19.86-7.63c-12.26-1.47-21.02,5.15-31.91,11.49c-5.67,3.29-11.2,6.59-16.68,10.36
				c-4.68,3.22-10.62,5.1-14.86,9.05c-4.63,4.32-15.09,13.73-17.43,20.6c-2.57,7.56-0.36,18.9,4.29,24.43
				c7.24,8.6,16.42,16.75,24.7,23.74c18.26,15.43,40.15,24.77,60.23,36.25c6.99,4,13.78,5.72,20.76,9.06
				c7.68,3.69,18.29,1.97,22.38-7.25c4.14-9.33,10.48-16.84,14.25-26.22c2.19-5.43,4.96-9.59,7.54-14.73
				c3.16-6.29,5.33-13.85,7.82-20.58c3.89-10.52,10.19-23.2,8.27-35.38c-0.84-5.35-4.36-16.07-6.72-20.88
				c-2.48-5.05-6.68-8.57-9.34-13.43c-6.23-11.38-8.7-24.95-15.68-35.86c-7.83-12.23-16.42-20.91-26.05-30.52
				c-4.26-4.26-7.38-9.74-12.29-13.42c-10.66-7.97-22.68-11.72-34.81-14.52c-15.07-3.48-28.51-6.52-43.8-5.1
				c-8.27,0.77-19.72-1.03-27.67,2.49c-2.3,1.02-4.4-0.54-4.76,3.85c-0.16,1.99,3.28,5.74,4.2,7.04
				c4.27,6.04,9.08,10.96,14.13,15.92c4.95,4.85,9.94,9.8,14.79,14.79c4.1,4.21,6.65,9.48,10.29,14.27
				c4.92,6.49,8.13,13.04,12.05,20.38c2.78,5.2,4.52,11.33,7.63,16.25c6.59,10.46,16.34,18.45,23.85,27.84
				c3.11,3.89,5.95,9.69,9.82,12.43c4.55,3.21,9.69,0.9,14.76,1.15c5.36,0.26,10.66,1.89,16.02,1.96c4.17,0.05,8.15-0.77,12.31-0.51
				c5.22,0.32,11.8,2.64,16.94,1.36c4.32-1.08,7.41-5.43,11.62-7.04c4.66-1.78,9.58-3,14.3-4.54c5.15-1.7,8.25-2.1,12.97-5.22
				c4.77-3.16,9.76-3.61,14.86-5.66c6.48-2.6,12.1-7.61,18.53-10.32c3.87-1.63,7.66-1.8,11.58-3.05c4.17-1.32,7.65-3.89,11.56-6.03
				c9.9-5.45,22.98-10.3,33.85-7.79c10.08,2.33,19.56,6.1,29.04,10.42c10.95,5,22.62,7.74,33.52,13.23
				c12.98,6.54,28.36,9.41,42.31,8.91c7.17-0.25,12.32-0.14,18.07-5.67c3.87-3.73,9.25-7.02,10.14-13.4
				c1.37-9.83-8.14-17.68-14.77-19.92c-16.2-5.46-37.6,8.79-51.29,18.71c-7.92,5.74-15.97,9.25-24.21,14.26
				c-14.37,8.74-27.54,20.19-41.87,28.94c-16.51,10.09-33.45,13.7-51.48,9.82c-12.92-2.8-28.59-6.56-39.89-15.49
				c-9.75-7.7-9.16-18.29-5.23-30.01c7.98-23.82,11.89-49.52,22.36-72.14c5.36-11.59,10.55-23.32,17.39-33.61
				c6.94-10.44,15.15-18.94,23.6-27.42c5.16-5.17,11.3-6.72,17.24-10.14c4.74-2.72,9.55-5.66,13.98-9.11
				c8.93-6.95,15.61-15.85,21.49-26.65c4.37-8.03,11.01-17.01,12.03-26.85c1.28-12.38-6.33-24.98-12.06-34.06
				c-5.37-8.51-11-11.04-19.41-14.16c-6.36-2.35-13.34-5.68-20.02-5.99c-4.65-0.22-9.93,1.56-14.43,1.99
				c-7.06,0.68-13.96,0.51-20.98,2.24c-8.13,2.02-17.98,5.76-26.22,3.23c-3.83-1.18-7.46-4.38-11.22-5.77
				c-4.05-1.5-8.83-1.77-13.01-2.25c-9.81-1.13-18.36-4.67-22.47,8.67c-5.56,18.05,4.05,36.84,11.71,51.5
				c8.14,15.59,13.72,33.26,26.24,44.07c8.1,6.99,16.06,14.25,23.15,22.87c9.98,12.12,20.36,20.76,34.62,14.57
				c16.91-7.33,28.94-20.45,42.71-33.49c8.98-8.52,15.33-24.67,17.45-38.4c1.11-7.19,2.2-16.37,1.09-23.78
				c-1.52-10.16-5.34-18.98-6.44-29.54c-1.45-14.03-0.43-29.63,3.45-43.08c1.39-4.82,3.94-9.09,5.49-13.8
				c3.48-10.55,3.67-29.63-0.35-40.12c-4.45-11.64-11.83-24.1-19.8-32.1c-11.24-11.3-21.91-24.43-33.92-34.37
				c-21.81-18.07-44.68-28.15-71.13-27.89c-5.1,0.05-15.86-3.99-20.3-0.4c-4.27,3.44,0.29,7.22,2.4,12.31
				c4.67,11.22,9.28,23.2,11.92,35.39c2.43,11.2,3.65,22.75,6.1,34c6.49,29.71,15.7,60.3,35.87,79.96
				c9.15,8.91,20.21,15.91,30.7,22.05c11.46,6.72,21.68,10.88,33.74,5.06c9.62-4.64,16.95-13.84,25.74-20.34
				c8.82-6.52,16.95-9.15,26.8-11.93c16.37-4.63,32.34-2.86,48.91-0.94c8.35,0.97,16.74,5.22,25.02,5.6
				c9.02,0.4,18.32-2.5,26.94-5.55c23.54-8.29,37.8-36.59,57.95-51.88c7.9-5.99,16.23-10.13,24.88-14.15
				c8.05-3.75,15.55-7.55,24.16-4.31c3.66,1.37,7.85,3.58,9.29,8.37c3,9.97-6.19,12.13-12.32,13.41
				c-27.99,5.81-51.03-25.22-73.84-39.96c-16.98-10.98-33.62-17.77-52.75-11.06c-14.71,5.16-26.67,22.94-39.08,33.23
				c-14.29,11.86-25.28,27.16-38.14,40.97c-10.21,10.96-21.03,23.57-33.32,30.62c-3.81-5.27,5.82-14.63,8.22-18.32
				c8.28-12.79,15.35-26.94,21.76-41.27c9.19-20.54,14.4-43.91,22.34-65.37c2.64-7.13,6.21-14.43,8.32-21.79
				c2.52-8.78-2.97-12.68-9.14-16.42c-5.71-3.47-10.38-7.01-15.81-11.1c-10.86-8.2-25.46-12.08-37.64-15.6
				c-8.85-2.55-18.19-3.16-26.62-7.86c-9.64-5.39-18.18-21.85-24.58-31.99c-7.08-11.22-13.67-23.27-20.3-34.96
				c-3.98-7.02-8.41-13.9-10.89-22.01c-3.17-10.35-6.47-22.42-0.12-32.01c6.11-9.24,15.16-5.03,22.95-2.41
				c4.48,1.5,9.6,2.44,13.7,5.36c7.73,5.51,11.28,16.68,16.76,24.87c14.52,21.71,31.35,40.33,45.05,63.04
				c12.28,20.34,20.1,45.71,35.18,63c4.26,4.89,4.72,8.22,10.08,2.79c8.29-8.42,10.41-19.92,16.39-30.18
				c15.8-27.1,50.96-17.01,73.82-14.82c20.21,1.94,39.22-1.02,59.25-3.23c22.59-2.51,46.22-3.99,68.9-2.39
				c6.4,0.45,11.95,1.14,16.81,6.93c2.97,3.54,6.5,10.36,5.32,15.83c-1.55,7.19-12.28,10.37-16.97,12.31
				c-8.78,3.61-18.15,3.58-27.14,5.78c-16.8,4.12-31.56,13.66-47.58,20.36c-19.84,8.31-42.23,1.71-62.34-1.96
				c-7.56-1.37-15.13-2.87-22.72-3.94c-6.09-0.85-16.4-0.33-22.73-3.78c-6.98-3.79-10.77-18.07-14.06-25.81
				c-4.62-10.87-11.22-20.87-13.63-32.87c-2.64-13.2,3.21-23.77,7.57-35.56c7.48-20.24,8.98-32.41,3.91-54.52
				c-5.16-22.47-8.44-46.28-20.01-65.29c-7.65-12.57-18.34-33.8-32.07-34.68c-13.89-0.89-15.81,11.2-17.98,25.09
				c-3.13,20.08-4.95,34.79,0.26,55.05c7.85,30.54,25.11,53.94,37.08,81.82c5.32,12.38,10.09,24.65,17.43,35.47"/>
		</g>
		<g>
			<defs>
				<rect id="SVGID_5_" x="4.16" y="162" width="5999" height="1334.55"/>
			</defs>
			<clipPath id="SVGID_6_">
				<use xlink:href="#SVGID_5_"  style="overflow:visible;"/>
			</clipPath>
			<path class="st2" d="M1258.9,1865.9c2.18-8.49,5.23-16.16,7.8-24.25c1.02-3.23,1.05-6.69,1.69-10.03
				c1.06-5.51,4.2-6.6,5.96-11.65c4.63-13.3,4.41-31.04,7.02-45.2c2.32-12.58,12.91-19.13,18.89-29.07
				c5.28-8.78,11.14-17.63,16.98-25.82c5.55-7.79,15.48-9.77,23.59-10.02c12.75-0.4,25.34-4.74,38.07-5.51
				c7.59-0.46,13.46,3.59,19.74,8.07c10.67,7.61,14.69,19.31,20.59,32.3c3.07,6.76,6.02,13.41,8.72,20.43
				c2.3,5.99,6.26,11.79,7.85,18.05c1.75,6.85,5.84,22.04,4.52,29.3c-1.45,8-8.57,15.65-14.95,16.8c-9.93,1.8-21.22,1.83-31.24,1.57
				c-22.1-0.57-44.31-8.69-66.04-13.79c-7.56-1.77-13.9-5.25-21.15-7.55c-7.98-2.53-15.81-11.55-14.82-21.99
				c1-10.57-0.63-21.24,0.7-31.59c0.77-5.99,0.47-11.38,0.77-17.42c0.38-7.39,2.16-15.12,3.29-22.37
				c1.77-11.36,2.59-26.22,9.87-34.75c3.2-3.75,11.09-9.95,15.27-12.17c4.39-2.33,9.45-2.17,13.9-4.22
				c10.4-4.78,18.79-14.05,29.59-17.91c12.11-4.33,23.17-5.21,35.52-6.12c5.47-0.4,10.58-2.62,16.3-2.09
				c12.42,1.18,23.96,6.77,35.15,13.21c13.9,8.01,26.27,15.18,38.05,27.33c6.37,6.57,16.53,13.35,21.36,21.91
				c1.4,2.48,3.84,2.71,2.06,6.56c-0.8,1.73-5.37,2.32-6.72,2.71c-6.32,1.86-12.53,2.39-18.97,2.8c-6.31,0.4-12.69,0.84-18.98,1.41
				c-5.32,0.48-9.86,2.93-15.08,4.22c-7.04,1.75-12.73,4.77-19.37,7.92c-4.7,2.23-8.99,5.97-13.83,7.75
				c-10.27,3.78-21.95,3.28-32.48,5.52c-4.35,0.93-9.39,3.61-13.82,3.06c-5.21-0.66-8.31-6.23-12.56-9.67
				c-4.49-3.64-9.57-6.13-13.96-9.93c-3.42-2.96-6.27-6.49-9.78-9.27c-4.41-3.49-10.84-6.34-14.43-11.08
				c-3.01-3.99-3.48-9.76-6.16-14.09c-2.96-4.8-6.4-9.33-9.51-13.99c-3.4-5.08-5.73-7.65-8.11-13.58c-2.4-5.99-6.25-9.95-9.44-15.29
				c-4.06-6.77-6.27-14.89-10.24-21.73c-2.39-4.11-5.39-6.97-8-10.81c-2.77-4.07-4.41-8.67-6.58-13.22
				c-5.51-11.55-13.88-24.91-23.91-30.68c-9.3-5.35-18.79-9.1-28.53-12.39c-11.26-3.8-22.05-9.97-33.5-13.33
				c-13.63-4.01-27.5-12.74-38.63-23.18c-5.72-5.36-9.96-8.96-12.05-17.6c-1.41-5.82-4.24-12.37-1.97-18.2
				c3.49-8.99,14.92-8.54,21.37-5.6c15.75,7.2,26.48,34.18,32.98,52.11c3.76,10.37,8.66,19,13.02,29.02
				c7.59,17.44,12.95,36.24,20.51,53.67c8.71,20.08,20.8,35.21,37.31,45c11.83,7.02,26.35,15.21,39.74,16.07
				c11.55,0.74,16.03-8.29,18.34-20.67c4.68-25.13,13.55-48.86,15.64-74.8c1.07-13.28,2.36-26.58,1.61-39.86
				c-0.76-13.48-3.44-26.31-6.34-39.29c-1.77-7.92-6.04-13.59-9.27-20.65c-2.58-5.62-5.12-11.48-7.11-17.47
				c-4.01-12.07-5.27-24.12-4.99-37.15c0.21-9.68-0.99-21.76,2.8-30.52c4.77-11.01,16.88-15.78,25.79-19.05
				c8.36-3.07,14.13-1.08,22.44,2.43c6.29,2.66,13.53,4.96,19.11,9.51c3.89,3.17,7.35,8.41,10.81,12
				c5.43,5.63,11.13,10.45,16.03,16.91c5.67,7.49,11.94,17.62,19.83,21.48c3.67,1.8,8.12,1.8,11.84,3.38c4,1.7,8.02,4.9,11.64,7.53
				c8.51,6.14,17.13,9.41,14.22,23.21c-3.94,18.69-20.58,27.07-33.7,33.5c-13.94,6.83-26.77,17.22-42.04,17.02
				c-9.87-0.14-19.76,0.05-29.58,1.97c-13.8,2.69-26.31,2.27-35.02-13.02c-10.33-18.12-13.96-37.45-19.05-57.97
				c-3.32-13.4-0.91-31.11,3.81-43.81c2.47-6.65,5.89-14.91,10.27-20.14c6.01-7.18,13.25-11.6,19.1-19.42
				c7.77-10.37,14.25-23.81,17.4-37.55c1.13-4.93,1.06-10.23,2-15.18c2.11-11.09,10.91-26.75,19.1-32.41
				c9.08-6.26,20.94-11.12,31.18-11.9c14.45-1.11,29.29-4.13,43.74-3.59c26.23,0.98,49.58,9.2,70.99,28.44
				c4.13,3.71,14.78,8.16,16.72,14.27c1.86,5.88-3.62,5.67-7.73,8.29c-9.06,5.78-18.44,12.22-26.31,20.24
				c-7.23,7.37-13.64,15.9-20.91,23.29c-19.22,19.52-41.07,37.8-66.71,39.31c-11.63,0.68-23.92-1.58-35.34-4.12
				c-12.48-2.76-22.76-6.73-29.84-20.14c-5.65-10.7-7.3-23.45-11.41-35.06c-4.12-11.65-9.5-19.63-16.22-28.99
				c-11.15-15.54-24.98-25.58-39.37-35.94c-7.25-5.22-16.08-7.77-22.99-13.43c-7.53-6.17-13.74-15.21-19.33-23.88
				c-15.27-23.67-13.6-56.97-22.83-83.9c-3.62-10.56-8.46-19.91-13.61-29.41c-4.79-8.84-9.11-17.33-17.65-20.88
				c-3.62-1.51-8.07-2.74-11.49,0.14c-7.12,5.97-0.66,14.32,3.74,19.77c20.06,24.85,53.37,16.16,78.86,20.55
				c18.97,3.27,35.7,9.71,48.13,28.92c9.55,14.78,10.95,37.86,16.22,55.14c6.07,19.93,7.84,40.28,11.83,60.77
				c3.17,16.27,6.07,34.3,12.76,48.88c5.57-1.56,2.12-16.09,1.91-20.82c-0.74-16.37,0.15-32.97,1.65-49.25
				c2.15-23.32,8.88-46.09,12.47-69.28c1.19-7.7,1.72-16.21,3.44-23.72c2.06-8.96,8.36-8.18,15.14-6.8
				c6.27,1.29,11.74,1.76,18.08,2.33c12.68,1.14,26.39,8.47,37.96,14.37c8.4,4.28,16.29,10.51,25.36,12.75
				c10.37,2.55,25.05-4.72,35.01-8.37c11.03-4.04,22.05-9.12,32.92-13.87c6.53-2.85,13.36-5.27,19.2-10.09
				c7.44-6.15,15.78-13.61,15.12-25.97c-0.64-11.92-9.99-14.99-17.55-18.47c-4.35-1.99-8.95-4.91-13.67-5.48
				c-8.87-1.08-17,5.46-25.31,8.2c-22.01,7.24-44.44,10.29-66.25,18.92c-19.54,7.72-37.81,22.75-58.19,26
				c-5.76,0.92-7.7,3.31-9.51-4.99c-2.8-12.81,0.87-23.7,0.81-36.36c-0.15-33.43-33.51-50.49-53.14-65.13
				c-17.36-12.95-31.45-29.02-46.72-45.24c-17.21-18.29-35.76-36.48-54.96-51.49c-5.42-4.23-10.27-7.66-16.94-6.44
				c-4.08,0.76-10.15,3.76-11.76,9.06c-2.11,6.97,5.13,17.28,8.04,22.22c5.45,9.25,13.1,15.97,19.38,24.22
				c11.75,15.44,19.29,33.8,29.18,50.78c12.25,21.03,33.57,31.75,51.67,43.23c6.8,4.31,13.67,8.54,20.35,13.14
				c5.36,3.68,13.51,11.53,20.27,13.27c7.46,1.93,17.25-6.97,23.55-10.91c8.86-5.53,18.93-8.93,26.51-16.96
				c8.34-8.84,8.54-21.66,10.52-34.38c3.4-21.86,7.9-32.84,22.4-47.19c14.75-14.58,28.58-31.59,46.92-38.76
				c12.12-4.73,30.79-14.34,42.37-5.17c11.73,9.26,7.62,20.49,2.86,33.36c-6.87,18.61-12.29,31.88-26.04,44.63
				c-20.72,19.21-45.75,25.86-68.57,39.94c-10.14,6.25-19.77,12.8-30.83,16.34"/>
		</g>
		<g>
			<defs>
				<rect id="SVGID_7_" x="4.16" y="162" width="5999" height="1334.55"/>
			</defs>
			<clipPath id="SVGID_8_">
				<use xlink:href="#SVGID_7_"  style="overflow:visible;"/>
			</clipPath>
			<path class="st3" d="M47.5,1976.27c1.52-8.7,3.97-16.69,5.91-25.06c0.77-3.33,0.53-6.77,0.92-10.19
				c0.64-5.61,3.68-7.06,5.05-12.29c3.6-13.78,2.02-31.42,3.54-45.82c1.35-12.79,11.39-20.55,16.58-31.15
				c4.58-9.35,9.75-18.85,14.93-27.69c4.93-8.41,14.66-11.54,22.72-12.73c12.66-1.88,24.86-7.69,37.48-9.93
				c7.52-1.34,13.68,2.01,20.27,5.73c11.2,6.34,16.1,17.51,22.96,29.75c3.57,6.36,7.02,12.65,10.23,19.31
				c2.74,5.69,7.13,11.01,9.2,17.06c2.26,6.61,7.5,21.26,6.74,28.63c-0.84,8.13-7.34,16.58-13.6,18.48
				c-9.75,2.96-20.99,4.31-30.98,5.21c-22.05,2.01-44.77-3.48-66.79-6c-7.67-0.88-14.24-3.6-21.63-5.04
				c-8.14-1.58-16.62-9.64-16.43-20.15c0.19-10.65-2.25-21.07-1.71-31.53c0.31-6.05-0.4-11.38-0.56-17.43
				c-0.19-7.4,1-15.3,1.57-22.66c0.9-11.53,0.58-26.41,7.17-35.75c2.9-4.11,10.28-11.2,14.27-13.9c4.19-2.83,9.25-3.27,13.52-5.82
				c9.99-5.98,17.64-16.19,28.09-21.29c11.73-5.73,22.67-7.9,34.9-10.25c5.42-1.04,10.33-3.85,16.07-3.99
				c12.45-0.27,24.37,3.94,36,9.04c14.45,6.35,27.31,12.05,39.96,22.77c6.84,5.79,17.47,11.35,22.93,19.32
				c1.58,2.3,4.03,2.25,2.56,6.29c-0.67,1.82-5.17,2.93-6.49,3.48c-6.15,2.57-12.29,3.85-18.67,5c-6.25,1.13-12.57,2.32-18.79,3.63
				c-5.26,1.1-9.59,4.07-14.69,5.97c-6.88,2.55-12.31,6.24-18.68,10.15c-4.51,2.77-8.5,6.99-13.18,9.33
				c-9.94,4.96-21.61,5.83-31.91,9.3c-4.26,1.44-9.07,4.7-13.53,4.67c-5.24-0.05-8.75-5.22-13.24-8.16
				c-4.75-3.09-9.99-4.99-14.66-8.24c-3.63-2.54-6.74-5.73-10.45-8.08c-4.65-2.96-11.28-5.04-15.21-9.33
				c-3.3-3.61-4.21-9.3-7.21-13.31c-3.31-4.43-7.08-8.54-10.53-12.81c-3.77-4.65-6.29-6.95-9.11-12.57
				c-2.84-5.69-6.98-9.19-10.57-14.11c-4.56-6.26-7.38-14.09-11.86-20.44c-2.69-3.81-5.9-6.31-8.79-9.82
				c-3.07-3.73-5.05-8.12-7.56-12.39c-6.37-10.86-15.72-23.18-26.14-27.74c-9.67-4.23-19.4-6.86-29.35-9
				c-11.5-2.48-22.71-7.34-34.36-9.36c-13.88-2.4-28.35-9.46-40.22-18.55c-6.1-4.67-10.6-7.76-13.34-16.12
				c-1.84-5.62-5.17-11.81-3.35-17.89c2.79-9.36,14.21-10.25,20.84-8.07c16.23,5.32,28.97,30.94,36.81,48.02
				c4.53,9.88,10.07,17.91,15.17,27.37c8.89,16.48,15.65,34.56,24.51,51.03c10.2,18.98,23.39,32.62,40.57,40.43
				c12.31,5.61,27.39,12.06,40.79,11.35c11.55-0.61,15.33-10.13,16.68-22.73c2.74-25.56,9.76-50.24,9.86-76.3
				c0.05-13.35,0.32-26.73-1.44-39.88c-1.78-13.33-5.43-25.79-9.31-38.37c-2.37-7.68-7.05-12.83-10.81-19.47
				c-2.99-5.3-5.97-10.83-8.41-16.55c-4.92-11.55-7.09-23.4-7.8-36.4c-0.53-9.66-2.64-21.55,0.46-30.7
				c3.91-11.51,15.6-17.69,24.22-21.99c8.09-4.02,13.99-2.74,22.53-0.21c6.46,1.91,13.85,3.35,19.75,7.23
				c4.11,2.7,7.96,7.51,11.68,10.68c5.83,4.98,11.88,9.1,17.24,14.95c6.22,6.78,13.23,16.14,21.38,19.06
				c3.79,1.36,8.23,0.84,12.05,1.98c4.11,1.23,8.36,3.95,12.17,6.13c8.94,5.11,17.77,7.37,15.93,21.44
				c-2.5,19.07-18.43,29.37-30.99,37.29c-13.35,8.43-25.34,20.28-40.55,21.85c-9.84,1.03-19.67,2.36-29.29,5.41
				c-13.54,4.3-26.02,5.32-35.86-8.88c-11.67-16.84-16.76-35.65-23.39-55.49c-4.33-12.94-3.28-30.86,0.45-44.06
				c1.95-6.91,4.72-15.52,8.69-21.26c5.43-7.85,12.31-13.1,17.53-21.57c6.94-11.24,12.37-25.37,14.46-39.42
				c0.75-5.04,0.28-10.31,0.84-15.35c1.25-11.29,8.82-27.9,16.55-34.5c8.56-7.3,20-13.51,30.13-15.5c14.3-2.8,28.85-7.54,43.27-8.69
				c26.19-2.09,50.06,3.37,72.84,20.01c4.4,3.21,15.34,6.4,17.73,12.26c2.3,5.63-3.17,6.07-7.06,9.16
				c-8.58,6.81-17.42,14.32-24.65,23.24c-6.63,8.18-12.37,17.42-19.04,25.63c-17.64,21.68-38,42.43-63.42,46.93
				c-11.53,2.04-23.93,1.21-35.49,0.04c-12.64-1.29-23.17-4.04-31.25-16.56c-6.44-9.99-9.06-22.49-14.03-33.56
				c-4.99-11.12-10.96-18.43-18.36-26.96c-12.29-14.16-26.82-22.54-41.94-31.17c-7.62-4.35-16.6-5.86-23.91-10.68
				c-7.97-5.25-14.84-13.53-21.07-21.52c-17.01-21.78-17.89-55.13-29.13-80.85c-4.41-10.09-9.94-18.83-15.8-27.68
				c-5.45-8.24-10.4-16.18-19.16-18.73c-3.72-1.08-8.24-1.78-11.43,1.47c-6.63,6.77,0.44,14.34,5.23,19.25
				c21.87,22.4,54.37,9.84,80.07,11.24c19.14,1.04,36.29,5.48,50.12,23.16c10.64,13.59,13.79,36.41,20.36,53
				c7.57,19.13,10.87,39.18,16.42,59.11c4.4,15.82,8.66,33.45,16.44,47.17c5.43-2.2,0.89-16.28,0.31-20.96
				c-1.99-16.21-2.37-32.84-2.12-49.22c0.36-23.47,5.32-46.93,7.13-70.42c0.6-7.81,0.47-16.34,1.62-24.02
				c1.37-9.16,7.7-9.12,14.55-8.53c6.34,0.54,11.82,0.38,18.18,0.2c12.71-0.36,26.92,5.34,38.89,9.87
				c8.69,3.28,17.02,8.57,26.22,9.72c10.52,1.32,24.58-7.63,34.22-12.43c10.67-5.31,21.25-11.66,31.72-17.65
				c6.29-3.6,12.9-6.81,18.34-12.29c6.94-6.99,14.67-15.39,13.07-27.62c-1.55-11.79-11.09-13.75-18.88-16.33
				c-4.48-1.49-9.29-3.85-14.03-3.86c-8.91-0.02-16.51,7.43-24.57,11.12c-21.36,9.78-43.45,15.44-64.51,26.58
				c-18.86,9.98-35.9,27.07-55.95,32.68c-5.66,1.58-7.41,4.18-9.85-3.85c-3.77-12.43-0.94-23.7-1.96-36.29
				c-2.7-33.25-37.21-46.34-57.88-58.63c-18.27-10.86-33.53-25.22-49.96-39.57c-18.53-16.19-38.38-32.14-58.65-44.83
				c-5.72-3.58-10.8-6.43-17.35-4.43c-4,1.23-9.82,4.94-11.02,10.4c-1.57,7.18,6.43,16.6,9.7,21.18
				c6.13,8.57,14.25,14.36,21.14,21.85c12.87,13.99,21.78,31.4,32.93,47.14c13.8,19.5,35.85,27.68,54.73,37
				c7.1,3.5,14.26,6.91,21.26,10.7c5.62,3.03,14.32,9.89,21.2,10.84c7.57,1.05,16.64-8.95,22.62-13.61
				c8.4-6.55,18.17-11.1,25.1-19.98c7.63-9.78,6.85-22.56,7.85-35.46c1.72-22.16,5.35-33.62,18.7-49.59
				c13.57-16.24,26.04-34.8,43.75-44.07c11.71-6.13,29.55-17.86,41.79-10.1c12.38,7.85,9.15,19.5,5.4,32.88
				c-5.42,19.32-9.8,33.18-22.52,47.48c-19.16,21.55-43.57,31.09-65.21,47.77c-9.62,7.42-18.71,15.07-29.44,19.87"/>
		</g>
		<g>
			<defs>
				<rect id="SVGID_9_" x="4.16" y="162" width="5999" height="1334.55"/>
			</defs>
			<clipPath id="SVGID_10_">
				<use xlink:href="#SVGID_9_"  style="overflow:visible;"/>
			</clipPath>
			<path class="st4" d="M1936.44,1781.39c0-30.53,1.48-61.68,0.13-92.16c-0.6-13.51-6-26.33-7.41-39.79
				c-1.42-13.56,1.72-28.02,0.32-41.6c-0.66-6.43-3.3-12.01-3.87-18.57c-0.63-7.25-0.17-13.53-1.54-20.79
				c-2.93-15.49-8.74-31.56-8.98-47.35c-0.58-37.28,0.08-74.68,0.08-111.96c0-35.41,0-70.8,0-106.21c0-16.49-1.15-33.71-0.16-50.14
				c0.93-15.38,13.17-29.7,21.18-41.14c20.18-28.81,61.42-49.9,91.8-41.98c18.76,4.89,35.58,15.33,49.33,31.15
				c6.2,7.13,14.22,9.92,20.59,16.55c7.61,7.92,14.41,19.29,20.95,28.54c6.75,9.53,10.82,18.24,13.53,30.32
				c2.43,10.81,11.5,37.03,4.42,46.21c-6.45,8.38-29.97-6.93-37.5-8.84c-9.37-2.36-18.72-2.43-28.26-2.13
				c-8.49,0.27-15.34,3.48-23.59,4.7c-15.28,2.25-35.39,1.91-50.63-0.61c-16.99-2.81-31.24-8.59-42.91-24.9
				c-10.04-14.03-17.36-30.58-17.59-49.33c-0.13-10.46-0.81-16.29,7.36-21.84c5.8-3.95,12.88-4.42,19.27-4.57
				c25.68-0.62,68.1-10.58,84.82,19.77c23.26,42.22-49.88,32.79-65.92,32.96c-18.2,0.19-23.89-3.11-34.58-20.74
				c-10.49-17.28-25.74-30.31-43.35-32.04c-10.66-1.05-20.93-2.74-31.22-6.49c-6.61-2.4-12.57-6.09-19.51-6.8
				c-18.2-1.84-33.81,8-51.35,6.66c-49.5-3.75-68.07-53.38-94.01-97.17c-4.74-8-12.46-20.58-21.28-16.53
				c-6.38,2.92-9.45,12.71-10.94,20.2c-3.97,19.94-1.62,43.09-1.61,63.56c0,14.92-1.41,30.57,0.01,45.36
				c1.52,15.81,8.97,27.63,16.38,40.17c7.83,13.26,13.29,25.76,25.92,32.34c15.16,7.89,33.94,8.83,50.24,10.7
				c24,2.76,50.95-7.33,72.59-19.42c11.15-6.23,21.55-12.97,31.6-21.62c5.84-5.03,16.89-10.94,17.89-20.45
				c-10.47-10.77-28.66-1.68-39.95,1.54c-15.52,4.42-34.68,10.98-50.34,11.79c-18.11,0.93-37.81-6.8-53.66-16.77
				c-13.84-8.7-36.25-20.12-37.32-43.64c10.41-1.77,25.4,12.94,35.49,18.72c11.43,6.54,22.6,12.38,34.7,16.71
				c12.48,4.47,22.81,3.45,35.56,0.11c11.49-3.01,23.62-6.6,34.68-10.94c5.96-2.34,11.13-6.8,17.56-8.93
				c5.64-1.86,11.23-4.31,16.4-7.68c6.59-4.28,17.18-10.92,22.86-17.25c7.02-7.8,7.74-20.4,10.6-30.71
				c4.59-16.58,3.51-32.84,3.52-50.27c0.01-23.51,2.12-48.54-0.8-71.69c-1.49-11.8-2.62-25.54-6.15-36.76
				c-1.73-5.51-5.21-10.57-6.54-16.18c-1.98-8.34-1.8-15.54-4.23-24.12c-4.26-14.98-2.55-28.99-10.57-42.14
				c-5.26-8.63-12.75-18.1-20.48-23.05c-7.38-4.73-14.85-4.8-22.16-10.44c-10.02-7.73-18.77-14.88-29.33-20.95
				c-9.13-5.24-12.71-15.31-20.96-21.38c-11.43-8.41-25.21,0.97-35.09,9.97c-10.09,9.19-16.24,23.56-24.43,35.04
				c-5.06,7.09-9.37,12.55-16.17,17.21c-6.03,4.13-11.49,6.15-15.32,13.59c-5.75,11.19-5.91,28.47,1.38,38.17
				c11.9,15.82,32.38,3.6,47.21,4.43c16.79,0.94,28.31,15.55,43.34,23.15c13.1,6.62,32.17,5.73,46.31,2.91
				c19.05-3.79,31.39-11.91,34.66-37.96c1.8-14.35-1.65-25.58-7.17-37.89c-6.28-13.99-9.57-25.13-7.73-41.31
				c2.51-22.02,12.53-11.39,18.86,3.68c7.25,17.22,14.93,31.4,27.08,44.37c13.84,14.78,32.02,17.83,49.19,23.98
				c19.67,7.04,39.17,10.68,59.71,8.24c24.28-2.88,33.13-21.7,38.73-48.08c3.79-17.84,6.61-30.37,14.75-46.92
				c7.08-14.39,11.93-24.69,15.67-41.79c1.94-8.85,7.49-34.43,6.45-45.69c-2.1-22.87-28.16-26.29-41.97-26.1
				c-22.99,0.33-39.66,13.98-60.75,22.72c-17.95,7.43-37.15,6.8-54.85,13.62c-11.38,4.38-21.23,15.66-29.5,25.7
				c-13.63,16.55-7.37,27.01,9.33,34.97c24.36,11.61,55.04,15.38,75.11,36.41c1.67,27.81-51.93,3.58-61.58-1.57
				c-9.38-5-19.33-15.08-26.18-24.81c-13.97-19.84,13.85-40.33,25.99-49.14c37.02-26.81,143.3-36.62,119.43-119.29
				c-6.45-22.33-17.21-36.93-29.14-55.18c-17.92-27.42-29.24-55.62-59.17-65.29c-13.13-4.25-24.2-0.66-37.55,1.49
				c-13.66,2.2-23.81-0.37-36.48-6.81c-19.45-9.88-48.26-17.36-59.52,11.49c-18.33,46.98,6.19,105.41,11.8,151.94
				c2.33,19.29,5.18,38.3,8.02,57.48c1,6.78,7.27,31.92,4.02,37.96c-2.92,5.43-10.28,3.37-14.28-0.46
				c-7.32-6.97-6.82-22.11-8.57-32.58c-3.14-18.81-1.89-37.83-3.11-56.89c-1.65-25.74-9.72-51.02-15.1-75.8
				c-3.67-16.89-9.46-27.35-16.2-42.31c-4.62-10.25-10.15-36.24-21.35-39.88c-8.61-2.8-20.48,14.76-27.19,20.77
				c-5.91,5.3-12.6,8.86-19.6,10.61c-13.38,3.33-24.21,4.62-36.87,11.98c-15.4,8.95-28.06,22.96-42.44,33.97
				c-13.6,10.4-21.18,19.07-28.1,37.81c-10.6,28.72-3.88,55.09,8.38,81.65c17.27,37.41,49.16,47.28,81.08,50.11
				c16.72,1.49,59.92,20.45,67.81-9.1c-6.85-13.59-25.45-2.27-34.52,0.32c-14.07,4.02-28.05,8.29-42.16,12.06
				c-15.69,4.2-30.43,8.48-46.4,3.44c-11.56-3.64-21.21-9.46-33.27-8.02c-9.56,1.13-21.7,1.4-27.73,11.39
				c-7.71,12.76-8.11,34.94-6.67,50.04c1.55,16.29,5.16,38.3,15.58,49.62c8.61,9.35,21.44,15.24,31.39,21.81
				c9.72,6.43,18.59,14,30.07,12.84c10.96-1.1,21.11-11.12,30.83-17.23c11.11-6.98,22.81-10.71,33.95-17.27
				c7.34-4.32,13.69-10.77,21.05-15.07c6.68-3.9,15.81-5.25,20.97-12.5c7.43-10.45,6.35-30.23,7.04-42.74
				c0.83-15.12,5.27-26.86,12.36-39.28c6-10.5,11.3-18.85,21.67-21.88c8.44-2.45,17.12-3.02,25.6-5.66
				c15.27-4.73,31.21-20.59,47.43-15.55c24.37,7.58,20.98,34.73,5.15,50.31c-10.42,10.25-22.72,16.09-34.43,23.61
				c-7.42,4.77-14.3,9.58-21.46,1.72c-14.56-15.99,5.9-30.74,18.5-28.49"/>
		</g>
		<g>
			<defs>
				<rect id="SVGID_11_" x="4.16" y="162" width="5999" height="1334.55"/>
			</defs>
			<clipPath id="SVGID_12_">
				<use xlink:href="#SVGID_11_"  style="overflow:visible;"/>
			</clipPath>
			<path class="st5" d="M2431.48,2842.52c0-20.97-1.02-42.36-0.09-63.31c0.41-9.27,4.12-18.09,5.09-27.33
				c0.97-9.32-1.18-19.25-0.22-28.57c0.46-4.42,2.27-8.26,2.66-12.75c0.44-4.99,0.12-9.3,1.06-14.27c2.01-10.63,6-21.68,6.17-32.53
				c0.4-25.61-0.06-51.3-0.06-76.92c0-24.31,0-48.64,0-72.95c0-11.33,0.79-23.16,0.11-34.45c-0.64-10.56-9.05-20.4-14.55-28.26
				c-13.86-19.8-42.2-34.28-63.07-28.85c-12.89,3.35-24.44,10.54-33.89,21.4c-4.26,4.9-9.77,6.81-14.15,11.38
				c-5.23,5.45-9.9,13.25-14.4,19.61c-4.64,6.55-7.43,12.53-9.29,20.82c-1.67,7.43-7.9,25.44-3.04,31.75
				c4.43,5.76,20.59-4.77,25.76-6.08c6.43-1.63,12.86-1.67,19.42-1.46c5.83,0.19,10.54,2.39,16.21,3.23
				c10.5,1.55,24.31,1.31,34.78-0.42c11.67-1.93,21.46-5.91,29.48-17.11c6.89-9.63,11.92-21.01,12.09-33.88
				c0.09-7.19,0.55-11.19-5.06-15c-3.99-2.71-8.85-3.03-13.24-3.14c-17.65-0.42-46.78-7.28-58.27,13.58
				c-15.98,29.01,34.27,22.53,45.29,22.63c12.5,0.12,16.41-2.14,23.76-14.25c7.2-11.87,17.68-20.82,29.78-22.01
				c7.33-0.72,14.38-1.88,21.45-4.46c4.54-1.66,8.63-4.18,13.4-4.67c12.5-1.26,23.23,5.5,35.28,4.58
				c34-2.57,46.76-36.68,64.59-66.76c3.26-5.5,8.56-14.14,14.62-11.35c4.38,2.01,6.49,8.74,7.51,13.88
				c2.72,13.7,1.11,29.6,1.11,43.66c0,10.25,0.97,21-0.01,31.16c-1.04,10.87-6.16,18.99-11.25,27.59
				c-5.38,9.11-9.13,17.7-17.8,22.21c-10.41,5.42-23.31,6.07-34.51,7.35c-16.49,1.89-35-5.04-49.87-13.35
				c-7.66-4.28-14.81-8.91-21.71-14.84c-4.01-3.45-11.6-7.51-12.29-14.05c7.19-7.4,19.69-1.15,27.45,1.05
				c10.66,3.03,23.83,7.54,34.59,8.1c12.44,0.64,25.97-4.67,36.86-11.53c9.51-5.98,24.91-13.82,25.64-29.98
				c-7.15-1.21-17.45,8.89-24.38,12.85c-7.85,4.49-15.52,8.51-23.84,11.48c-8.58,3.07-15.67,2.38-24.43,0.07
				c-7.89-2.07-16.22-4.53-23.82-7.51c-4.1-1.61-7.65-4.67-12.06-6.13c-3.87-1.28-7.71-2.96-11.26-5.27
				c-4.53-2.95-11.8-7.5-15.7-11.85c-4.82-5.36-5.32-14.01-7.28-21.11c-3.16-11.39-2.41-22.57-2.42-34.54
				c-0.01-16.14-1.45-33.35,0.55-49.25c1.02-8.11,1.8-17.55,4.23-25.25c1.19-3.78,3.58-7.27,4.5-11.12
				c1.36-5.73,1.24-10.67,2.91-16.56c2.92-10.29,1.75-19.92,7.26-28.96c3.61-5.92,8.76-12.44,14.07-15.83
				c5.07-3.26,10.2-3.31,15.22-7.17c6.89-5.31,12.89-10.23,20.15-14.39c6.27-3.6,8.73-10.52,14.4-14.68
				c7.85-5.78,17.32,0.67,24.11,6.85c6.93,6.31,11.15,16.18,16.78,24.07c3.48,4.88,6.44,8.63,11.11,11.82
				c4.14,2.83,7.9,4.22,10.52,9.33c3.95,7.69,4.06,19.56-0.95,26.22c-8.17,10.87-22.25,2.48-32.43,3.05
				c-11.53,0.64-19.45,10.68-29.78,15.9c-9,4.56-22.1,3.94-31.81,2.01c-13.09-2.6-21.56-8.18-23.81-26.08
				c-1.24-9.85,1.13-17.58,4.93-26.03c4.32-9.61,6.58-17.26,5.31-28.39c-1.73-15.13-8.61-7.82-12.96,2.53
				c-4.98,11.84-10.26,21.57-18.6,30.49c-9.51,10.16-22,12.24-33.8,16.48c-13.51,4.84-26.91,7.34-41.02,5.66
				c-16.68-1.98-22.76-14.91-26.61-33.04c-2.6-12.26-4.54-20.86-10.13-32.24c-4.86-9.89-8.2-16.96-10.76-28.71
				c-1.33-6.09-5.14-23.65-4.43-31.4c1.44-15.71,19.35-18.06,28.84-17.93c15.8,0.22,27.24,9.61,41.73,15.61
				c12.33,5.1,25.52,4.67,37.68,9.36c7.81,3.01,14.59,10.76,20.27,17.65c9.37,11.38,5.06,18.56-6.41,24.03
				c-16.74,7.97-37.81,10.56-51.6,25.02c-1.15,19.1,35.67,2.46,42.31-1.08c6.45-3.44,13.28-10.36,17.99-17.03
				c9.6-13.63-9.52-27.71-17.86-33.76c-25.43-18.42-98.45-25.16-82.05-81.95c4.43-15.34,11.83-25.37,20.02-37.91
				c12.31-18.84,20.09-38.2,40.65-44.86c9.02-2.92,16.62-0.46,25.79,1.03c9.38,1.51,16.36-0.25,25.06-4.68
				c13.36-6.78,33.15-11.92,40.89,7.89c12.59,32.27-4.25,72.42-8.1,104.37c-1.6,13.26-3.56,26.32-5.51,39.49
				c-0.69,4.65-5,21.92-2.76,26.08c2.01,3.73,7.06,2.31,9.81-0.31c5.03-4.79,4.69-15.19,5.89-22.38c2.15-12.92,1.3-25.99,2.14-39.08
				c1.13-17.68,6.68-35.05,10.37-52.08c2.52-11.6,6.5-18.78,11.13-29.07c3.17-7.04,6.98-24.9,14.67-27.4
				c5.92-1.92,14.07,10.14,18.68,14.27c4.06,3.64,8.65,6.09,13.47,7.29c9.19,2.29,16.63,3.17,25.33,8.23
				c10.58,6.15,19.27,15.78,29.16,23.34c9.34,7.14,14.55,13.1,19.3,25.97c7.28,19.73,2.67,37.85-5.76,56.09
				c-11.86,25.7-33.77,32.48-55.7,34.43c-11.49,1.02-41.17,14.05-46.59-6.25c4.71-9.33,17.48-1.56,23.72,0.22
				c9.67,2.76,19.27,5.69,28.97,8.28c10.78,2.88,20.91,5.82,31.88,2.36c7.94-2.5,14.57-6.5,22.85-5.51
				c6.57,0.78,14.91,0.97,19.05,7.82c5.29,8.76,5.57,24,4.58,34.38c-1.07,11.19-3.55,26.32-10.71,34.08
				c-5.92,6.43-14.73,10.47-21.56,14.98c-6.68,4.42-12.77,9.62-20.66,8.83c-7.53-0.76-14.5-7.64-21.18-11.84
				c-7.63-4.8-15.67-7.35-23.32-11.86c-5.04-2.97-9.4-7.4-14.46-10.35c-4.59-2.67-10.86-3.6-14.4-8.59
				c-5.11-7.18-4.36-20.76-4.84-29.35c-0.57-10.39-3.62-18.46-8.49-26.99c-4.12-7.21-7.76-12.95-14.89-15.03
				c-5.8-1.68-11.76-2.08-17.59-3.89c-10.49-3.26-21.44-14.14-32.58-10.68c-16.74,5.2-14.41,23.86-3.54,34.56
				c7.16,7.04,15.61,11.06,23.65,16.22c5.1,3.27,9.83,6.59,14.74,1.18c10-10.98-4.06-21.12-12.71-19.57"/>
		</g>
		<g>
			<defs>
				<rect id="SVGID_13_" x="4.16" y="162" width="5999" height="1334.55"/>
			</defs>
			<clipPath id="SVGID_14_">
				<use xlink:href="#SVGID_13_"  style="overflow:visible;"/>
			</clipPath>
			<path class="st6" d="M3348.35,3030.82c-2.21-8.47-3.32-16.91-5.03-25.35c-0.68-3.37-2.28-6.19-3.33-9.38
				c-1.72-5.25,0.33-8.39-0.61-13.78c-2.47-14.15-10.97-28.44-15.49-41.84c-4.01-11.9,1.54-24.86,1.74-37.25
				c0.18-10.93,0.8-22.36,1.71-33.23c0.86-10.32,8.02-19.08,14.5-25.12c10.19-9.48,18.4-22.09,28.41-31.85
				c5.96-5.83,12.64-6.76,19.86-7.63c12.26-1.47,21.02,5.15,31.91,11.49c5.67,3.29,11.2,6.59,16.68,10.36
				c4.68,3.22,10.62,5.1,14.86,9.05c4.64,4.32,15.09,13.73,17.43,20.6c2.57,7.56,0.36,18.9-4.29,24.43
				c-7.24,8.6-16.42,16.75-24.7,23.74c-18.26,15.43-40.15,24.77-60.23,36.25c-6.99,4-13.78,5.72-20.76,9.06
				c-7.68,3.69-18.29,1.97-22.38-7.25c-4.14-9.33-10.48-16.84-14.25-26.22c-2.19-5.43-4.96-9.59-7.54-14.73
				c-3.16-6.29-5.33-13.85-7.82-20.58c-3.89-10.52-10.19-23.2-8.27-35.38c0.84-5.35,4.36-16.07,6.72-20.88
				c2.48-5.05,6.68-8.57,9.34-13.43c6.23-11.38,8.7-24.95,15.68-35.86c7.83-12.23,16.42-20.91,26.05-30.52
				c4.26-4.26,7.38-9.74,12.29-13.42c10.66-7.97,22.68-11.72,34.81-14.52c15.07-3.48,28.51-6.52,43.8-5.1
				c8.27,0.77,19.72-1.03,27.67,2.49c2.3,1.02,4.4-0.54,4.76,3.85c0.16,1.99-3.28,5.74-4.2,7.04c-4.27,6.04-9.08,10.96-14.13,15.92
				c-4.95,4.85-9.94,9.8-14.79,14.79c-4.1,4.21-6.65,9.48-10.29,14.27c-4.92,6.49-8.13,13.04-12.05,20.38
				c-2.78,5.2-4.52,11.33-7.63,16.25c-6.59,10.46-16.34,18.45-23.85,27.84c-3.11,3.89-5.95,9.69-9.82,12.43
				c-4.55,3.21-9.69,0.9-14.76,1.15c-5.36,0.26-10.66,1.89-16.02,1.96c-4.17,0.05-8.15-0.77-12.31-0.51
				c-5.22,0.32-11.8,2.64-16.94,1.36c-4.32-1.08-7.41-5.43-11.62-7.04c-4.66-1.78-9.58-3-14.3-4.54c-5.15-1.7-8.25-2.1-12.97-5.22
				c-4.77-3.16-9.76-3.61-14.86-5.66c-6.48-2.6-12.1-7.61-18.53-10.32c-3.87-1.63-7.66-1.8-11.58-3.05
				c-4.17-1.32-7.65-3.89-11.56-6.03c-9.9-5.45-22.98-10.3-33.85-7.79c-10.08,2.33-19.56,6.1-29.04,10.42
				c-10.95,5-22.62,7.74-33.52,13.23c-12.98,6.54-28.36,9.41-42.31,8.91c-7.17-0.25-12.32-0.14-18.07-5.67
				c-3.87-3.73-9.25-7.02-10.14-13.4c-1.37-9.83,8.14-17.68,14.77-19.92c16.2-5.46,37.6,8.79,51.29,18.71
				c7.92,5.74,15.97,9.25,24.21,14.26c14.37,8.74,27.54,20.19,41.87,28.94c16.51,10.09,33.45,13.7,51.48,9.82
				c12.92-2.8,28.59-6.56,39.89-15.49c9.75-7.7,9.16-18.29,5.23-30.01c-7.98-23.82-11.89-49.52-22.36-72.14
				c-5.36-11.59-10.55-23.32-17.39-33.61c-6.94-10.44-15.15-18.94-23.59-27.42c-5.16-5.17-11.3-6.72-17.24-10.14
				c-4.74-2.72-9.55-5.66-13.98-9.11c-8.93-6.95-15.61-15.85-21.49-26.65c-4.37-8.03-11.01-17.01-12.03-26.85
				c-1.28-12.38,6.33-24.98,12.06-34.06c5.37-8.51,11-11.04,19.41-14.16c6.36-2.35,13.34-5.68,20.02-5.99
				c4.65-0.22,9.93,1.56,14.43,1.99c7.06,0.68,13.96,0.51,20.98,2.24c8.13,2.02,17.98,5.76,26.22,3.23
				c3.83-1.18,7.46-4.38,11.22-5.77c4.05-1.5,8.83-1.77,13.01-2.25c9.81-1.13,18.36-4.67,22.47,8.67
				c5.56,18.05-4.05,36.84-11.71,51.5c-8.14,15.59-13.72,33.26-26.24,44.07c-8.1,6.99-16.06,14.25-23.16,22.87
				c-9.98,12.12-20.35,20.76-34.62,14.57c-16.91-7.33-28.94-20.45-42.71-33.49c-8.98-8.52-15.33-24.67-17.45-38.4
				c-1.11-7.19-2.2-16.37-1.09-23.78c1.52-10.16,5.34-18.98,6.44-29.54c1.45-14.03,0.43-29.62-3.45-43.08
				c-1.39-4.82-3.94-9.09-5.49-13.8c-3.48-10.55-3.67-29.62,0.35-40.12c4.45-11.64,11.83-24.1,19.8-32.1
				c11.24-11.3,21.91-24.43,33.92-34.37c21.81-18.07,44.68-28.15,71.13-27.89c5.1,0.05,15.86-3.99,20.3-0.4
				c4.27,3.44-0.29,7.22-2.4,12.31c-4.67,11.22-9.28,23.2-11.92,35.39c-2.43,11.2-3.65,22.75-6.1,34
				c-6.49,29.71-15.7,60.3-35.87,79.96c-9.15,8.91-20.21,15.91-30.7,22.05c-11.46,6.72-21.68,10.88-33.74,5.06
				c-9.62-4.64-16.95-13.84-25.74-20.34c-8.82-6.52-16.95-9.15-26.8-11.93c-16.37-4.63-32.33-2.86-48.91-0.94
				c-8.35,0.97-16.74,5.22-25.02,5.6c-9.02,0.4-18.32-2.5-26.94-5.55c-23.54-8.29-37.8-36.59-57.95-51.88
				c-7.9-5.99-16.23-10.13-24.88-14.15c-8.05-3.75-15.55-7.55-24.16-4.31c-3.66,1.37-7.85,3.58-9.29,8.37
				c-3,9.97,6.19,12.13,12.32,13.41c27.99,5.81,51.03-25.22,73.84-39.96c16.98-10.98,33.62-17.77,52.75-11.06
				c14.71,5.16,26.68,22.94,39.08,33.23c14.29,11.86,25.27,27.16,38.14,40.97c10.21,10.96,21.03,23.57,33.32,30.62
				c3.81-5.27-5.82-14.63-8.22-18.32c-8.28-12.79-15.35-26.94-21.76-41.27c-9.19-20.54-14.4-43.91-22.34-65.37
				c-2.64-7.13-6.21-14.43-8.32-21.79c-2.52-8.78,2.97-12.68,9.14-16.42c5.71-3.47,10.38-7.01,15.81-11.1
				c10.86-8.2,25.46-12.08,37.64-15.6c8.85-2.55,18.19-3.16,26.62-7.86c9.64-5.39,18.18-21.85,24.58-31.99
				c7.08-11.22,13.67-23.27,20.3-34.96c3.98-7.02,8.41-13.9,10.89-22.01c3.17-10.35,6.47-22.42,0.12-32.01
				c-6.11-9.24-15.16-5.03-22.95-2.41c-4.48,1.5-9.6,2.44-13.7,5.36c-7.73,5.51-11.28,16.68-16.76,24.87
				c-14.52,21.71-31.35,40.33-45.05,63.04c-12.28,20.34-20.1,45.71-35.18,63c-4.26,4.89-4.72,8.22-10.08,2.79
				c-8.29-8.42-10.41-19.92-16.39-30.18c-15.8-27.1-50.96-17.01-73.82-14.82c-20.21,1.94-39.22-1.02-59.25-3.23
				c-22.59-2.51-46.22-3.99-68.9-2.39c-6.4,0.45-11.95,1.14-16.81,6.93c-2.97,3.54-6.5,10.36-5.32,15.83
				c1.55,7.19,12.28,10.37,16.97,12.31c8.78,3.61,18.15,3.58,27.14,5.78c16.8,4.12,31.56,13.66,47.58,20.36
				c19.84,8.31,42.23,1.71,62.34-1.96c7.56-1.37,15.13-2.87,22.72-3.94c6.09-0.85,16.4-0.33,22.73-3.78
				c6.98-3.79,10.77-18.07,14.06-25.81c4.62-10.87,11.22-20.87,13.63-32.87c2.64-13.2-3.21-23.77-7.57-35.55
				c-7.48-20.24-8.98-32.41-3.91-54.52c5.16-22.47,8.44-46.28,20.01-65.29c7.65-12.57,18.34-33.8,32.07-34.68
				c13.89-0.89,15.81,11.2,17.98,25.09c3.13,20.08,4.95,34.79-0.26,55.05c-7.85,30.54-25.11,53.94-37.08,81.82
				c-5.32,12.38-10.09,24.65-17.43,35.47"/>
		</g>
		<g>
			<defs>
				<rect id="SVGID_15_" x="4.16" y="162" width="5999" height="1334.55"/>
			</defs>
			<clipPath id="SVGID_16_">
				<use xlink:href="#SVGID_15_"  style="overflow:visible;"/>
			</clipPath>
			<path class="st7" d="M4194.9,1782.28c2.18-8.49,5.23-16.16,7.8-24.25c1.02-3.23,1.05-6.69,1.69-10.03
				c1.06-5.51,4.2-6.6,5.96-11.65c4.63-13.3,4.41-31.04,7.02-45.2c2.32-12.58,12.91-19.13,18.89-29.07
				c5.28-8.78,11.14-17.63,16.98-25.82c5.55-7.79,15.48-9.77,23.59-10.02c12.75-0.4,25.34-4.74,38.07-5.51
				c7.59-0.46,13.46,3.59,19.74,8.07c10.67,7.61,14.69,19.31,20.59,32.3c3.07,6.76,6.02,13.41,8.72,20.43
				c2.3,5.99,6.26,11.79,7.85,18.05c1.75,6.85,5.84,22.04,4.52,29.3c-1.45,8-8.57,15.65-14.95,16.8c-9.93,1.8-21.22,1.83-31.24,1.57
				c-22.1-0.57-44.31-8.69-66.04-13.79c-7.56-1.77-13.9-5.25-21.15-7.54c-7.98-2.53-15.81-11.55-14.82-21.99
				c1-10.57-0.63-21.24,0.7-31.59c0.77-5.99,0.47-11.38,0.77-17.42c0.38-7.39,2.16-15.12,3.29-22.37
				c1.77-11.36,2.59-26.22,9.87-34.75c3.2-3.75,11.09-9.95,15.27-12.17c4.39-2.33,9.45-2.17,13.9-4.22
				c10.4-4.78,18.79-14.05,29.59-17.91c12.11-4.33,23.17-5.21,35.52-6.12c5.47-0.4,10.58-2.62,16.3-2.09
				c12.42,1.18,23.96,6.77,35.15,13.21c13.9,8.01,26.27,15.18,38.05,27.33c6.37,6.57,16.53,13.35,21.36,21.91
				c1.4,2.48,3.84,2.71,2.06,6.56c-0.8,1.73-5.37,2.31-6.72,2.71c-6.32,1.84-12.53,2.39-18.97,2.8c-6.31,0.4-12.69,0.84-18.98,1.41
				c-5.32,0.48-9.86,2.93-15.08,4.22c-7.04,1.75-12.73,4.77-19.37,7.92c-4.7,2.23-8.99,5.97-13.83,7.75
				c-10.27,3.78-21.95,3.28-32.48,5.52c-4.35,0.93-9.39,3.61-13.83,3.06c-5.21-0.66-8.31-6.23-12.56-9.67
				c-4.49-3.64-9.57-6.13-13.96-9.93c-3.42-2.96-6.27-6.49-9.78-9.27c-4.41-3.49-10.84-6.34-14.43-11.08
				c-3.01-3.99-3.48-9.76-6.16-14.09c-2.96-4.8-6.4-9.33-9.51-13.99c-3.4-5.08-5.73-7.65-8.11-13.58c-2.4-5.99-6.25-9.95-9.44-15.29
				c-4.06-6.77-6.27-14.89-10.24-21.73c-2.39-4.11-5.39-6.97-8-10.81c-2.77-4.07-4.41-8.67-6.58-13.22
				c-5.51-11.55-13.88-24.91-23.9-30.68c-9.3-5.35-18.79-9.1-28.53-12.39c-11.26-3.8-22.05-9.97-33.5-13.33
				c-13.63-4.01-27.5-12.74-38.63-23.18c-5.72-5.36-9.96-8.96-12.05-17.6c-1.41-5.82-4.24-12.37-1.97-18.2
				c3.49-8.99,14.92-8.54,21.37-5.6c15.75,7.21,26.48,34.18,32.98,52.11c3.76,10.37,8.66,19,13.02,29.02
				c7.59,17.44,12.95,36.24,20.51,53.67c8.71,20.08,20.8,35.21,37.31,45c11.83,7.02,26.35,15.21,39.74,16.07
				c11.55,0.74,16.03-8.29,18.34-20.67c4.68-25.13,13.55-48.86,15.64-74.8c1.07-13.28,2.36-26.58,1.61-39.86
				c-0.76-13.48-3.44-26.31-6.34-39.29c-1.77-7.92-6.04-13.59-9.27-20.65c-2.58-5.62-5.12-11.48-7.11-17.47
				c-4.01-12.07-5.27-24.12-4.99-37.15c0.21-9.68-0.99-21.76,2.8-30.52c4.77-11.01,16.88-15.78,25.79-19.05
				c8.36-3.07,14.13-1.08,22.44,2.43c6.29,2.66,13.53,4.96,19.11,9.51c3.89,3.17,7.35,8.41,10.81,12
				c5.43,5.63,11.13,10.45,16.03,16.91c5.67,7.49,11.94,17.62,19.83,21.48c3.67,1.8,8.12,1.8,11.84,3.38c4,1.7,8.02,4.9,11.64,7.53
				c8.51,6.14,17.13,9.41,14.22,23.21c-3.94,18.69-20.58,27.07-33.7,33.5c-13.94,6.83-26.77,17.22-42.04,17.02
				c-9.87-0.14-19.76,0.05-29.58,1.97c-13.8,2.69-26.31,2.27-35.02-13.02c-10.33-18.12-13.96-37.45-19.05-57.98
				c-3.32-13.4-0.91-31.11,3.81-43.81c2.47-6.65,5.89-14.91,10.27-20.14c6.01-7.18,13.25-11.6,19.1-19.42
				c7.77-10.37,14.25-23.81,17.4-37.55c1.13-4.93,1.06-10.23,2-15.18c2.11-11.09,10.91-26.75,19.1-32.41
				c9.08-6.26,20.94-11.12,31.18-11.9c14.45-1.11,29.29-4.13,43.74-3.59c26.23,0.98,49.58,9.2,70.99,28.44
				c4.13,3.71,14.78,8.16,16.72,14.27c1.86,5.88-3.62,5.67-7.73,8.29c-9.06,5.78-18.44,12.22-26.31,20.24
				c-7.23,7.37-13.64,15.9-20.91,23.29c-19.22,19.52-41.07,37.8-66.71,39.31c-11.63,0.68-23.92-1.58-35.34-4.12
				c-12.48-2.76-22.76-6.73-29.84-20.14c-5.65-10.7-7.3-23.45-11.41-35.06c-4.12-11.65-9.5-19.63-16.22-28.99
				c-11.15-15.54-24.98-25.58-39.37-35.94c-7.25-5.22-16.08-7.77-22.99-13.43c-7.53-6.17-13.74-15.21-19.33-23.88
				c-15.27-23.67-13.6-56.97-22.83-83.9c-3.62-10.56-8.46-19.91-13.61-29.41c-4.79-8.84-9.11-17.33-17.65-20.88
				c-3.62-1.51-8.07-2.74-11.49,0.14c-7.12,5.97-0.66,14.32,3.74,19.77c20.06,24.85,53.37,16.16,78.86,20.55
				c18.97,3.27,35.7,9.71,48.13,28.92c9.55,14.78,10.95,37.86,16.22,55.14c6.07,19.93,7.83,40.28,11.83,60.77
				c3.17,16.27,6.07,34.3,12.76,48.88c5.57-1.56,2.12-16.09,1.91-20.82c-0.75-16.37,0.15-32.97,1.65-49.25
				c2.15-23.32,8.88-46.09,12.47-69.28c1.19-7.7,1.72-16.21,3.44-23.72c2.06-8.96,8.36-8.18,15.14-6.8
				c6.27,1.29,11.74,1.76,18.08,2.33c12.69,1.14,26.39,8.47,37.96,14.37c8.4,4.28,16.29,10.51,25.36,12.75
				c10.37,2.55,25.05-4.72,35.01-8.37c11.03-4.04,22.05-9.12,32.92-13.87c6.53-2.85,13.36-5.27,19.2-10.09
				c7.44-6.15,15.78-13.61,15.12-25.97c-0.64-11.92-9.99-14.99-17.55-18.47c-4.35-1.99-8.95-4.91-13.67-5.48
				c-8.87-1.08-17,5.46-25.31,8.2c-22.01,7.24-44.44,10.29-66.25,18.92c-19.54,7.72-37.81,22.75-58.19,26
				c-5.76,0.92-7.7,3.31-9.51-4.99c-2.8-12.81,0.87-23.7,0.81-36.36c-0.15-33.43-33.51-50.49-53.14-65.13
				c-17.36-12.95-31.45-29.02-46.72-45.24c-17.21-18.29-35.75-36.48-54.96-51.49c-5.42-4.23-10.27-7.66-16.94-6.44
				c-4.08,0.76-10.15,3.76-11.76,9.06c-2.11,6.97,5.13,17.28,8.04,22.22c5.45,9.25,13.1,15.97,19.38,24.22
				c11.75,15.44,19.29,33.8,29.18,50.78c12.25,21.03,33.57,31.75,51.67,43.23c6.8,4.31,13.67,8.54,20.35,13.14
				c5.36,3.68,13.5,11.53,20.27,13.27c7.46,1.93,17.25-6.97,23.55-10.91c8.86-5.53,18.93-8.93,26.51-16.96
				c8.34-8.84,8.54-21.66,10.52-34.38c3.4-21.86,7.9-32.84,22.4-47.19c14.75-14.58,28.58-31.59,46.92-38.76
				c12.12-4.73,30.79-14.34,42.37-5.17c11.73,9.26,7.62,20.49,2.86,33.36c-6.87,18.61-12.29,31.88-26.04,44.63
				c-20.72,19.21-45.75,25.86-68.57,39.94c-10.14,6.25-19.77,12.81-30.82,16.34"/>
		</g>
		<g>
			<defs>
				<rect id="SVGID_17_" x="4.16" y="162" width="5999" height="1334.55"/>
			</defs>
			<clipPath id="SVGID_18_">
				<use xlink:href="#SVGID_17_"  style="overflow:visible;"/>
			</clipPath>
			<path class="st8" d="M3108.27,3008.05c-1.52-8.7-3.97-16.69-5.91-25.06c-0.77-3.33-0.53-6.77-0.92-10.19
				c-0.64-5.61-3.68-7.06-5.05-12.29c-3.6-13.78-2.02-31.42-3.54-45.82c-1.35-12.79-11.39-20.55-16.58-31.15
				c-4.58-9.35-9.75-18.85-14.93-27.69c-4.93-8.41-14.66-11.54-22.72-12.73c-12.66-1.88-24.86-7.69-37.48-9.93
				c-7.52-1.34-13.68,2.01-20.27,5.73c-11.2,6.34-16.1,17.51-22.96,29.75c-3.57,6.36-7.02,12.64-10.23,19.31
				c-2.74,5.69-7.13,11.01-9.2,17.06c-2.26,6.61-7.5,21.26-6.74,28.63c0.84,8.13,7.34,16.58,13.6,18.48
				c9.75,2.96,20.99,4.31,30.98,5.21c22.05,2.01,44.77-3.48,66.79-6c7.67-0.88,14.24-3.6,21.63-5.04
				c8.14-1.58,16.62-9.64,16.43-20.15c-0.19-10.65,2.25-21.07,1.71-31.53c-0.31-6.05,0.4-11.38,0.56-17.43
				c0.19-7.4-1-15.3-1.57-22.66c-0.9-11.53-0.58-26.41-7.17-35.75c-2.9-4.11-10.28-11.2-14.27-13.9c-4.19-2.84-9.25-3.27-13.52-5.82
				c-9.99-5.98-17.64-16.19-28.09-21.29c-11.73-5.73-22.67-7.9-34.9-10.25c-5.42-1.04-10.33-3.85-16.07-3.99
				c-12.45-0.27-24.37,3.94-36,9.04c-14.45,6.35-27.31,12.05-39.96,22.77c-6.84,5.79-17.47,11.35-22.93,19.32
				c-1.58,2.3-4.03,2.25-2.56,6.29c0.67,1.82,5.17,2.93,6.49,3.48c6.15,2.57,12.29,3.85,18.67,5c6.25,1.13,12.57,2.31,18.79,3.63
				c5.26,1.1,9.59,4.07,14.69,5.97c6.88,2.55,12.31,6.24,18.68,10.15c4.51,2.77,8.5,6.99,13.18,9.33c9.94,4.96,21.61,5.83,31.91,9.3
				c4.26,1.44,9.07,4.7,13.53,4.67c5.23-0.05,8.75-5.22,13.24-8.16c4.75-3.09,9.99-4.99,14.66-8.25c3.63-2.54,6.74-5.73,10.45-8.08
				c4.65-2.96,11.28-5.04,15.21-9.33c3.3-3.61,4.21-9.3,7.21-13.31c3.31-4.43,7.08-8.54,10.53-12.81c3.77-4.65,6.29-6.95,9.1-12.57
				c2.84-5.69,6.98-9.19,10.57-14.11c4.56-6.26,7.38-14.09,11.86-20.44c2.69-3.81,5.9-6.31,8.79-9.82
				c3.07-3.74,5.05-8.12,7.56-12.39c6.37-10.86,15.72-23.18,26.14-27.74c9.67-4.23,19.4-6.86,29.35-9
				c11.5-2.48,22.71-7.34,34.36-9.36c13.88-2.4,28.35-9.46,40.22-18.55c6.1-4.67,10.6-7.76,13.34-16.12
				c1.84-5.62,5.17-11.81,3.35-17.89c-2.79-9.36-14.21-10.25-20.84-8.07c-16.23,5.32-28.97,30.94-36.81,48.02
				c-4.53,9.88-10.07,17.91-15.17,27.37c-8.89,16.48-15.65,34.56-24.51,51.03c-10.2,18.98-23.39,32.62-40.57,40.43
				c-12.31,5.61-27.39,12.06-40.79,11.35c-11.55-0.61-15.33-10.13-16.68-22.73c-2.74-25.56-9.76-50.24-9.86-76.3
				c-0.05-13.35-0.32-26.73,1.44-39.88c1.78-13.33,5.43-25.79,9.31-38.37c2.37-7.68,7.05-12.83,10.81-19.47
				c2.99-5.3,5.97-10.83,8.41-16.55c4.92-11.55,7.09-23.4,7.8-36.4c0.53-9.66,2.64-21.55-0.46-30.7
				c-3.91-11.51-15.6-17.69-24.22-21.99c-8.09-4.02-13.99-2.74-22.53-0.21c-6.46,1.91-13.85,3.35-19.75,7.23
				c-4.11,2.7-7.96,7.51-11.68,10.68c-5.83,4.98-11.88,9.1-17.24,14.95c-6.22,6.78-13.23,16.14-21.38,19.06
				c-3.79,1.36-8.23,0.84-12.05,1.98c-4.11,1.23-8.36,3.95-12.17,6.13c-8.94,5.11-17.77,7.37-15.93,21.44
				c2.5,19.06,18.43,29.36,30.99,37.29c13.35,8.43,25.34,20.28,40.55,21.85c9.84,1.03,19.67,2.36,29.29,5.41
				c13.54,4.3,26.02,5.32,35.86-8.88c11.67-16.84,16.76-35.65,23.39-55.49c4.33-12.94,3.28-30.86-0.45-44.06
				c-1.95-6.91-4.72-15.52-8.69-21.26c-5.43-7.85-12.31-13.1-17.53-21.57c-6.94-11.24-12.37-25.37-14.46-39.42
				c-0.75-5.04-0.28-10.31-0.84-15.35c-1.25-11.29-8.82-27.9-16.55-34.5c-8.56-7.3-20-13.51-30.13-15.5
				c-14.3-2.8-28.85-7.54-43.27-8.69c-26.19-2.09-50.06,3.37-72.84,20.01c-4.4,3.21-15.34,6.4-17.73,12.26
				c-2.3,5.63,3.17,6.07,7.06,9.16c8.58,6.81,17.42,14.32,24.65,23.24c6.63,8.18,12.37,17.42,19.04,25.63
				c17.64,21.68,38,42.44,63.42,46.93c11.53,2.04,23.93,1.21,35.49,0.04c12.64-1.29,23.17-4.04,31.25-16.56
				c6.44-9.99,9.06-22.49,14.03-33.56c4.99-11.12,10.96-18.43,18.36-26.96c12.29-14.16,26.82-22.54,41.94-31.17
				c7.62-4.35,16.6-5.86,23.91-10.68c7.97-5.25,14.84-13.53,21.07-21.52c17.01-21.78,17.89-55.13,29.13-80.85
				c4.41-10.09,9.94-18.83,15.8-27.68c5.45-8.24,10.4-16.18,19.16-18.73c3.72-1.08,8.24-1.78,11.43,1.47
				c6.63,6.77-0.44,14.34-5.23,19.25c-21.87,22.4-54.37,9.84-80.07,11.24c-19.14,1.04-36.29,5.48-50.12,23.16
				c-10.64,13.59-13.79,36.41-20.36,53c-7.57,19.13-10.87,39.18-16.42,59.11c-4.4,15.82-8.66,33.45-16.44,47.17
				c-5.43-2.2-0.89-16.28-0.31-20.96c1.99-16.21,2.37-32.84,2.12-49.22c-0.36-23.47-5.32-46.93-7.13-70.42
				c-0.6-7.81-0.47-16.34-1.62-24.02c-1.37-9.16-7.7-9.12-14.55-8.53c-6.34,0.54-11.82,0.38-18.18,0.2
				c-12.71-0.36-26.92,5.34-38.89,9.87c-8.69,3.28-17.02,8.57-26.22,9.72c-10.52,1.32-24.58-7.63-34.22-12.42
				c-10.67-5.31-21.25-11.66-31.72-17.65c-6.29-3.6-12.9-6.81-18.34-12.29c-6.94-6.99-14.67-15.39-13.07-27.62
				c1.55-11.79,11.09-13.75,18.88-16.33c4.48-1.49,9.29-3.85,14.03-3.86c8.91-0.02,16.51,7.43,24.57,11.12
				c21.36,9.78,43.45,15.44,64.51,26.58c18.86,9.98,35.9,27.07,55.95,32.68c5.66,1.58,7.41,4.18,9.85-3.85
				c3.77-12.43,0.94-23.7,1.96-36.29c2.7-33.25,37.21-46.34,57.88-58.63c18.27-10.86,33.53-25.22,49.96-39.57
				c18.53-16.19,38.38-32.14,58.65-44.83c5.72-3.58,10.8-6.43,17.35-4.43c4,1.23,9.82,4.94,11.02,10.4
				c1.57,7.18-6.43,16.6-9.7,21.18c-6.13,8.57-14.25,14.36-21.14,21.85c-12.87,13.99-21.78,31.4-32.93,47.14
				c-13.8,19.5-35.85,27.68-54.73,37c-7.1,3.5-14.26,6.91-21.26,10.7c-5.62,3.03-14.32,9.89-21.2,10.84
				c-7.57,1.05-16.64-8.95-22.62-13.61c-8.4-6.55-18.17-11.1-25.1-19.98c-7.63-9.78-6.85-22.56-7.85-35.46
				c-1.72-22.16-5.35-33.62-18.7-49.59c-13.57-16.24-26.04-34.8-43.75-44.07c-11.71-6.13-29.55-17.86-41.79-10.1
				c-12.38,7.85-9.15,19.5-5.4,32.88c5.42,19.32,9.8,33.18,22.52,47.48c19.16,21.55,43.57,31.09,65.21,47.77
				c9.61,7.42,18.71,15.07,29.44,19.87"/>
		</g>
		<g>
			<defs>
				<rect id="SVGID_19_" x="4.16" y="162" width="5999" height="1334.55"/>
			</defs>
			<clipPath id="SVGID_20_">
				<use xlink:href="#SVGID_19_"  style="overflow:visible;"/>
			</clipPath>
			<path class="st9" d="M3771.06,3280.06c0-30.53-1.48-61.68-0.13-92.16c0.6-13.51,6-26.33,7.41-39.79
				c1.42-13.56-1.72-28.02-0.32-41.6c0.67-6.43,3.3-12.01,3.88-18.57c0.64-7.25,0.17-13.53,1.54-20.79
				c2.93-15.49,8.74-31.56,8.98-47.35c0.58-37.28-0.08-74.68-0.08-111.96c0-35.41,0-70.8,0-106.21c0-16.49,1.15-33.71,0.16-50.14
				c-0.93-15.38-13.17-29.7-21.18-41.14c-20.18-28.81-61.42-49.9-91.8-41.98c-18.76,4.89-35.58,15.33-49.33,31.15
				c-6.2,7.13-14.22,9.92-20.59,16.55c-7.61,7.92-14.41,19.29-20.95,28.54c-6.75,9.53-10.82,18.24-13.53,30.32
				c-2.43,10.81-11.5,37.03-4.42,46.21c6.45,8.38,29.97-6.93,37.5-8.84c9.37-2.36,18.72-2.43,28.26-2.13
				c8.49,0.27,15.34,3.48,23.59,4.7c15.28,2.25,35.39,1.91,50.63-0.61c16.99-2.81,31.24-8.59,42.91-24.9
				c10.04-14.03,17.36-30.58,17.59-49.33c0.13-10.46,0.81-16.29-7.36-21.84c-5.8-3.95-12.88-4.42-19.27-4.57
				c-25.68-0.62-68.1-10.58-84.82,19.77c-23.26,42.22,49.88,32.79,65.92,32.96c18.2,0.19,23.89-3.11,34.58-20.74
				c10.49-17.28,25.74-30.31,43.35-32.04c10.66-1.05,20.93-2.74,31.22-6.49c6.61-2.4,12.57-6.09,19.51-6.8
				c18.2-1.84,33.81,8,51.35,6.66c49.5-3.75,68.07-53.38,94.01-97.17c4.74-8,12.46-20.58,21.28-16.53
				c6.38,2.92,9.45,12.71,10.94,20.2c3.97,19.94,1.62,43.09,1.61,63.56c0,14.92,1.41,30.57-0.01,45.36
				c-1.52,15.81-8.97,27.63-16.38,40.17c-7.83,13.26-13.29,25.76-25.92,32.34c-15.16,7.89-33.94,8.83-50.24,10.7
				c-24,2.76-50.95-7.33-72.59-19.42c-11.15-6.23-21.55-12.97-31.6-21.62c-5.84-5.03-16.89-10.94-17.89-20.45
				c10.47-10.77,28.66-1.68,39.95,1.54c15.52,4.42,34.68,10.98,50.34,11.79c18.11,0.93,37.81-6.8,53.66-16.77
				c13.84-8.7,36.25-20.12,37.31-43.64c-10.41-1.77-25.4,12.94-35.49,18.72c-11.43,6.54-22.6,12.38-34.7,16.71
				c-12.48,4.47-22.81,3.45-35.56,0.11c-11.49-3.01-23.62-6.6-34.68-10.94c-5.96-2.34-11.14-6.8-17.56-8.93
				c-5.64-1.86-11.23-4.31-16.4-7.68c-6.59-4.28-17.18-10.92-22.86-17.25c-7.02-7.8-7.74-20.4-10.6-30.71
				c-4.59-16.58-3.51-32.84-3.52-50.27c-0.01-23.51-2.12-48.54,0.8-71.69c1.49-11.8,2.62-25.54,6.15-36.76
				c1.73-5.51,5.21-10.57,6.54-16.18c1.98-8.34,1.8-15.54,4.23-24.12c4.26-14.98,2.55-28.99,10.57-42.14
				c5.26-8.63,12.75-18.1,20.48-23.05c7.38-4.73,14.85-4.8,22.16-10.44c10.02-7.73,18.77-14.88,29.33-20.95
				c9.13-5.24,12.71-15.31,20.96-21.38c11.43-8.41,25.21,0.97,35.09,9.97c10.08,9.19,16.24,23.56,24.43,35.04
				c5.06,7.09,9.37,12.55,16.17,17.21c6.03,4.13,11.49,6.15,15.32,13.59c5.75,11.19,5.91,28.47-1.38,38.17
				c-11.9,15.82-32.38,3.6-47.21,4.43c-16.79,0.94-28.31,15.55-43.34,23.15c-13.1,6.62-32.17,5.73-46.31,2.91
				c-19.05-3.79-31.39-11.91-34.66-37.96c-1.8-14.35,1.65-25.58,7.17-37.89c6.28-13.99,9.57-25.13,7.73-41.31
				c-2.51-22.02-12.53-11.39-18.86,3.68c-7.25,17.22-14.93,31.4-27.08,44.37c-13.84,14.78-32.02,17.83-49.19,23.98
				c-19.67,7.04-39.17,10.68-59.71,8.24c-24.28-2.88-33.13-21.7-38.73-48.08c-3.79-17.84-6.61-30.37-14.75-46.92
				c-7.08-14.39-11.93-24.69-15.67-41.79c-1.94-8.86-7.49-34.43-6.45-45.69c2.1-22.87,28.16-26.29,41.97-26.1
				c22.99,0.33,39.66,13.98,60.75,22.72c17.95,7.43,37.15,6.8,54.85,13.62c11.38,4.38,21.23,15.66,29.5,25.7
				c13.63,16.55,7.37,27.01-9.33,34.97c-24.36,11.61-55.04,15.38-75.11,36.41c-1.67,27.81,51.93,3.58,61.58-1.57
				c9.38-5,19.33-15.08,26.18-24.81c13.97-19.84-13.85-40.33-25.99-49.14c-37.02-26.81-143.3-36.62-119.43-119.29
				c6.45-22.33,17.21-36.93,29.14-55.18c17.92-27.42,29.24-55.62,59.17-65.29c13.13-4.25,24.2-0.66,37.55,1.49
				c13.66,2.2,23.81-0.37,36.48-6.81c19.45-9.88,48.26-17.36,59.52,11.49c18.33,46.98-6.19,105.41-11.8,151.94
				c-2.33,19.29-5.18,38.3-8.02,57.48c-1,6.78-7.27,31.92-4.02,37.96c2.92,5.43,10.28,3.37,14.28-0.46
				c7.32-6.97,6.82-22.11,8.57-32.58c3.14-18.8,1.89-37.83,3.11-56.89c1.65-25.74,9.72-51.02,15.1-75.8
				c3.67-16.89,9.46-27.35,16.2-42.31c4.62-10.25,10.15-36.24,21.35-39.88c8.61-2.8,20.48,14.76,27.19,20.77
				c5.91,5.3,12.6,8.86,19.6,10.61c13.38,3.33,24.21,4.62,36.87,11.98c15.4,8.95,28.06,22.96,42.44,33.97
				c13.6,10.4,21.18,19.06,28.1,37.81c10.6,28.72,3.88,55.09-8.38,81.65c-17.27,37.41-49.16,47.28-81.08,50.11
				c-16.72,1.49-59.92,20.45-67.81-9.1c6.85-13.59,25.45-2.27,34.52,0.32c14.07,4.02,28.05,8.29,42.16,12.06
				c15.69,4.2,30.43,8.48,46.41,3.44c11.56-3.64,21.21-9.46,33.27-8.02c9.56,1.13,21.7,1.4,27.73,11.39
				c7.71,12.76,8.11,34.94,6.67,50.04c-1.55,16.29-5.16,38.3-15.58,49.62c-8.61,9.35-21.44,15.24-31.39,21.81
				c-9.72,6.43-18.59,14-30.07,12.84c-10.96-1.1-21.11-11.12-30.83-17.23c-11.11-6.98-22.81-10.71-33.95-17.27
				c-7.34-4.32-13.69-10.77-21.05-15.07c-6.68-3.9-15.81-5.25-20.97-12.5c-7.43-10.45-6.35-30.23-7.04-42.74
				c-0.83-15.12-5.27-26.86-12.36-39.28c-6-10.5-11.3-18.85-21.67-21.88c-8.44-2.45-17.12-3.02-25.6-5.66
				c-15.27-4.73-31.21-20.59-47.43-15.55c-24.37,7.58-20.98,34.73-5.15,50.31c10.42,10.25,22.72,16.09,34.43,23.61
				c7.42,4.77,14.3,9.58,21.46,1.72c14.56-15.99-5.9-30.74-18.5-28.49"/>
		</g>
		<g>
			<defs>
				<rect id="SVGID_21_" x="4.16" y="162" width="5999" height="1334.55"/>
			</defs>
			<clipPath id="SVGID_22_">
				<use xlink:href="#SVGID_21_"  style="overflow:visible;"/>
			</clipPath>
			<path class="st10" d="M4825.78,1545.24c0-20.97,1.02-42.36,0.09-63.31c-0.41-9.27-4.12-18.09-5.09-27.33
				c-0.97-9.32,1.18-19.25,0.22-28.57c-0.46-4.42-2.27-8.26-2.66-12.75c-0.44-4.99-0.12-9.3-1.06-14.27
				c-2.01-10.63-6-21.68-6.17-32.53c-0.4-25.61,0.06-51.3,0.06-76.92c0-24.31,0-48.64,0-72.95c0-11.33-0.79-23.16-0.11-34.45
				c0.64-10.56,9.05-20.4,14.55-28.26c13.86-19.8,42.2-34.28,63.07-28.85c12.89,3.35,24.44,10.54,33.89,21.4
				c4.26,4.9,9.77,6.81,14.15,11.38c5.23,5.45,9.9,13.25,14.4,19.61c4.64,6.55,7.43,12.53,9.29,20.82
				c1.67,7.43,7.9,25.44,3.04,31.75c-4.43,5.76-20.59-4.77-25.76-6.08c-6.43-1.63-12.86-1.67-19.42-1.46
				c-5.83,0.19-10.54,2.39-16.21,3.23c-10.5,1.55-24.31,1.31-34.79-0.42c-11.67-1.93-21.46-5.91-29.48-17.11
				c-6.89-9.63-11.92-21.01-12.09-33.88c-0.09-7.19-0.55-11.19,5.06-15c3.98-2.71,8.85-3.03,13.24-3.14
				c17.65-0.42,46.78-7.28,58.27,13.58c15.98,29.01-34.27,22.53-45.29,22.63c-12.5,0.12-16.41-2.14-23.76-14.25
				c-7.2-11.87-17.68-20.82-29.78-22.01c-7.33-0.72-14.38-1.88-21.45-4.46c-4.54-1.66-8.63-4.18-13.4-4.67
				c-12.5-1.26-23.23,5.5-35.28,4.58c-34-2.58-46.76-36.68-64.59-66.76c-3.26-5.5-8.56-14.14-14.62-11.35
				c-4.38,2.01-6.49,8.74-7.51,13.88c-2.72,13.7-1.11,29.6-1.11,43.66c0,10.25-0.97,21,0.01,31.16
				c1.04,10.87,6.16,18.99,11.25,27.59c5.38,9.11,9.13,17.7,17.81,22.21c10.41,5.42,23.31,6.07,34.51,7.35
				c16.49,1.89,35-5.04,49.87-13.35c7.66-4.28,14.81-8.91,21.71-14.84c4.01-3.45,11.6-7.51,12.29-14.05
				c-7.19-7.4-19.69-1.15-27.45,1.05c-10.66,3.03-23.83,7.54-34.59,8.1c-12.44,0.64-25.97-4.67-36.86-11.53
				c-9.51-5.98-24.91-13.82-25.64-29.98c7.15-1.21,17.45,8.89,24.38,12.85c7.85,4.49,15.52,8.51,23.84,11.48
				c8.58,3.07,15.67,2.38,24.43,0.07c7.89-2.07,16.22-4.53,23.82-7.51c4.1-1.61,7.65-4.67,12.06-6.13
				c3.87-1.28,7.71-2.96,11.26-5.27c4.53-2.95,11.8-7.5,15.7-11.85c4.82-5.36,5.32-14.01,7.28-21.11
				c3.16-11.39,2.41-22.57,2.42-34.54c0.01-16.14,1.45-33.35-0.55-49.25c-1.02-8.11-1.8-17.55-4.23-25.25
				c-1.19-3.78-3.58-7.27-4.5-11.12c-1.36-5.73-1.24-10.67-2.91-16.56c-2.92-10.29-1.75-19.92-7.26-28.96
				c-3.61-5.92-8.76-12.44-14.07-15.83c-5.07-3.26-10.2-3.31-15.22-7.17c-6.89-5.31-12.89-10.23-20.15-14.39
				c-6.27-3.6-8.73-10.52-14.4-14.68c-7.85-5.78-17.32,0.67-24.11,6.85c-6.93,6.31-11.15,16.18-16.78,24.07
				c-3.48,4.88-6.44,8.63-11.11,11.82c-4.14,2.83-7.9,4.22-10.52,9.33c-3.95,7.69-4.06,19.56,0.95,26.22
				c8.17,10.87,22.25,2.48,32.43,3.05c11.53,0.64,19.45,10.68,29.78,15.9c9,4.56,22.1,3.94,31.81,2.01
				c13.09-2.6,21.56-8.18,23.81-26.08c1.24-9.85-1.13-17.58-4.93-26.03c-4.32-9.61-6.58-17.26-5.31-28.39
				c1.73-15.13,8.61-7.82,12.96,2.53c4.98,11.84,10.26,21.57,18.6,30.49c9.51,10.16,22,12.24,33.8,16.48
				c13.51,4.84,26.91,7.34,41.02,5.66c16.68-1.98,22.76-14.91,26.61-33.04c2.6-12.26,4.54-20.86,10.13-32.24
				c4.86-9.89,8.2-16.96,10.76-28.71c1.33-6.09,5.14-23.65,4.43-31.4c-1.44-15.71-19.35-18.06-28.84-17.93
				c-15.8,0.22-27.24,9.61-41.73,15.61c-12.33,5.1-25.52,4.67-37.68,9.36c-7.81,3.01-14.59,10.76-20.27,17.65
				c-9.37,11.38-5.06,18.56,6.41,24.03c16.74,7.97,37.81,10.56,51.6,25.02c1.15,19.1-35.67,2.46-42.31-1.08
				c-6.45-3.44-13.28-10.36-17.99-17.03c-9.6-13.63,9.52-27.71,17.86-33.76c25.43-18.42,98.45-25.16,82.05-81.95
				c-4.43-15.34-11.83-25.37-20.02-37.91c-12.31-18.84-20.09-38.2-40.65-44.86c-9.02-2.92-16.62-0.46-25.79,1.03
				c-9.38,1.51-16.36-0.25-25.06-4.68c-13.36-6.78-33.15-11.92-40.89,7.89c-12.59,32.27,4.25,72.42,8.1,104.37
				c1.6,13.26,3.56,26.32,5.51,39.49c0.69,4.65,5,21.92,2.76,26.08c-2.01,3.73-7.06,2.32-9.81-0.31
				c-5.03-4.79-4.69-15.19-5.89-22.38c-2.15-12.92-1.3-25.99-2.14-39.08c-1.13-17.68-6.68-35.05-10.37-52.08
				c-2.52-11.6-6.5-18.78-11.13-29.07c-3.17-7.04-6.98-24.9-14.67-27.4c-5.92-1.92-14.07,10.14-18.68,14.27
				c-4.06,3.64-8.65,6.09-13.47,7.29c-9.19,2.29-16.63,3.17-25.33,8.23c-10.58,6.15-19.27,15.78-29.16,23.34
				c-9.34,7.14-14.55,13.1-19.3,25.97c-7.28,19.73-2.67,37.85,5.75,56.09c11.86,25.7,33.77,32.48,55.7,34.43
				c11.49,1.02,41.17,14.05,46.59-6.25c-4.71-9.33-17.48-1.56-23.72,0.22c-9.67,2.76-19.27,5.69-28.97,8.28
				c-10.78,2.88-20.91,5.82-31.88,2.36c-7.94-2.5-14.57-6.5-22.85-5.51c-6.57,0.78-14.91,0.97-19.05,7.82
				c-5.29,8.77-5.57,24-4.58,34.38c1.07,11.19,3.55,26.32,10.71,34.08c5.92,6.43,14.73,10.47,21.56,14.98
				c6.68,4.42,12.77,9.62,20.66,8.83c7.53-0.76,14.5-7.64,21.18-11.84c7.63-4.8,15.67-7.35,23.32-11.86
				c5.04-2.97,9.4-7.4,14.46-10.35c4.59-2.67,10.86-3.6,14.4-8.59c5.11-7.18,4.36-20.76,4.84-29.35
				c0.57-10.39,3.62-18.46,8.49-26.99c4.12-7.21,7.76-12.95,14.89-15.03c5.8-1.68,11.76-2.08,17.59-3.89
				c10.49-3.26,21.44-14.14,32.58-10.68c16.74,5.2,14.41,23.86,3.54,34.56c-7.16,7.04-15.61,11.06-23.65,16.22
				c-5.1,3.27-9.83,6.59-14.74,1.18c-10-10.98,4.06-21.12,12.71-19.57"/>
		</g>
		<g>
			<defs>
				<rect id="SVGID_23_" x="4.16" y="162" width="5999" height="1334.55"/>
			</defs>
			<clipPath id="SVGID_24_">
				<use xlink:href="#SVGID_23_"  style="overflow:visible;"/>
			</clipPath>
			<path class="st11" d="M5311.97,1288.09c2.21-8.47,3.32-16.91,5.03-25.35c0.68-3.37,2.28-6.19,3.33-9.38
				c1.72-5.25-0.33-8.39,0.61-13.78c2.47-14.15,10.97-28.44,15.49-41.84c4.01-11.9-1.54-24.86-1.74-37.25
				c-0.18-10.93-0.8-22.36-1.71-33.23c-0.86-10.32-8.02-19.08-14.5-25.12c-10.19-9.48-18.4-22.09-28.41-31.85
				c-5.96-5.83-12.65-6.76-19.86-7.63c-12.26-1.47-21.02,5.15-31.91,11.49c-5.67,3.29-11.2,6.59-16.68,10.36
				c-4.68,3.22-10.62,5.1-14.86,9.05c-4.63,4.32-15.09,13.73-17.43,20.6c-2.57,7.56-0.36,18.9,4.29,24.43
				c7.24,8.6,16.42,16.75,24.7,23.74c18.26,15.43,40.15,24.77,60.23,36.25c6.99,4,13.78,5.72,20.76,9.06
				c7.68,3.69,18.29,1.97,22.38-7.25c4.14-9.33,10.48-16.84,14.25-26.22c2.19-5.43,4.96-9.59,7.54-14.73
				c3.16-6.29,5.33-13.85,7.82-20.58c3.89-10.52,10.19-23.2,8.27-35.38c-0.84-5.35-4.36-16.07-6.72-20.88
				c-2.48-5.05-6.68-8.57-9.34-13.43c-6.23-11.38-8.7-24.95-15.68-35.86c-7.83-12.23-16.42-20.91-26.05-30.52
				c-4.27-4.26-7.38-9.74-12.29-13.42c-10.66-7.97-22.68-11.72-34.81-14.52c-15.07-3.48-28.51-6.52-43.8-5.1
				c-8.27,0.77-19.72-1.03-27.67,2.49c-2.3,1.02-4.4-0.54-4.76,3.85c-0.16,1.99,3.28,5.74,4.2,7.04
				c4.27,6.04,9.08,10.96,14.13,15.92c4.95,4.85,9.94,9.8,14.79,14.79c4.1,4.21,6.65,9.48,10.29,14.27
				c4.92,6.49,8.13,13.04,12.05,20.38c2.78,5.2,4.52,11.33,7.63,16.25c6.59,10.46,16.34,18.45,23.85,27.84
				c3.11,3.89,5.95,9.69,9.82,12.43c4.55,3.21,9.69,0.9,14.76,1.15c5.36,0.26,10.67,1.89,16.02,1.96c4.17,0.05,8.15-0.77,12.31-0.51
				c5.22,0.32,11.8,2.64,16.94,1.36c4.32-1.08,7.41-5.43,11.62-7.04c4.66-1.78,9.58-3,14.3-4.54c5.15-1.7,8.25-2.1,12.97-5.22
				c4.77-3.16,9.76-3.61,14.86-5.66c6.48-2.6,12.1-7.61,18.53-10.32c3.87-1.63,7.66-1.8,11.58-3.05c4.17-1.32,7.65-3.89,11.56-6.03
				c9.9-5.45,22.98-10.3,33.85-7.79c10.08,2.33,19.56,6.1,29.04,10.42c10.95,5,22.62,7.74,33.52,13.23
				c12.98,6.54,28.36,9.41,42.31,8.91c7.17-0.25,12.32-0.14,18.07-5.67c3.87-3.73,9.25-7.02,10.14-13.4
				c1.37-9.83-8.14-17.68-14.77-19.92c-16.2-5.46-37.6,8.79-51.29,18.71c-7.92,5.74-15.97,9.25-24.21,14.26
				c-14.37,8.74-27.54,20.19-41.87,28.94c-16.51,10.09-33.45,13.7-51.48,9.82c-12.92-2.8-28.59-6.56-39.89-15.49
				c-9.75-7.7-9.16-18.29-5.23-30.01c7.98-23.82,11.89-49.52,22.36-72.14c5.36-11.59,10.55-23.32,17.39-33.61
				c6.94-10.44,15.15-18.94,23.6-27.42c5.15-5.17,11.3-6.72,17.24-10.14c4.74-2.72,9.55-5.66,13.98-9.11
				c8.93-6.95,15.61-15.85,21.49-26.65c4.37-8.03,11.01-17.01,12.03-26.85c1.28-12.38-6.33-24.98-12.06-34.06
				c-5.37-8.5-11-11.04-19.41-14.16c-6.36-2.35-13.34-5.68-20.02-5.99c-4.65-0.22-9.93,1.56-14.43,1.99
				c-7.06,0.68-13.96,0.51-20.98,2.24c-8.13,2.02-17.98,5.76-26.22,3.23c-3.83-1.18-7.46-4.38-11.22-5.77
				c-4.05-1.5-8.83-1.77-13.01-2.25c-9.81-1.13-18.36-4.67-22.47,8.67c-5.56,18.05,4.05,36.84,11.71,51.5
				c8.14,15.59,13.72,33.26,26.24,44.07c8.1,6.99,16.06,14.25,23.15,22.87c9.98,12.12,20.35,20.76,34.62,14.57
				c16.91-7.33,28.94-20.45,42.71-33.49c8.98-8.52,15.33-24.67,17.45-38.4c1.11-7.19,2.2-16.37,1.09-23.78
				c-1.52-10.16-5.34-18.98-6.44-29.54c-1.45-14.03-0.43-29.63,3.45-43.08c1.39-4.82,3.94-9.09,5.49-13.8
				c3.48-10.55,3.67-29.63-0.35-40.12c-4.45-11.64-11.83-24.1-19.8-32.1c-11.24-11.3-21.91-24.43-33.92-34.37
				c-21.81-18.07-44.68-28.15-71.13-27.89c-5.1,0.05-15.86-3.99-20.3-0.4c-4.27,3.44,0.29,7.22,2.4,12.31
				c4.67,11.22,9.28,23.2,11.92,35.39c2.43,11.2,3.65,22.75,6.1,34c6.49,29.71,15.7,60.3,35.87,79.96
				c9.15,8.91,20.21,15.91,30.7,22.05c11.46,6.72,21.68,10.88,33.74,5.06c9.62-4.64,16.95-13.84,25.74-20.34
				c8.82-6.52,16.95-9.15,26.8-11.93c16.37-4.63,32.33-2.86,48.91-0.94c8.35,0.97,16.74,5.22,25.02,5.6
				c9.02,0.4,18.32-2.5,26.94-5.55c23.54-8.29,37.8-36.59,57.95-51.88c7.9-5.99,16.23-10.13,24.88-14.15
				c8.05-3.75,15.55-7.55,24.16-4.31c3.66,1.37,7.85,3.58,9.29,8.37c3,9.97-6.19,12.13-12.32,13.41
				c-27.99,5.81-51.03-25.22-73.84-39.96c-16.98-10.98-33.62-17.77-52.75-11.06c-14.71,5.16-26.68,22.94-39.08,33.23
				c-14.29,11.86-25.27,27.16-38.14,40.97c-10.21,10.96-21.03,23.57-33.32,30.62c-3.81-5.27,5.82-14.63,8.22-18.32
				c8.28-12.79,15.35-26.94,21.76-41.27c9.19-20.54,14.4-43.91,22.34-65.37c2.64-7.13,6.21-14.43,8.32-21.79
				c2.52-8.78-2.97-12.68-9.14-16.42c-5.71-3.47-10.38-7.01-15.81-11.1c-10.86-8.2-25.46-12.08-37.64-15.6
				c-8.85-2.55-18.19-3.16-26.62-7.86c-9.64-5.39-18.18-21.85-24.58-31.99c-7.08-11.22-13.67-23.27-20.3-34.96
				c-3.98-7.02-8.41-13.9-10.89-22.01c-3.17-10.35-6.47-22.42-0.12-32.01c6.11-9.24,15.16-5.03,22.95-2.41
				c4.48,1.5,9.6,2.44,13.7,5.36c7.73,5.51,11.28,16.68,16.76,24.87c14.52,21.71,31.35,40.33,45.05,63.04
				c12.28,20.34,20.1,45.71,35.18,63c4.26,4.89,4.72,8.22,10.08,2.79c8.29-8.42,10.41-19.92,16.39-30.18
				c15.8-27.1,50.96-17.01,73.82-14.82c20.21,1.94,39.22-1.02,59.25-3.23c22.59-2.51,46.22-3.99,68.9-2.39
				c6.4,0.45,11.95,1.14,16.81,6.93c2.97,3.54,6.5,10.36,5.32,15.83c-1.55,7.19-12.28,10.37-16.97,12.31
				c-8.78,3.61-18.15,3.58-27.14,5.78c-16.8,4.12-31.56,13.65-47.58,20.36c-19.84,8.31-42.23,1.71-62.34-1.96
				c-7.56-1.37-15.13-2.87-22.72-3.94c-6.09-0.85-16.4-0.33-22.73-3.78c-6.98-3.79-10.77-18.07-14.06-25.81
				c-4.62-10.87-11.22-20.87-13.63-32.87c-2.64-13.2,3.21-23.77,7.57-35.56c7.48-20.24,8.98-32.41,3.91-54.52
				c-5.16-22.47-8.44-46.28-20.01-65.29c-7.65-12.57-18.34-33.8-32.07-34.68c-13.89-0.89-15.81,11.2-17.98,25.09
				c-3.13,20.08-4.95,34.79,0.26,55.05c7.85,30.54,25.11,53.94,37.08,81.82c5.32,12.38,10.09,24.65,17.43,35.47"/>
		</g>
		<g>
			<defs>
				<rect id="SVGID_25_" x="4.16" y="162" width="5999" height="1334.55"/>
			</defs>
			<clipPath id="SVGID_26_">
				<use xlink:href="#SVGID_25_"  style="overflow:visible;"/>
			</clipPath>
			<path class="st12" d="M5260.38,2044.87c1.52-8.7,3.97-16.69,5.91-25.06c0.77-3.33,0.53-6.77,0.92-10.19
				c0.64-5.61,3.68-7.06,5.05-12.29c3.6-13.78,2.02-31.42,3.54-45.82c1.35-12.79,11.39-20.55,16.58-31.15
				c4.58-9.35,9.75-18.85,14.93-27.69c4.93-8.41,14.66-11.54,22.72-12.73c12.66-1.88,24.86-7.69,37.48-9.93
				c7.52-1.34,13.68,2.01,20.27,5.73c11.2,6.34,16.1,17.51,22.96,29.75c3.57,6.36,7.02,12.64,10.23,19.31
				c2.74,5.69,7.13,11.01,9.2,17.06c2.26,6.61,7.5,21.26,6.74,28.63c-0.84,8.13-7.34,16.58-13.6,18.48
				c-9.75,2.96-20.99,4.31-30.98,5.21c-22.05,2.01-44.77-3.48-66.79-6c-7.67-0.88-14.24-3.6-21.63-5.04
				c-8.14-1.58-16.62-9.64-16.43-20.15c0.19-10.65-2.25-21.07-1.72-31.53c0.31-6.05-0.4-11.38-0.56-17.43
				c-0.19-7.4,1-15.3,1.57-22.66c0.9-11.53,0.58-26.41,7.17-35.75c2.9-4.1,10.28-11.2,14.27-13.9c4.19-2.84,9.25-3.27,13.52-5.82
				c9.99-5.98,17.64-16.19,28.09-21.29c11.73-5.73,22.67-7.9,34.9-10.25c5.42-1.04,10.33-3.85,16.07-3.99
				c12.45-0.27,24.37,3.94,36,9.04c14.45,6.35,27.31,12.05,39.96,22.77c6.84,5.79,17.47,11.35,22.93,19.32
				c1.58,2.3,4.03,2.25,2.56,6.29c-0.67,1.82-5.17,2.93-6.49,3.48c-6.15,2.57-12.29,3.85-18.67,5c-6.25,1.13-12.57,2.31-18.79,3.63
				c-5.26,1.1-9.6,4.07-14.69,5.97c-6.88,2.55-12.31,6.23-18.68,10.15c-4.51,2.77-8.5,6.99-13.18,9.33
				c-9.94,4.96-21.61,5.83-31.91,9.3c-4.26,1.44-9.07,4.7-13.53,4.67c-5.24-0.05-8.75-5.22-13.24-8.16
				c-4.75-3.09-9.99-4.99-14.66-8.25c-3.63-2.54-6.74-5.73-10.45-8.08c-4.65-2.96-11.28-5.04-15.21-9.33
				c-3.3-3.61-4.21-9.3-7.21-13.31c-3.31-4.43-7.08-8.54-10.53-12.81c-3.77-4.65-6.29-6.95-9.1-12.57
				c-2.84-5.69-6.98-9.19-10.57-14.11c-4.56-6.26-7.38-14.09-11.86-20.44c-2.69-3.81-5.9-6.31-8.79-9.82
				c-3.07-3.74-5.05-8.12-7.56-12.39c-6.37-10.86-15.72-23.18-26.14-27.74c-9.67-4.23-19.4-6.86-29.35-9
				c-11.5-2.48-22.71-7.34-34.36-9.36c-13.88-2.4-28.35-9.46-40.22-18.55c-6.1-4.67-10.6-7.76-13.34-16.12
				c-1.84-5.62-5.17-11.81-3.35-17.89c2.79-9.36,14.21-10.25,20.84-8.07c16.23,5.32,28.97,30.94,36.81,48.02
				c4.53,9.88,10.07,17.91,15.17,27.37c8.89,16.48,15.65,34.56,24.51,51.03c10.2,18.98,23.39,32.62,40.57,40.43
				c12.31,5.61,27.39,12.06,40.79,11.35c11.55-0.61,15.33-10.13,16.68-22.73c2.74-25.56,9.76-50.24,9.86-76.3
				c0.05-13.35,0.32-26.73-1.44-39.88c-1.78-13.33-5.43-25.79-9.31-38.37c-2.37-7.68-7.05-12.83-10.81-19.47
				c-2.99-5.3-5.97-10.83-8.41-16.55c-4.92-11.55-7.09-23.4-7.8-36.4c-0.53-9.66-2.64-21.55,0.46-30.7
				c3.91-11.51,15.6-17.69,24.22-21.99c8.09-4.02,13.99-2.74,22.53-0.21c6.46,1.91,13.85,3.35,19.75,7.23
				c4.11,2.7,7.96,7.51,11.68,10.68c5.83,4.98,11.88,9.1,17.24,14.95c6.22,6.78,13.23,16.14,21.38,19.07
				c3.79,1.36,8.23,0.84,12.05,1.98c4.11,1.23,8.36,3.95,12.17,6.13c8.94,5.11,17.77,7.37,15.93,21.44
				c-2.5,19.06-18.43,29.36-30.99,37.29c-13.35,8.43-25.34,20.28-40.55,21.85c-9.84,1.03-19.67,2.36-29.29,5.41
				c-13.54,4.3-26.02,5.32-35.86-8.88c-11.67-16.84-16.76-35.65-23.39-55.49c-4.33-12.94-3.28-30.86,0.45-44.06
				c1.95-6.91,4.72-15.52,8.69-21.26c5.43-7.85,12.31-13.1,17.53-21.57c6.94-11.24,12.37-25.37,14.46-39.42
				c0.75-5.04,0.28-10.31,0.84-15.35c1.25-11.29,8.82-27.9,16.55-34.5c8.56-7.3,20-13.51,30.13-15.5c14.3-2.8,28.85-7.54,43.27-8.69
				c26.19-2.09,50.06,3.37,72.84,20.01c4.4,3.21,15.34,6.4,17.73,12.26c2.3,5.63-3.17,6.07-7.06,9.16
				c-8.58,6.81-17.42,14.32-24.65,23.24c-6.63,8.18-12.37,17.42-19.04,25.63c-17.64,21.68-38,42.43-63.42,46.93
				c-11.53,2.04-23.93,1.21-35.49,0.04c-12.64-1.29-23.17-4.04-31.25-16.56c-6.44-9.99-9.06-22.49-14.03-33.56
				c-4.99-11.12-10.96-18.43-18.36-26.96c-12.29-14.16-26.82-22.54-41.94-31.17c-7.62-4.35-16.6-5.86-23.91-10.68
				c-7.97-5.25-14.84-13.53-21.07-21.52c-17.01-21.78-17.89-55.13-29.13-80.85c-4.41-10.09-9.94-18.83-15.8-27.68
				c-5.45-8.24-10.4-16.18-19.16-18.73c-3.72-1.08-8.24-1.78-11.43,1.47c-6.63,6.77,0.44,14.34,5.23,19.25
				c21.87,22.4,54.37,9.84,80.07,11.24c19.14,1.04,36.29,5.48,50.12,23.16c10.64,13.59,13.79,36.41,20.36,53
				c7.57,19.13,10.87,39.18,16.42,59.11c4.4,15.82,8.66,33.45,16.44,47.17c5.43-2.2,0.89-16.28,0.31-20.96
				c-1.99-16.21-2.37-32.84-2.12-49.22c0.36-23.47,5.32-46.93,7.13-70.42c0.6-7.81,0.47-16.34,1.62-24.02
				c1.37-9.16,7.7-9.12,14.55-8.53c6.34,0.54,11.82,0.38,18.18,0.2c12.71-0.36,26.92,5.34,38.89,9.87
				c8.69,3.28,17.02,8.57,26.22,9.72c10.52,1.32,24.58-7.63,34.22-12.43c10.67-5.31,21.25-11.66,31.72-17.65
				c6.29-3.6,12.9-6.81,18.34-12.29c6.94-6.99,14.67-15.39,13.07-27.62c-1.55-11.79-11.09-13.75-18.88-16.33
				c-4.48-1.49-9.29-3.85-14.03-3.86c-8.91-0.02-16.51,7.43-24.57,11.12c-21.36,9.78-43.46,15.44-64.51,26.58
				c-18.86,9.98-35.9,27.07-55.95,32.68c-5.66,1.58-7.41,4.18-9.85-3.85c-3.77-12.43-0.94-23.7-1.96-36.29
				c-2.7-33.25-37.21-46.34-57.88-58.63c-18.27-10.86-33.53-25.22-49.96-39.57c-18.53-16.19-38.38-32.14-58.65-44.83
				c-5.72-3.58-10.8-6.43-17.35-4.43c-4,1.23-9.82,4.94-11.02,10.4c-1.57,7.18,6.43,16.6,9.7,21.18
				c6.13,8.57,14.25,14.36,21.14,21.85c12.87,13.99,21.78,31.4,32.93,47.14c13.8,19.5,35.85,27.68,54.73,37
				c7.1,3.5,14.26,6.91,21.26,10.7c5.62,3.03,14.32,9.89,21.2,10.84c7.57,1.05,16.64-8.95,22.62-13.61
				c8.4-6.55,18.17-11.1,25.1-19.98c7.63-9.78,6.85-22.56,7.85-35.46c1.72-22.16,5.35-33.62,18.7-49.59
				c13.57-16.24,26.04-34.8,43.75-44.07c11.71-6.13,29.55-17.86,41.79-10.1c12.38,7.85,9.15,19.5,5.4,32.88
				c-5.42,19.32-9.8,33.18-22.52,47.48c-19.16,21.55-43.57,31.09-65.21,47.77c-9.61,7.42-18.71,15.07-29.44,19.87"/>
		</g>
		<g>
			<defs>
				<rect id="SVGID_27_" x="4.16" y="162" width="5999" height="1334.55"/>
			</defs>
			<clipPath id="SVGID_28_">
				<use xlink:href="#SVGID_27_"  style="overflow:visible;"/>
			</clipPath>
			<path class="st13" d="M5878.8,1808.34c2.18-8.49,5.23-16.16,7.8-24.25c1.02-3.23,1.05-6.69,1.69-10.03
				c1.06-5.51,4.21-6.6,5.97-11.65c4.63-13.3,4.41-31.04,7.02-45.2c2.32-12.58,12.91-19.13,18.89-29.07
				c5.28-8.78,11.14-17.63,16.98-25.82c5.55-7.79,15.48-9.77,23.59-10.02c12.75-0.4,25.34-4.74,38.07-5.51
				c7.59-0.46,13.46,3.59,19.74,8.07c10.67,7.61,14.69,19.31,20.59,32.3c3.07,6.76,6.02,13.41,8.72,20.43
				c2.3,5.99,6.26,11.79,7.85,18.05c1.75,6.85,5.84,22.04,4.52,29.3c-1.45,8-8.57,15.65-14.95,16.8c-9.93,1.8-21.22,1.83-31.24,1.57
				c-22.1-0.57-44.31-8.69-66.04-13.79c-7.56-1.77-13.9-5.25-21.15-7.54c-7.98-2.53-15.81-11.55-14.82-21.99
				c1-10.57-0.63-21.24,0.7-31.59c0.77-5.99,0.46-11.38,0.77-17.42c0.38-7.39,2.16-15.12,3.29-22.37
				c1.77-11.36,2.59-26.22,9.87-34.75c3.2-3.75,11.09-9.95,15.27-12.17c4.39-2.33,9.45-2.17,13.9-4.22
				c10.4-4.78,18.79-14.05,29.59-17.91c12.11-4.33,23.17-5.21,35.52-6.12c5.47-0.4,10.58-2.62,16.3-2.09
				c12.42,1.18,23.96,6.77,35.15,13.21c13.9,8.01,26.27,15.18,38.05,27.33c6.37,6.57,16.53,13.35,21.36,21.91
				c1.4,2.48,3.84,2.71,2.06,6.56c-0.8,1.73-5.37,2.31-6.72,2.71c-6.31,1.86-12.53,2.39-18.97,2.8c-6.31,0.4-12.69,0.84-18.98,1.41
				c-5.32,0.48-9.86,2.93-15.08,4.22c-7.05,1.75-12.73,4.77-19.37,7.92c-4.7,2.23-8.99,5.97-13.83,7.75
				c-10.27,3.78-21.95,3.28-32.48,5.52c-4.35,0.93-9.39,3.61-13.82,3.06c-5.21-0.66-8.31-6.23-12.56-9.67
				c-4.49-3.64-9.57-6.13-13.96-9.93c-3.42-2.96-6.27-6.49-9.78-9.27c-4.41-3.49-10.84-6.34-14.43-11.08
				c-3.01-3.99-3.48-9.76-6.16-14.09c-2.96-4.8-6.4-9.33-9.51-13.99c-3.4-5.08-5.73-7.65-8.11-13.58c-2.4-5.99-6.25-9.95-9.44-15.29
				c-4.06-6.77-6.27-14.89-10.24-21.73c-2.39-4.11-5.39-6.97-8-10.81c-2.77-4.07-4.41-8.67-6.58-13.22
				c-5.51-11.55-13.88-24.91-23.91-30.68c-9.3-5.35-18.79-9.1-28.53-12.39c-11.26-3.8-22.05-9.97-33.5-13.33
				c-13.64-4.01-27.5-12.74-38.63-23.18c-5.72-5.36-9.96-8.96-12.05-17.6c-1.41-5.82-4.24-12.37-1.97-18.2
				c3.49-8.99,14.92-8.54,21.37-5.6c15.75,7.21,26.48,34.18,32.98,52.11c3.76,10.37,8.66,19,13.02,29.02
				c7.59,17.44,12.95,36.24,20.51,53.67c8.71,20.08,20.8,35.21,37.31,45c11.83,7.02,26.35,15.21,39.74,16.07
				c11.55,0.74,16.03-8.29,18.34-20.67c4.68-25.13,13.55-48.86,15.64-74.8c1.07-13.28,2.36-26.58,1.61-39.86
				c-0.76-13.48-3.44-26.31-6.34-39.29c-1.77-7.92-6.04-13.59-9.27-20.65c-2.58-5.62-5.12-11.48-7.11-17.47
				c-4.01-12.07-5.27-24.12-4.99-37.15c0.21-9.68-0.99-21.76,2.8-30.52c4.77-11.01,16.88-15.78,25.79-19.05
				c8.36-3.07,14.13-1.08,22.44,2.43c6.29,2.66,13.53,4.96,19.11,9.51c3.89,3.17,7.35,8.41,10.81,12
				c5.43,5.63,11.13,10.45,16.03,16.91c5.67,7.49,11.94,17.62,19.83,21.48c3.67,1.8,8.12,1.8,11.84,3.38c4,1.7,8.02,4.9,11.64,7.53
				c8.51,6.14,17.13,9.41,14.22,23.21c-3.94,18.69-20.58,27.07-33.7,33.5c-13.94,6.83-26.77,17.22-42.04,17.02
				c-9.87-0.14-19.76,0.05-29.58,1.97c-13.81,2.69-26.31,2.27-35.02-13.02c-10.33-18.12-13.96-37.45-19.05-57.98
				c-3.32-13.4-0.91-31.11,3.81-43.81c2.47-6.65,5.89-14.91,10.27-20.14c6.01-7.18,13.25-11.6,19.1-19.42
				c7.77-10.37,14.25-23.81,17.4-37.55c1.13-4.93,1.06-10.23,2-15.18c2.11-11.09,10.91-26.75,19.1-32.41
				c9.08-6.26,20.94-11.12,31.18-11.9c14.45-1.11,29.29-4.14,43.74-3.59c26.23,0.98,49.58,9.2,70.99,28.44
				c4.13,3.71,14.78,8.16,16.72,14.27c1.86,5.88-3.62,5.67-7.73,8.29c-9.06,5.78-18.44,12.22-26.31,20.24
				c-7.23,7.37-13.64,15.9-20.91,23.29c-19.22,19.52-41.07,37.8-66.71,39.31c-11.63,0.68-23.92-1.58-35.34-4.12
				c-12.48-2.76-22.76-6.73-29.84-20.14c-5.65-10.7-7.3-23.45-11.41-35.06c-4.12-11.65-9.5-19.63-16.22-28.99
				c-11.15-15.54-24.98-25.58-39.37-35.94c-7.25-5.22-16.08-7.77-22.99-13.43c-7.53-6.17-13.74-15.21-19.33-23.88
				c-15.27-23.67-13.6-56.97-22.83-83.9c-3.62-10.56-8.46-19.91-13.61-29.41c-4.79-8.84-9.11-17.33-17.65-20.88
				c-3.62-1.51-8.07-2.74-11.49,0.14c-7.12,5.97-0.66,14.32,3.74,19.77c20.06,24.85,53.37,16.16,78.86,20.55
				c18.97,3.27,35.7,9.71,48.13,28.92c9.56,14.78,10.95,37.86,16.22,55.14c6.07,19.93,7.84,40.28,11.83,60.77
				c3.17,16.27,6.06,34.3,12.76,48.88c5.57-1.56,2.12-16.09,1.91-20.82c-0.75-16.37,0.15-32.97,1.65-49.25
				c2.15-23.32,8.88-46.09,12.47-69.28c1.19-7.7,1.72-16.21,3.44-23.72c2.06-8.96,8.36-8.18,15.14-6.8
				c6.27,1.29,11.74,1.76,18.08,2.33c12.68,1.14,26.39,8.47,37.96,14.37c8.4,4.28,16.29,10.51,25.36,12.75
				c10.37,2.55,25.05-4.72,35.01-8.37c11.03-4.04,22.05-9.12,32.92-13.87c6.53-2.85,13.36-5.27,19.2-10.09
				c7.44-6.15,15.78-13.61,15.12-25.97c-0.64-11.92-9.99-14.99-17.55-18.47c-4.35-1.99-8.95-4.91-13.67-5.48
				c-8.87-1.08-17,5.46-25.31,8.2c-22.01,7.24-44.44,10.29-66.25,18.92c-19.54,7.72-37.81,22.75-58.19,26
				c-5.76,0.92-7.7,3.31-9.51-4.99c-2.8-12.81,0.87-23.7,0.81-36.36c-0.15-33.43-33.51-50.49-53.14-65.13
				c-17.36-12.95-31.45-29.02-46.72-45.24c-17.21-18.29-35.76-36.48-54.96-51.49c-5.42-4.23-10.27-7.66-16.94-6.44
				c-4.08,0.76-10.15,3.76-11.76,9.06c-2.11,6.97,5.13,17.28,8.04,22.22c5.45,9.25,13.1,15.97,19.38,24.22
				c11.75,15.44,19.29,33.8,29.18,50.78c12.25,21.03,33.57,31.75,51.67,43.23c6.8,4.31,13.67,8.54,20.35,13.14
				c5.36,3.68,13.5,11.53,20.27,13.27c7.46,1.93,17.25-6.97,23.55-10.91c8.86-5.53,18.93-8.93,26.51-16.96
				c8.34-8.84,8.54-21.66,10.52-34.38c3.4-21.86,7.9-32.84,22.4-47.19c14.75-14.58,28.58-31.59,46.92-38.76
				c12.12-4.73,30.79-14.34,42.37-5.17c11.73,9.26,7.62,20.49,2.86,33.36c-6.87,18.61-12.29,31.88-26.04,44.63
				c-20.72,19.21-45.75,25.86-68.57,39.94c-10.14,6.25-19.77,12.8-30.83,16.34"/>
		</g>
	</g>
</g>
<g id="Layer_3">
</g>
</svg>
