<?xml version="1.0" encoding="utf-8"?>
<!-- Generator: Adobe Illustrator 24.3.0, SVG Export Plug-In . SVG Version: 6.00 Build 0)  -->
<svg version="1.1" xmlns="http://www.w3.org/2000/svg" xmlns:xlink="http://www.w3.org/1999/xlink" x="0px" y="0px"
	 viewBox="0 0 6000 1080" style="enable-background:new 0 0 6000 1080;" xml:space="preserve">
<style type="text/css">
	.st0{clip-path:url(#SVGID_2_);fill:none;stroke:#000000;stroke-width:3;stroke-miterlimit:10;}
</style>
<g id="Layer_1">
</g>
<g id="Layer_2">
	<g>
		<defs>
			<rect id="SVGID_1_" x="0.5" y="1.5" width="5999" height="1078"/>
		</defs>
		<clipPath id="SVGID_2_">
			<use xlink:href="#SVGID_1_"  style="overflow:visible;"/>
		</clipPath>
		<path class="st0" d="M562.88,1288.79c0-16.94-1.02-34.22-0.09-51.14c0.41-7.49,4.12-14.61,5.09-22.08
			c0.97-7.53-1.18-15.55-0.22-23.08c0.46-3.57,2.27-6.67,2.66-10.3c0.44-4.03,0.12-7.51,1.06-11.53c2.01-8.59,6-17.51,6.17-26.28
			c0.4-20.69-0.06-41.44-0.06-62.13c0-19.64,0-39.29,0-58.93c0-9.15,0.79-18.71,0.11-27.83c-0.64-8.53-9.05-16.48-14.55-22.83
			c-13.86-15.99-42.2-27.69-63.07-23.3c-12.89,2.71-24.44,8.51-33.89,17.29c-4.26,3.96-9.77,5.5-14.15,9.19
			c-5.23,4.4-9.9,10.7-14.4,15.84c-4.64,5.29-7.43,10.12-9.29,16.82c-1.67,6-7.9,20.55-3.04,25.65c4.43,4.65,20.59-3.85,25.76-4.91
			c6.43-1.32,12.86-1.35,19.42-1.18c5.83,0.15,10.54,1.93,16.21,2.61c10.5,1.25,24.31,1.06,34.79-0.34
			c11.67-1.56,21.46-4.77,29.48-13.82c6.89-7.78,11.92-16.97,12.09-27.37c0.09-5.81,0.55-9.04-5.06-12.12
			c-3.98-2.19-8.85-2.45-13.24-2.54c-17.65-0.34-46.78-5.88-58.27,10.97c-15.98,23.43,34.27,18.2,45.29,18.28
			c12.5,0.1,16.41-1.73,23.76-11.51c7.2-9.59,17.68-16.82,29.78-17.78c7.33-0.58,14.38-1.52,21.45-3.6
			c4.54-1.34,8.63-3.38,13.4-3.77c12.5-1.02,23.23,4.44,35.28,3.7c34-2.08,46.76-29.63,64.59-53.93c3.26-4.44,8.56-11.42,14.62-9.17
			c4.38,1.62,6.49,7.06,7.51,11.21c2.72,11.07,1.11,23.91,1.11,35.27c0,8.28,0.97,16.96-0.01,25.17
			c-1.04,8.78-6.16,15.34-11.25,22.29c-5.38,7.36-9.13,14.3-17.8,17.94c-10.41,4.38-23.31,4.9-34.51,5.94
			c-16.49,1.53-35-4.07-49.87-10.78c-7.66-3.46-14.81-7.2-21.71-11.99c-4.01-2.79-11.6-6.07-12.29-11.35
			c7.19-5.98,19.69-0.93,27.45,0.85c10.66,2.45,23.83,6.09,34.59,6.54c12.44,0.52,25.97-3.77,36.86-9.31
			c9.51-4.83,24.91-11.16,25.64-24.22c-7.15-0.98-17.45,7.18-24.38,10.38c-7.85,3.63-15.52,6.87-23.84,9.27
			c-8.58,2.48-15.67,1.92-24.43,0.06c-7.89-1.67-16.22-3.66-23.82-6.07c-4.1-1.3-7.65-3.77-12.06-4.95
			c-3.87-1.03-7.71-2.39-11.26-4.26c-4.53-2.38-11.8-6.06-15.7-9.57c-4.82-4.33-5.32-11.32-7.28-17.05
			c-3.16-9.2-2.41-18.23-2.42-27.9c-0.01-13.04-1.45-26.94,0.55-39.78c1.02-6.55,1.8-14.18,4.23-20.4c1.19-3.05,3.58-5.87,4.5-8.98
			c1.36-4.63,1.24-8.62,2.91-13.38c2.92-8.31,1.75-16.09,7.26-23.39c3.61-4.78,8.76-10.05,14.07-12.79
			c5.07-2.63,10.2-2.67,15.22-5.79c6.89-4.29,12.89-8.26,20.15-11.62c6.27-2.91,8.73-8.5,14.4-11.86
			c7.85-4.67,17.32,0.54,24.11,5.53c6.93,5.1,11.15,13.07,16.78,19.44c3.48,3.94,6.44,6.97,11.11,9.55
			c4.14,2.29,7.9,3.41,10.52,7.54c3.95,6.21,4.06,15.8-0.95,21.18c-8.17,8.78-22.25,2-32.43,2.46
			c-11.53,0.52-19.45,8.63-29.78,12.84c-9,3.68-22.1,3.18-31.81,1.62c-13.09-2.1-21.56-6.61-23.81-21.07
			c-1.24-7.96,1.13-14.2,4.93-21.03c4.32-7.76,6.58-13.94,5.31-22.93c-1.73-12.22-8.61-6.32-12.96,2.04
			c-4.98,9.56-10.26,17.42-18.6,24.63c-9.51,8.21-22,9.89-33.8,13.31c-13.51,3.91-26.91,5.93-41.02,4.57
			c-16.68-1.6-22.76-12.04-26.61-26.69c-2.6-9.9-4.54-16.85-10.13-26.04c-4.86-7.99-8.2-13.7-10.76-23.19
			c-1.33-4.92-5.14-19.1-4.43-25.36c1.44-12.69,19.35-14.59,28.84-14.48c15.8,0.18,27.24,7.76,41.74,12.61
			c12.33,4.12,25.52,3.77,37.68,7.56c7.81,2.43,14.59,8.69,20.27,14.26c9.37,9.19,5.06,14.99-6.41,19.41
			c-16.74,6.44-37.81,8.53-51.6,20.21c-1.15,15.43,35.67,1.99,42.31-0.87c6.45-2.78,13.28-8.37,17.99-13.76
			c9.6-11.01-9.52-22.38-17.86-27.27c-25.43-14.88-98.45-20.32-82.05-66.2c4.43-12.39,11.83-20.49,20.02-30.62
			c12.31-15.22,20.09-30.86,40.65-36.24c9.02-2.36,16.62-0.37,25.79,0.83c9.38,1.22,16.36-0.2,25.06-3.78
			c13.36-5.48,33.15-9.63,40.89,6.37c12.59,26.07-4.25,58.5-8.1,84.31c-1.6,10.71-3.56,21.26-5.51,31.9
			c-0.69,3.76-5,17.71-2.76,21.07c2.01,3.01,7.06,1.87,9.81-0.25c5.03-3.87,4.69-12.27,5.89-18.08c2.15-10.44,1.3-20.99,2.14-31.57
			c1.13-14.28,6.68-28.31,10.37-42.07c2.52-9.37,6.5-15.17,11.13-23.48c3.17-5.69,6.98-20.11,14.67-22.13
			c5.92-1.55,14.07,8.19,18.68,11.53c4.06,2.94,8.65,4.92,13.47,5.89c9.19,1.85,16.63,2.56,25.33,6.65
			c10.58,4.97,19.27,12.75,29.16,18.85c9.34,5.77,14.55,10.58,19.3,20.98c7.28,15.94,2.67,30.57-5.76,45.31
			c-11.86,20.76-33.77,26.24-55.7,27.81c-11.49,0.82-41.17,11.35-46.59-5.05c4.71-7.54,17.48-1.26,23.72,0.18
			c9.67,2.23,19.27,4.6,28.97,6.69c10.78,2.33,20.91,4.7,31.88,1.91c7.94-2.02,14.57-5.25,22.85-4.45
			c6.57,0.63,14.91,0.78,19.05,6.32c5.29,7.08,5.57,19.39,4.58,27.77c-1.07,9.04-3.55,21.26-10.71,27.53
			c-5.92,5.19-14.73,8.46-21.56,12.1c-6.68,3.57-12.77,7.77-20.66,7.13c-7.53-0.61-14.5-6.17-21.18-9.56
			c-7.63-3.88-15.67-5.94-23.32-9.58c-5.04-2.4-9.4-5.98-14.46-8.36c-4.59-2.16-10.86-2.91-14.4-6.94
			c-5.11-5.8-4.36-16.77-4.84-23.71c-0.57-8.39-3.62-14.91-8.49-21.8c-4.12-5.82-7.76-10.46-14.89-12.14
			c-5.8-1.36-11.76-1.68-17.59-3.14c-10.49-2.63-21.44-11.42-32.58-8.63c-16.74,4.2-14.41,19.27-3.54,27.92
			c7.16,5.69,15.61,8.93,23.65,13.1c5.1,2.64,9.83,5.32,14.74,0.95c10-8.87-4.06-17.06-12.71-15.81"/>
		<path class="st0" d="M95.43,855.7c2.21-6.85,3.32-13.66,5.03-20.48c0.68-2.72,2.28-5,3.33-7.58c1.72-4.24-0.33-6.78,0.61-11.13
			c2.47-11.43,10.97-22.97,15.49-33.8c4.01-9.61-1.54-20.08-1.74-30.09c-0.18-8.83-0.8-18.06-1.71-26.84
			c-0.86-8.34-8.02-15.41-14.5-20.29c-10.19-7.66-18.4-17.84-28.41-25.73c-5.96-4.71-12.64-5.46-19.86-6.16
			c-12.26-1.19-21.02,4.16-31.91,9.28c-5.67,2.66-11.2,5.32-16.68,8.37c-4.68,2.6-10.62,4.12-14.86,7.31
			c-4.63,3.49-15.09,11.09-17.43,16.64c-2.57,6.11-0.36,15.27,4.29,19.73c7.24,6.95,16.42,13.53,24.7,19.18
			c18.26,12.46,40.15,20.01,60.23,29.28c6.99,3.23,13.78,4.62,20.76,7.32c7.68,2.98,18.29,1.59,22.38-5.86
			c4.14-7.54,10.48-13.6,14.25-21.18c2.19-4.39,4.96-7.75,7.54-11.9c3.16-5.08,5.33-11.19,7.82-16.62
			c3.89-8.5,10.19-18.74,8.27-28.58c-0.84-4.32-4.36-12.98-6.72-16.87c-2.48-4.08-6.68-6.92-9.34-10.85
			c-6.23-9.19-8.7-20.15-15.68-28.97c-7.83-9.88-16.42-16.89-26.05-24.65c-4.26-3.44-7.38-7.87-12.29-10.84
			c-10.66-6.44-22.68-9.47-34.81-11.73c-15.07-2.81-28.51-5.27-43.8-4.12c-8.27,0.62-19.72-0.83-27.67,2.01
			c-2.3,0.82-4.4-0.44-4.76,3.11c-0.16,1.61,3.28,4.64,4.2,5.69c4.27,4.88,9.08,8.85,14.13,12.86c4.95,3.92,9.94,7.92,14.79,11.95
			c4.1,3.4,6.65,7.66,10.29,11.53c4.92,5.24,8.13,10.53,12.05,16.46c2.78,4.2,4.52,9.15,7.63,13.13
			c6.59,8.45,16.34,14.9,23.85,22.49c3.11,3.14,5.95,7.83,9.82,10.04c4.55,2.59,9.69,0.73,14.76,0.93
			c5.36,0.21,10.66,1.53,16.02,1.58c4.17,0.04,8.15-0.62,12.31-0.41c5.22,0.26,11.8,2.13,16.94,1.1c4.32-0.87,7.41-4.39,11.62-5.69
			c4.66-1.44,9.58-2.42,14.3-3.67c5.15-1.37,8.25-1.7,12.97-4.22c4.77-2.55,9.76-2.92,14.86-4.57c6.48-2.1,12.1-6.15,18.53-8.34
			c3.87-1.32,7.66-1.45,11.58-2.46c4.17-1.07,7.65-3.14,11.56-4.87c9.9-4.4,22.98-8.32,33.85-6.29c10.08,1.88,19.56,4.93,29.04,8.42
			c10.95,4.04,22.62,6.25,33.52,10.69c12.98,5.28,28.36,7.6,42.31,7.2c7.17-0.2,12.32-0.11,18.07-4.58
			c3.87-3.01,9.25-5.67,10.14-10.82c1.37-7.94-8.14-14.28-14.77-16.09c-16.2-4.41-37.6,7.1-51.29,15.11
			c-7.92,4.64-15.97,7.47-24.21,11.52c-14.37,7.06-27.54,16.31-41.87,23.38c-16.51,8.15-33.45,11.07-51.48,7.93
			c-12.92-2.26-28.59-5.3-39.89-12.51c-9.75-6.22-9.16-14.77-5.23-24.24c7.98-19.24,11.89-40,22.36-58.27
			c5.36-9.36,10.55-18.84,17.39-27.15c6.94-8.43,15.15-15.3,23.6-22.15c5.16-4.18,11.3-5.43,17.24-8.19
			c4.74-2.2,9.55-4.57,13.98-7.36c8.93-5.61,15.61-12.8,21.49-21.53c4.37-6.49,11.01-13.74,12.03-21.69
			c1.28-10-6.33-20.18-12.06-27.51c-5.37-6.87-11-8.92-19.41-11.44c-6.36-1.9-13.34-4.59-20.02-4.84
			c-4.65-0.18-9.93,1.26-14.43,1.61c-7.06,0.55-13.96,0.41-20.98,1.81c-8.13,1.63-17.98,4.65-26.22,2.61
			c-3.83-0.95-7.46-3.54-11.22-4.66c-4.05-1.21-8.83-1.43-13.01-1.82c-9.81-0.91-18.36-3.77-22.47,7
			c-5.56,14.58,4.05,29.76,11.71,41.6c8.14,12.59,13.72,26.87,26.24,35.6c8.1,5.65,16.06,11.51,23.15,18.47
			c9.98,9.79,20.36,16.77,34.62,11.77c16.91-5.92,28.94-16.52,42.71-27.05c8.98-6.88,15.33-19.93,17.45-31.02
			c1.11-5.81,2.2-13.22,1.09-19.21c-1.52-8.21-5.34-15.33-6.44-23.86c-1.45-11.33-0.43-23.93,3.45-34.8
			c1.39-3.89,3.94-7.34,5.49-11.15c3.48-8.52,3.67-23.93-0.35-32.41c-4.45-9.4-11.83-19.47-19.8-25.93
			c-11.24-9.13-21.91-19.73-33.92-27.76c-21.81-14.6-44.68-22.74-71.13-22.53c-5.1,0.04-15.86-3.22-20.3-0.32
			c-4.27,2.78,0.29,5.83,2.4,9.94c4.67,9.06,9.28,18.74,11.92,28.59c2.43,9.05,3.65,18.38,6.1,27.46c6.49,24,15.7,48.71,35.87,64.59
			c9.15,7.2,20.21,12.85,30.7,17.81c11.46,5.43,21.68,8.79,33.74,4.09c9.62-3.75,16.95-11.18,25.74-16.43
			c8.82-5.27,16.95-7.39,26.8-9.64c16.37-3.74,32.34-2.31,48.91-0.76c8.35,0.78,16.74,4.22,25.02,4.52
			c9.02,0.32,18.32-2.02,26.94-4.48c23.54-6.7,37.8-29.56,57.95-41.91c7.9-4.84,16.23-8.18,24.88-11.43
			c8.05-3.03,15.55-6.1,24.16-3.48c3.66,1.11,7.85,2.89,9.29,6.76c3,8.05-6.19,9.8-12.32,10.83c-27.99,4.69-51.03-20.37-73.84-32.28
			c-16.98-8.87-33.62-14.35-52.75-8.93c-14.71,4.17-26.67,18.53-39.08,26.84c-14.29,9.58-25.28,21.94-38.14,33.09
			c-10.21,8.85-21.03,19.04-33.32,24.73c-3.81-4.26,5.82-11.82,8.22-14.8c8.28-10.33,15.35-21.76,21.76-33.34
			c9.19-16.59,14.4-35.47,22.34-52.8c2.64-5.76,6.21-11.66,8.32-17.6c2.52-7.09-2.97-10.24-9.14-13.26
			c-5.71-2.8-10.38-5.66-15.81-8.97c-10.86-6.62-25.46-9.76-37.64-12.6c-8.85-2.06-18.19-2.55-26.62-6.35
			c-9.64-4.35-18.18-17.65-24.58-25.84c-7.08-9.06-13.67-18.8-20.3-28.24c-3.98-5.67-8.41-11.23-10.89-17.78
			c-3.17-8.36-6.47-18.11-0.12-25.86c6.11-7.46,15.16-4.06,22.95-1.95c4.48,1.21,9.6,1.97,13.7,4.33
			c7.73,4.45,11.28,13.47,16.76,20.09c14.52,17.54,31.35,32.58,45.05,50.92c12.28,16.43,20.1,36.92,35.18,50.89
			c4.26,3.95,4.72,6.64,10.08,2.25c8.29-6.8,10.41-16.09,16.39-24.38c15.8-21.89,50.96-13.74,73.82-11.97
			c20.21,1.57,39.22-0.82,59.25-2.61c22.59-2.03,46.22-3.22,68.9-1.93c6.4,0.36,11.95,0.92,16.81,5.6c2.97,2.86,6.5,8.37,5.32,12.79
			c-1.55,5.81-12.28,8.38-16.97,9.94c-8.78,2.92-18.15,2.89-27.14,4.67c-16.8,3.33-31.56,11.03-47.58,16.45
			c-19.84,6.71-42.23,1.38-62.34-1.58c-7.56-1.11-15.13-2.32-22.72-3.18c-6.09-0.69-16.4-0.27-22.73-3.05
			c-6.98-3.06-10.77-14.6-14.06-20.85c-4.62-8.78-11.22-16.86-13.63-26.55c-2.64-10.66,3.21-19.2,7.57-28.72
			c7.48-16.35,8.98-26.18,3.91-44.04c-5.16-18.15-8.44-37.38-20.01-52.74c-7.65-10.15-18.34-27.3-32.07-28.01
			c-13.89-0.72-15.81,9.05-17.98,20.27c-3.13,16.22-4.95,28.1,0.26,44.47c7.85,24.67,25.11,43.57,37.08,66.09
			c5.32,10,10.09,19.91,17.43,28.65"/>
		<path class="st0" d="M1255.24,1377.85c2.18-6.86,5.23-13.05,7.8-19.59c1.02-2.61,1.05-5.4,1.69-8.1c1.06-4.45,4.2-5.33,5.96-9.41
			c4.63-10.74,4.41-25.07,7.02-36.51c2.32-10.16,12.91-15.45,18.89-23.48c5.28-7.09,11.14-14.24,16.98-20.86
			c5.55-6.29,15.48-7.89,23.59-8.09c12.75-0.32,25.34-3.83,38.07-4.45c7.59-0.37,13.46,2.9,19.74,6.52
			c10.67,6.15,14.69,15.6,20.59,26.09c3.07,5.46,6.02,10.83,8.72,16.5c2.3,4.84,6.26,9.52,7.85,14.58
			c1.75,5.53,5.84,17.8,4.52,23.67c-1.45,6.46-8.57,12.64-14.95,13.57c-9.93,1.45-21.22,1.48-31.24,1.27
			c-22.1-0.46-44.31-7.02-66.04-11.14c-7.56-1.43-13.9-4.24-21.15-6.1c-7.98-2.04-15.81-9.33-14.82-17.76
			c1-8.54-0.63-17.16,0.7-25.52c0.77-4.84,0.47-9.19,0.77-14.07c0.38-5.97,2.16-12.21,3.29-18.07c1.77-9.18,2.59-21.18,9.87-28.07
			c3.2-3.03,11.09-8.04,15.27-9.83c4.39-1.88,9.45-1.75,13.9-3.41c10.4-3.86,18.79-11.35,29.59-14.47
			c12.11-3.5,23.17-4.21,35.52-4.94c5.47-0.32,10.58-2.12,16.3-1.69c12.42,0.95,23.96,5.47,35.15,10.67
			c13.9,6.47,26.27,12.26,38.05,22.08c6.37,5.31,16.53,10.78,21.36,17.7c1.4,2,3.84,2.19,2.06,5.3c-0.8,1.4-5.37,1.87-6.72,2.19
			c-6.32,1.5-12.53,1.93-18.97,2.26c-6.31,0.32-12.69,0.68-18.98,1.14c-5.32,0.39-9.86,2.37-15.08,3.41
			c-7.04,1.41-12.73,3.85-19.37,6.4c-4.7,1.8-8.99,4.82-13.83,6.26c-10.27,3.05-21.95,2.65-32.48,4.46
			c-4.35,0.75-9.39,2.92-13.82,2.47c-5.21-0.53-8.31-5.03-12.56-7.81c-4.49-2.94-9.57-4.95-13.96-8.02
			c-3.42-2.39-6.27-5.24-9.78-7.49c-4.41-2.82-10.84-5.12-14.43-8.95c-3.01-3.22-3.48-7.88-6.16-11.38
			c-2.96-3.88-6.4-7.54-9.51-11.3c-3.4-4.1-5.73-6.18-8.11-10.97c-2.4-4.84-6.25-8.04-9.44-12.35c-4.06-5.47-6.27-12.03-10.24-17.55
			c-2.39-3.32-5.39-5.63-8-8.73c-2.77-3.29-4.41-7-6.58-10.68c-5.51-9.33-13.88-20.12-23.91-24.78c-9.3-4.32-18.79-7.35-28.53-10.01
			c-11.26-3.07-22.05-8.05-33.5-10.77c-13.63-3.24-27.5-10.29-38.63-18.72c-5.72-4.33-9.96-7.24-12.05-14.22
			c-1.41-4.7-4.24-9.99-1.97-14.7c3.49-7.26,14.92-6.9,21.37-4.52c15.75,5.82,26.48,27.61,32.98,42.09
			c3.76,8.38,8.66,15.35,13.02,23.44c7.59,14.09,12.95,29.27,20.51,43.35c8.71,16.22,20.8,28.44,37.31,36.35
			c11.83,5.67,26.35,12.29,39.74,12.98c11.55,0.6,16.03-6.7,18.34-16.7c4.68-20.3,13.55-39.47,15.64-60.42
			c1.07-10.73,2.36-21.47,1.61-32.2c-0.76-10.89-3.44-21.25-6.34-31.74c-1.77-6.4-6.04-10.98-9.27-16.68
			c-2.58-4.54-5.12-9.27-7.11-14.11c-4.01-9.75-5.27-19.48-4.99-30.01c0.21-7.82-0.99-17.58,2.8-24.65
			c4.77-8.89,16.88-12.75,25.79-15.39c8.36-2.48,14.13-0.87,22.44,1.96c6.29,2.15,13.53,4.01,19.11,7.68
			c3.89,2.56,7.35,6.79,10.81,9.69c5.43,4.55,11.13,8.44,16.03,13.66c5.67,6.05,11.94,14.23,19.83,17.35
			c3.67,1.45,8.12,1.45,11.84,2.73c4,1.37,8.02,3.96,11.64,6.08c8.51,4.96,17.13,7.6,14.22,18.75c-3.94,15.1-20.58,21.87-33.7,27.06
			c-13.94,5.52-26.77,13.91-42.04,13.75c-9.87-0.11-19.76,0.04-29.58,1.59c-13.8,2.17-26.31,1.83-35.02-10.52
			c-10.33-14.64-13.96-30.25-19.05-46.83c-3.32-10.82-0.91-25.13,3.81-35.39c2.47-5.37,5.89-12.04,10.27-16.27
			c6.01-5.8,13.25-9.37,19.1-15.69c7.77-8.38,14.25-19.23,17.4-30.33c1.13-3.98,1.06-8.26,2-12.26c2.11-8.96,10.91-21.61,19.1-26.18
			c9.08-5.06,20.94-8.98,31.18-9.61c14.45-0.9,29.29-3.34,43.74-2.9c26.23,0.79,49.58,7.43,70.99,22.97
			c4.13,3,14.78,6.59,16.72,11.53c1.86,4.75-3.62,4.58-7.73,6.7c-9.06,4.67-18.44,9.87-26.31,16.35
			c-7.23,5.95-13.64,12.84-20.91,18.81c-19.22,15.77-41.07,30.53-66.71,31.75c-11.63,0.55-23.92-1.28-35.34-3.33
			c-12.48-2.23-22.76-5.44-29.84-16.27c-5.65-8.64-7.3-18.94-11.41-28.32c-4.12-9.41-9.5-15.86-16.22-23.42
			c-11.15-12.55-24.98-20.66-39.37-29.03c-7.25-4.22-16.08-6.28-22.99-10.85c-7.53-4.98-13.74-12.29-19.33-19.29
			c-15.27-19.12-13.6-46.02-22.83-67.77c-3.62-8.53-8.46-16.08-13.61-23.76c-4.79-7.14-9.11-14-17.65-16.87
			c-3.62-1.22-8.07-2.21-11.49,0.11c-7.12,4.82-0.66,11.57,3.74,15.97c20.06,20.07,53.37,13.05,78.86,16.6
			c18.97,2.64,35.7,7.84,48.13,23.36c9.55,11.94,10.95,30.58,16.22,44.54c6.07,16.1,7.84,32.54,11.83,49.09
			c3.17,13.14,6.07,27.71,12.76,39.48c5.57-1.26,2.12-13,1.91-16.82c-0.74-13.22,0.15-26.63,1.65-39.78
			c2.15-18.84,8.88-37.23,12.47-55.96c1.19-6.22,1.72-13.09,3.44-19.16c2.06-7.24,8.36-6.61,15.14-5.49
			c6.27,1.04,11.74,1.42,18.08,1.88c12.68,0.92,26.39,6.84,37.96,11.61c8.4,3.46,16.29,8.49,25.36,10.3
			c10.37,2.06,25.05-3.81,35.01-6.76c11.03-3.26,22.05-7.37,32.92-11.2c6.53-2.3,13.36-4.26,19.2-8.15
			c7.44-4.97,15.78-10.99,15.12-20.98c-0.64-9.63-9.99-12.11-17.55-14.92c-4.35-1.61-8.95-3.97-13.67-4.43
			c-8.87-0.87-17,4.41-25.31,6.62c-22.01,5.85-44.44,8.31-66.25,15.28c-19.54,6.24-37.81,18.38-58.19,21
			c-5.76,0.74-7.7,2.67-9.51-4.03c-2.8-10.35,0.87-19.14,0.81-29.37c-0.15-27-33.51-40.78-53.14-52.61
			c-17.36-10.46-31.45-23.44-46.72-36.54c-17.21-14.77-35.76-29.47-54.96-41.59c-5.42-3.42-10.27-6.19-16.94-5.2
			c-4.08,0.61-10.15,3.04-11.76,7.32c-2.11,5.63,5.13,13.96,8.04,17.95c5.45,7.47,13.1,12.9,19.38,19.56
			c11.75,12.47,19.29,27.3,29.18,41.02c12.25,16.99,33.57,25.65,51.67,34.92c6.8,3.48,13.67,6.9,20.35,10.61
			c5.36,2.97,13.51,9.31,20.27,10.72c7.46,1.56,17.25-5.63,23.55-8.81c8.86-4.47,18.93-7.21,26.51-13.7
			c8.34-7.14,8.54-17.5,10.52-27.77c3.4-17.66,7.9-26.53,22.4-38.12c14.75-11.78,28.58-25.52,46.92-31.31
			c12.12-3.82,30.79-11.58,42.37-4.18c11.73,7.48,7.62,16.55,2.86,26.95c-6.87,15.03-12.29,25.75-26.04,36.05
			c-20.72,15.52-45.75,20.89-68.57,32.26c-10.14,5.05-19.77,10.34-30.83,13.2"/>
		<path class="st0" d="M43.84,1467c1.52-7.03,3.97-13.48,5.91-20.24c0.77-2.69,0.53-5.47,0.92-8.23c0.64-4.53,3.68-5.7,5.05-9.93
			c3.6-11.13,2.02-25.38,3.54-37.01c1.35-10.33,11.39-16.6,16.58-25.16c4.58-7.55,9.75-15.23,14.93-22.37
			c4.93-6.79,14.66-9.32,22.72-10.28c12.66-1.52,24.86-6.21,37.48-8.02c7.52-1.08,13.68,1.62,20.27,4.63
			c11.2,5.12,16.1,14.14,22.96,24.03c3.57,5.14,7.02,10.22,10.23,15.6c2.74,4.6,7.13,8.89,9.2,13.78c2.26,5.34,7.5,17.17,6.74,23.13
			c-0.84,6.57-7.34,13.39-13.6,14.93c-9.75,2.39-20.99,3.48-30.98,4.21c-22.05,1.62-44.77-2.81-66.79-4.85
			c-7.67-0.71-14.24-2.91-21.63-4.07c-8.14-1.28-16.62-7.79-16.43-16.28c0.19-8.6-2.25-17.02-1.71-25.47
			c0.31-4.89-0.4-9.19-0.56-14.08c-0.19-5.98,1-12.36,1.57-18.3c0.9-9.31,0.58-21.33,7.17-28.88c2.9-3.32,10.28-9.05,14.27-11.23
			c4.19-2.29,9.25-2.64,13.52-4.7c9.99-4.83,17.64-13.08,28.09-17.2c11.73-4.63,22.67-6.38,34.9-8.28
			c5.42-0.84,10.33-3.11,16.07-3.22c12.45-0.22,24.37,3.18,36,7.3c14.45,5.13,27.31,9.73,39.96,18.39
			c6.84,4.68,17.47,9.17,22.93,15.61c1.58,1.86,4.03,1.82,2.56,5.08c-0.67,1.47-5.17,2.37-6.49,2.81
			c-6.15,2.08-12.29,3.11-18.67,4.04c-6.25,0.91-12.57,1.87-18.79,2.93c-5.26,0.89-9.59,3.29-14.69,4.82
			c-6.88,2.06-12.31,5.04-18.68,8.2c-4.51,2.24-8.5,5.65-13.18,7.54c-9.94,4.01-21.61,4.71-31.91,7.51
			c-4.26,1.16-9.07,3.8-13.53,3.77c-5.24-0.04-8.75-4.22-13.24-6.59c-4.75-2.5-9.99-4.03-14.66-6.66
			c-3.63-2.05-6.74-4.63-10.45-6.53c-4.65-2.39-11.28-4.07-15.21-7.54c-3.3-2.92-4.21-7.51-7.21-10.75
			c-3.31-3.58-7.08-6.9-10.53-10.35c-3.77-3.76-6.29-5.61-9.11-10.15c-2.84-4.6-6.98-7.42-10.57-11.4
			c-4.56-5.06-7.38-11.38-11.86-16.51c-2.69-3.08-5.9-5.1-8.79-7.93c-3.07-3.01-5.05-6.56-7.56-10.01
			c-6.37-8.77-15.72-18.72-26.14-22.41c-9.67-3.42-19.4-5.54-29.35-7.27c-11.5-2-22.71-5.93-34.36-7.56
			c-13.88-1.94-28.35-7.64-40.22-14.98c-6.1-3.77-10.6-6.27-13.34-13.02c-1.84-4.54-5.17-9.54-3.35-14.45
			c2.79-7.56,14.21-8.28,20.84-6.52c16.23,4.3,28.97,24.99,36.81,38.79c4.53,7.98,10.07,14.47,15.17,22.11
			c8.89,13.31,15.65,27.92,24.51,41.22c10.2,15.33,23.39,26.35,40.57,32.66c12.31,4.53,27.39,9.74,40.79,9.17
			c11.55-0.49,15.33-8.18,16.68-18.36c2.74-20.65,9.76-40.58,9.86-61.63c0.05-10.78,0.32-21.59-1.44-32.21
			c-1.78-10.77-5.43-20.83-9.31-30.99c-2.37-6.2-7.05-10.36-10.81-15.73c-2.99-4.28-5.97-8.75-8.41-13.37
			c-4.92-9.33-7.09-18.9-7.8-29.4c-0.53-7.8-2.64-17.41,0.46-24.8c3.91-9.3,15.6-14.29,24.22-17.76c8.09-3.25,13.99-2.21,22.53-0.17
			c6.46,1.54,13.85,2.71,19.75,5.84c4.11,2.18,7.96,6.07,11.68,8.63c5.83,4.02,11.88,7.35,17.24,12.08
			c6.22,5.48,13.23,13.04,21.38,15.4c3.79,1.1,8.23,0.68,12.05,1.6c4.11,0.99,8.36,3.19,12.17,4.95
			c8.94,4.13,17.77,5.95,15.93,17.32c-2.5,15.4-18.43,23.72-30.99,30.12c-13.35,6.81-25.34,16.38-40.55,17.65
			c-9.84,0.83-19.67,1.91-29.29,4.37c-13.54,3.47-26.02,4.3-35.86-7.17c-11.67-13.6-16.76-28.8-23.39-44.82
			c-4.33-10.45-3.28-24.93,0.45-35.59c1.95-5.58,4.72-12.54,8.69-17.17c5.43-6.34,12.31-10.58,17.53-17.42
			c6.94-9.08,12.37-20.49,14.46-31.84c0.75-4.07,0.28-8.33,0.84-12.4c1.25-9.12,8.82-22.54,16.55-27.87
			c8.56-5.9,20-10.91,30.13-12.52c14.3-2.26,28.85-6.09,43.27-7.02c26.19-1.69,50.06,2.72,72.84,16.16
			c4.4,2.59,15.34,5.17,17.73,9.9c2.3,4.55-3.17,4.9-7.06,7.4c-8.58,5.5-17.42,11.57-24.65,18.77c-6.63,6.61-12.37,14.07-19.04,20.7
			c-17.64,17.51-38,34.27-63.42,37.91c-11.53,1.65-23.93,0.98-35.49,0.03c-12.64-1.04-23.17-3.26-31.25-13.38
			c-6.44-8.07-9.06-18.17-14.03-27.11c-4.99-8.98-10.96-14.89-18.36-21.78c-12.29-11.44-26.82-18.21-41.94-25.18
			c-7.62-3.51-16.6-4.73-23.91-8.63c-7.97-4.24-14.84-10.93-21.07-17.38c-17.01-17.59-17.89-44.53-29.13-65.31
			c-4.41-8.15-9.94-15.21-15.8-22.36c-5.45-6.66-10.4-13.07-19.16-15.13c-3.72-0.87-8.24-1.44-11.43,1.19
			c-6.63,5.47,0.44,11.58,5.23,15.55c21.87,18.09,54.37,7.95,80.07,9.08c19.14,0.84,36.29,4.43,50.12,18.71
			c10.64,10.98,13.79,29.41,20.36,42.81c7.57,15.45,10.87,31.65,16.42,47.75c4.4,12.78,8.66,27.02,16.44,38.1
			c5.43-1.78,0.89-13.15,0.31-16.93c-1.99-13.09-2.37-26.53-2.12-39.76c0.36-18.96,5.32-37.91,7.13-56.88
			c0.6-6.31,0.47-13.2,1.62-19.4c1.37-7.4,7.7-7.37,14.55-6.89c6.34,0.44,11.82,0.31,18.18,0.16c12.71-0.29,26.92,4.31,38.89,7.97
			c8.69,2.65,17.02,6.92,26.22,7.85c10.52,1.07,24.58-6.16,34.22-10.04c10.67-4.29,21.25-9.42,31.72-14.26
			c6.29-2.91,12.9-5.5,18.34-9.93c6.94-5.65,14.67-12.43,13.07-22.31c-1.55-9.52-11.09-11.11-18.88-13.19
			c-4.48-1.2-9.29-3.11-14.03-3.12c-8.91-0.02-16.51,6-24.57,8.98c-21.36,7.9-43.45,12.47-64.51,21.47
			c-18.86,8.06-35.9,21.87-55.95,26.4c-5.66,1.28-7.41,3.38-9.85-3.11c-3.77-10.04-0.94-19.14-1.96-29.31
			c-2.7-26.86-37.21-37.43-57.88-47.36c-18.27-8.77-33.53-20.37-49.96-31.96c-18.53-13.08-38.38-25.96-58.65-36.21
			c-5.72-2.89-10.8-5.19-17.35-3.58c-4,0.99-9.82,3.99-11.02,8.4c-1.57,5.8,6.43,13.41,9.7,17.11c6.13,6.92,14.25,11.6,21.14,17.65
			c12.87,11.3,21.78,25.36,32.93,38.08c13.8,15.75,35.85,22.36,54.73,29.89c7.1,2.83,14.26,5.58,21.26,8.64
			c5.62,2.45,14.32,7.99,21.2,8.76c7.57,0.85,16.64-7.23,22.62-10.99c8.4-5.29,18.17-8.97,25.1-16.14
			c7.63-7.9,6.85-18.22,7.85-28.64c1.72-17.9,5.35-27.16,18.7-40.06c13.57-13.12,26.04-28.11,43.75-35.6
			c11.71-4.95,29.55-14.43,41.79-8.16c12.38,6.34,9.15,15.75,5.4,26.56c-5.42,15.61-9.8,26.8-22.52,38.35
			c-19.16,17.41-43.57,25.11-65.21,38.59c-9.62,5.99-18.71,12.17-29.44,16.05"/>
		<path class="st0" d="M1932.78,1309.58c0-24.66,1.48-49.82,0.13-74.44c-0.6-10.91-6-21.27-7.41-32.14
			c-1.42-10.95,1.72-22.63,0.32-33.6c-0.66-5.19-3.3-9.7-3.87-15c-0.63-5.86-0.17-10.93-1.54-16.79
			c-2.93-12.51-8.74-25.49-8.98-38.25c-0.58-30.11,0.08-60.32,0.08-90.44c0-28.6,0-57.19,0-85.79c0-13.32-1.15-27.23-0.16-40.5
			c0.93-12.42,13.17-23.99,21.18-33.23c20.18-23.27,61.42-40.31,91.8-33.91c18.76,3.95,35.58,12.38,49.33,25.16
			c6.2,5.76,14.22,8.01,20.59,13.37c7.61,6.4,14.41,15.58,20.95,23.05c6.75,7.7,10.82,14.73,13.53,24.49
			c2.43,8.73,11.5,29.91,4.42,37.33c-6.45,6.77-29.97-5.6-37.5-7.14c-9.37-1.91-18.72-1.96-28.26-1.72
			c-8.49,0.22-15.34,2.81-23.59,3.8c-15.28,1.82-35.39,1.54-50.63-0.49c-16.99-2.27-31.24-6.94-42.91-20.11
			c-10.04-11.33-17.36-24.7-17.59-39.85c-0.13-8.45-0.81-13.16,7.36-17.64c5.8-3.19,12.88-3.57,19.27-3.69
			c25.68-0.5,68.1-8.55,84.82,15.97c23.26,34.1-49.88,26.49-65.92,26.62c-18.2,0.15-23.89-2.51-34.58-16.75
			c-10.49-13.96-25.74-24.48-43.35-25.88c-10.66-0.85-20.93-2.21-31.22-5.24c-6.61-1.94-12.57-4.92-19.51-5.49
			c-18.2-1.49-33.81,6.46-51.35,5.38c-49.5-3.03-68.07-43.12-94.01-78.49c-4.74-6.46-12.46-16.62-21.28-13.35
			c-6.38,2.36-9.45,10.27-10.94,16.32c-3.97,16.11-1.62,34.81-1.61,51.34c0,12.05-1.41,24.69,0.01,36.64
			c1.52,12.77,8.97,22.32,16.38,32.45c7.83,10.71,13.29,20.81,25.92,26.12c15.16,6.37,33.94,7.13,50.24,8.64
			c24,2.23,50.95-5.92,72.59-15.69c11.15-5.03,21.55-10.48,31.6-17.46c5.84-4.06,16.89-8.84,17.89-16.52
			c-10.47-8.7-28.66-1.36-39.95,1.24c-15.52,3.57-34.68,8.87-50.34,9.52c-18.11,0.75-37.81-5.49-53.66-13.55
			c-13.84-7.03-36.25-16.25-37.32-35.25c10.41-1.43,25.4,10.45,35.49,15.12c11.43,5.28,22.6,10,34.7,13.5
			c12.48,3.61,22.81,2.79,35.56,0.09c11.49-2.43,23.62-5.33,34.68-8.84c5.96-1.89,11.13-5.49,17.56-7.21
			c5.64-1.5,11.23-3.48,16.4-6.2c6.59-3.46,17.18-8.82,22.86-13.93c7.02-6.3,7.74-16.48,10.6-24.81
			c4.59-13.39,3.51-26.53,3.52-40.61c0.01-18.99,2.12-39.21-0.8-57.91c-1.49-9.53-2.62-20.63-6.15-29.69
			c-1.73-4.45-5.21-8.54-6.54-13.07c-1.98-6.74-1.8-12.55-4.23-19.48c-4.26-12.1-2.55-23.42-10.57-34.04
			c-5.26-6.97-12.75-14.62-20.48-18.62c-7.38-3.82-14.85-3.88-22.16-8.43c-10.02-6.24-18.77-12.02-29.33-16.92
			c-9.13-4.23-12.71-12.37-20.96-17.27c-11.43-6.79-25.21,0.78-35.09,8.05c-10.09,7.42-16.24,19.03-24.43,28.3
			c-5.06,5.73-9.37,10.14-16.17,13.9c-6.03,3.34-11.49,4.97-15.32,10.98c-5.75,9.04-5.91,23,1.38,30.83
			c11.9,12.78,32.38,2.91,47.21,3.58c16.79,0.76,28.31,12.56,43.34,18.7c13.1,5.35,32.17,4.63,46.31,2.35
			c19.05-3.06,31.39-9.62,34.66-30.66c1.8-11.59-1.65-20.66-7.17-30.61c-6.28-11.3-9.57-20.3-7.73-33.37
			c2.51-17.79,12.53-9.2,18.86,2.97c7.25,13.91,14.93,25.36,27.08,35.84c13.84,11.94,32.02,14.4,49.19,19.37
			c19.67,5.69,39.17,8.63,59.71,6.66c24.28-2.33,33.13-17.53,38.73-38.84c3.79-14.41,6.61-24.53,14.75-37.9
			c7.08-11.62,11.93-19.94,15.67-33.76c1.94-7.15,7.49-27.81,6.45-36.91c-2.1-18.47-28.16-21.24-41.97-21.08
			c-22.99,0.27-39.66,11.29-60.75,18.35c-17.95,6-37.15,5.49-54.85,11c-11.38,3.54-21.23,12.65-29.5,20.76
			c-13.63,13.37-7.37,21.82,9.33,28.25c24.36,9.38,55.04,12.42,75.11,29.41c1.67,22.46-51.93,2.89-61.58-1.27
			c-9.38-4.04-19.33-12.18-26.18-20.04c-13.97-16.03,13.85-32.58,25.99-39.69c37.02-21.66,143.3-29.58,119.43-96.36
			c-6.45-18.04-17.21-29.83-29.14-44.57c-17.92-22.15-29.24-44.93-59.17-52.74c-13.13-3.43-24.2-0.53-37.55,1.2
			c-13.66,1.78-23.81-0.3-36.48-5.5c-19.45-7.98-48.26-14.02-59.52,9.28c-18.33,37.95,6.19,85.15,11.8,122.73
			c2.33,15.58,5.18,30.94,8.02,46.43c1,5.48,7.27,25.78,4.02,30.66c-2.92,4.39-10.28,2.72-14.28-0.37
			c-7.32-5.63-6.82-17.86-8.57-26.32c-3.14-15.19-1.89-30.56-3.11-45.95c-1.65-20.79-9.72-41.21-15.1-61.23
			c-3.67-13.64-9.46-22.09-16.2-34.18c-4.62-8.28-10.15-29.27-21.35-32.21c-8.61-2.26-20.48,11.92-27.19,16.78
			c-5.91,4.28-12.6,7.16-19.6,8.57c-13.38,2.69-24.21,3.73-36.87,9.68c-15.4,7.23-28.06,18.55-42.44,27.44
			c-13.6,8.4-21.18,15.4-28.1,30.54c-10.6,23.2-3.88,44.5,8.38,65.95c17.27,30.22,49.16,38.19,81.08,40.48
			c16.72,1.2,59.92,16.52,67.81-7.35c-6.85-10.98-25.45-1.83-34.52,0.26c-14.07,3.25-28.05,6.7-42.16,9.74
			c-15.69,3.39-30.43,6.85-46.4,2.78c-11.56-2.94-21.21-7.64-33.27-6.48c-9.56,0.91-21.7,1.13-27.73,9.2
			c-7.71,10.31-8.11,28.22-6.67,40.42c1.55,13.16,5.16,30.94,15.58,40.08c8.61,7.55,21.44,12.31,31.39,17.62
			c9.72,5.19,18.59,11.31,30.07,10.37c10.96-0.89,21.11-8.98,30.83-13.92c11.11-5.64,22.81-8.65,33.95-13.95
			c7.34-3.49,13.69-8.7,21.05-12.17c6.68-3.15,15.81-4.24,20.97-10.1c7.43-8.44,6.35-24.42,7.04-34.52
			c0.83-12.21,5.27-21.7,12.36-31.73c6-8.48,11.3-15.23,21.67-17.67c8.44-1.98,17.12-2.44,25.6-4.57
			c15.27-3.82,31.21-16.63,47.43-12.56c24.37,6.12,20.98,28.05,5.15,40.64c-10.42,8.28-22.72,13-34.43,19.07
			c-7.42,3.85-14.3,7.74-21.46,1.39c-14.56-12.92,5.9-24.83,18.5-23.01"/>
		<path class="st0" d="M2418.88,1199.23c0-16.94-1.02-34.22-0.09-51.14c0.41-7.49,4.12-14.61,5.09-22.08
			c0.97-7.53-1.18-15.55-0.22-23.08c0.46-3.57,2.27-6.67,2.66-10.3c0.44-4.03,0.12-7.51,1.06-11.53c2.01-8.59,6-17.51,6.17-26.28
			c0.4-20.69-0.06-41.44-0.06-62.13c0-19.64,0-39.29,0-58.93c0-9.15,0.79-18.71,0.11-27.83c-0.64-8.53-9.05-16.48-14.55-22.83
			c-13.86-15.99-42.2-27.69-63.07-23.3c-12.89,2.71-24.44,8.51-33.89,17.29c-4.26,3.96-9.77,5.5-14.15,9.19
			c-5.23,4.4-9.9,10.7-14.4,15.84c-4.64,5.29-7.43,10.12-9.29,16.82c-1.67,6-7.9,20.55-3.04,25.65c4.43,4.65,20.59-3.85,25.76-4.91
			c6.43-1.32,12.86-1.35,19.42-1.18c5.83,0.15,10.54,1.93,16.21,2.61c10.5,1.25,24.31,1.06,34.78-0.34
			c11.67-1.56,21.46-4.77,29.48-13.82c6.89-7.78,11.92-16.97,12.09-27.37c0.09-5.81,0.55-9.04-5.06-12.12
			c-3.99-2.19-8.85-2.45-13.24-2.54c-17.65-0.34-46.78-5.88-58.27,10.97c-15.98,23.43,34.27,18.2,45.29,18.28
			c12.5,0.1,16.41-1.73,23.76-11.51c7.2-9.59,17.68-16.82,29.78-17.78c7.33-0.58,14.38-1.52,21.45-3.6
			c4.54-1.34,8.63-3.38,13.4-3.77c12.5-1.02,23.23,4.44,35.28,3.7c34-2.08,46.76-29.63,64.59-53.93c3.26-4.44,8.56-11.42,14.62-9.17
			c4.38,1.62,6.49,7.06,7.51,11.21c2.72,11.07,1.11,23.91,1.11,35.27c0,8.28,0.97,16.96-0.01,25.17
			c-1.04,8.78-6.16,15.34-11.25,22.29c-5.38,7.36-9.13,14.3-17.8,17.94c-10.41,4.38-23.31,4.9-34.51,5.94
			c-16.49,1.53-35-4.07-49.87-10.78c-7.66-3.46-14.81-7.2-21.71-11.99c-4.01-2.79-11.6-6.07-12.29-11.35
			c7.19-5.98,19.69-0.93,27.45,0.85c10.66,2.45,23.83,6.09,34.59,6.54c12.44,0.52,25.97-3.77,36.86-9.31
			c9.51-4.83,24.91-11.16,25.64-24.22c-7.15-0.98-17.45,7.18-24.38,10.38c-7.85,3.63-15.52,6.87-23.84,9.27
			c-8.58,2.48-15.67,1.92-24.43,0.06c-7.89-1.67-16.22-3.66-23.82-6.07c-4.1-1.3-7.65-3.77-12.06-4.95
			c-3.87-1.03-7.71-2.39-11.26-4.26c-4.53-2.38-11.8-6.06-15.7-9.57c-4.82-4.33-5.32-11.32-7.28-17.05
			c-3.16-9.2-2.41-18.23-2.42-27.9c-0.01-13.04-1.45-26.94,0.55-39.78c1.02-6.55,1.8-14.18,4.23-20.4c1.19-3.05,3.58-5.87,4.5-8.98
			c1.36-4.63,1.24-8.62,2.91-13.38c2.92-8.31,1.75-16.09,7.26-23.39c3.61-4.78,8.76-10.05,14.07-12.79
			c5.07-2.63,10.2-2.67,15.22-5.79c6.89-4.29,12.89-8.26,20.15-11.62c6.27-2.91,8.73-8.5,14.4-11.86
			c7.85-4.67,17.32,0.54,24.11,5.53c6.93,5.1,11.15,13.07,16.78,19.44c3.48,3.94,6.44,6.97,11.11,9.55
			c4.14,2.29,7.9,3.41,10.52,7.54c3.95,6.21,4.06,15.8-0.95,21.18c-8.17,8.78-22.25,2-32.43,2.46
			c-11.53,0.52-19.45,8.63-29.78,12.84c-9,3.68-22.1,3.18-31.81,1.62c-13.09-2.1-21.56-6.61-23.81-21.07
			c-1.24-7.96,1.13-14.2,4.93-21.03c4.32-7.76,6.58-13.94,5.31-22.93c-1.73-12.22-8.61-6.32-12.96,2.04
			c-4.98,9.56-10.26,17.42-18.6,24.63c-9.51,8.21-22,9.89-33.8,13.31c-13.51,3.91-26.91,5.93-41.02,4.57
			c-16.68-1.6-22.76-12.04-26.61-26.69c-2.6-9.9-4.54-16.85-10.13-26.04c-4.86-7.99-8.2-13.7-10.76-23.19
			c-1.33-4.92-5.14-19.1-4.43-25.36c1.44-12.69,19.35-14.59,28.84-14.48c15.8,0.18,27.24,7.76,41.73,12.61
			c12.33,4.12,25.52,3.77,37.68,7.56c7.81,2.43,14.59,8.69,20.27,14.26c9.37,9.19,5.06,14.99-6.41,19.41
			c-16.74,6.44-37.81,8.53-51.6,20.21c-1.15,15.43,35.67,1.99,42.31-0.87c6.45-2.78,13.28-8.37,17.99-13.76
			c9.6-11.01-9.52-22.38-17.86-27.27c-25.43-14.88-98.45-20.32-82.05-66.2c4.43-12.39,11.83-20.49,20.02-30.62
			c12.31-15.22,20.09-30.86,40.65-36.24c9.02-2.36,16.62-0.37,25.79,0.83c9.38,1.22,16.36-0.2,25.06-3.78
			c13.36-5.48,33.15-9.63,40.89,6.37c12.59,26.07-4.25,58.5-8.1,84.31c-1.6,10.71-3.56,21.26-5.51,31.9
			c-0.69,3.76-5,17.71-2.76,21.07c2.01,3.01,7.06,1.87,9.81-0.25c5.03-3.87,4.69-12.27,5.89-18.08c2.15-10.44,1.3-20.99,2.14-31.57
			c1.13-14.28,6.68-28.31,10.37-42.07c2.52-9.37,6.5-15.17,11.13-23.48c3.17-5.69,6.98-20.11,14.67-22.13
			c5.92-1.55,14.07,8.19,18.68,11.53c4.06,2.94,8.65,4.92,13.47,5.89c9.19,1.85,16.63,2.56,25.33,6.65
			c10.58,4.97,19.27,12.75,29.16,18.85c9.34,5.77,14.55,10.58,19.3,20.98c7.28,15.94,2.67,30.57-5.76,45.31
			c-11.86,20.76-33.77,26.24-55.7,27.81c-11.49,0.82-41.17,11.35-46.59-5.05c4.71-7.54,17.48-1.26,23.72,0.18
			c9.67,2.23,19.27,4.6,28.97,6.69c10.78,2.33,20.91,4.7,31.88,1.91c7.94-2.02,14.57-5.25,22.85-4.45
			c6.57,0.63,14.91,0.78,19.05,6.32c5.29,7.08,5.57,19.39,4.58,27.77c-1.07,9.04-3.55,21.26-10.71,27.53
			c-5.92,5.19-14.73,8.46-21.56,12.1c-6.68,3.57-12.77,7.77-20.66,7.13c-7.53-0.61-14.5-6.17-21.18-9.56
			c-7.63-3.88-15.67-5.94-23.32-9.58c-5.04-2.4-9.4-5.98-14.46-8.36c-4.59-2.16-10.86-2.91-14.4-6.94
			c-5.11-5.8-4.36-16.77-4.84-23.71c-0.57-8.39-3.62-14.91-8.49-21.8c-4.12-5.82-7.76-10.46-14.89-12.14
			c-5.8-1.36-11.76-1.68-17.59-3.14c-10.49-2.63-21.44-11.42-32.58-8.63c-16.74,4.2-14.41,19.27-3.54,27.92
			c7.16,5.69,15.61,8.93,23.65,13.1c5.1,2.64,9.83,5.32,14.74,0.95c10-8.87-4.06-17.06-12.71-15.81"/>
		<path class="st0" d="M3129.45,862.15c-2.21-6.84-3.32-13.66-5.03-20.48c-0.68-2.72-2.28-5-3.33-7.58
			c-1.72-4.24,0.33-6.78-0.61-11.13c-2.47-11.43-10.97-22.97-15.49-33.8c-4.01-9.61,1.54-20.08,1.74-30.09
			c0.18-8.83,0.8-18.06,1.71-26.84c0.86-8.34,8.02-15.41,14.5-20.29c10.19-7.66,18.4-17.84,28.41-25.73
			c5.96-4.71,12.64-5.46,19.86-6.16c12.26-1.19,21.02,4.16,31.91,9.28c5.67,2.66,11.2,5.32,16.68,8.37
			c4.68,2.6,10.62,4.12,14.86,7.31c4.64,3.49,15.09,11.09,17.43,16.64c2.57,6.11,0.36,15.27-4.29,19.73
			c-7.24,6.95-16.42,13.53-24.7,19.18c-18.26,12.46-40.15,20.01-60.23,29.28c-6.99,3.23-13.78,4.62-20.76,7.32
			c-7.68,2.98-18.29,1.59-22.38-5.86c-4.14-7.54-10.48-13.6-14.25-21.18c-2.19-4.39-4.96-7.75-7.54-11.9
			c-3.16-5.08-5.33-11.19-7.82-16.62c-3.89-8.5-10.19-18.74-8.27-28.58c0.84-4.32,4.36-12.98,6.72-16.87
			c2.48-4.08,6.68-6.92,9.34-10.85c6.23-9.19,8.7-20.15,15.68-28.97c7.83-9.88,16.42-16.89,26.05-24.65
			c4.26-3.44,7.38-7.87,12.29-10.84c10.66-6.44,22.68-9.47,34.81-11.73c15.07-2.81,28.51-5.27,43.8-4.12
			c8.27,0.62,19.72-0.83,27.67,2.01c2.3,0.82,4.4-0.44,4.76,3.11c0.16,1.61-3.28,4.64-4.2,5.69c-4.27,4.88-9.08,8.85-14.13,12.86
			c-4.95,3.92-9.94,7.92-14.79,11.95c-4.1,3.4-6.65,7.66-10.29,11.53c-4.92,5.24-8.13,10.53-12.05,16.46
			c-2.78,4.2-4.52,9.15-7.63,13.13c-6.59,8.45-16.34,14.9-23.85,22.49c-3.11,3.14-5.95,7.83-9.82,10.04
			c-4.55,2.59-9.69,0.73-14.76,0.93c-5.36,0.21-10.66,1.53-16.02,1.58c-4.17,0.04-8.15-0.62-12.31-0.41
			c-5.22,0.26-11.8,2.13-16.94,1.1c-4.32-0.87-7.41-4.39-11.62-5.69c-4.66-1.44-9.58-2.42-14.3-3.67c-5.15-1.37-8.25-1.7-12.97-4.22
			c-4.77-2.55-9.76-2.92-14.86-4.57c-6.48-2.1-12.1-6.15-18.53-8.34c-3.87-1.32-7.66-1.45-11.58-2.46
			c-4.17-1.07-7.65-3.14-11.56-4.87c-9.9-4.4-22.98-8.32-33.85-6.29c-10.08,1.88-19.56,4.93-29.04,8.42
			c-10.95,4.04-22.62,6.25-33.52,10.69c-12.98,5.28-28.36,7.6-42.31,7.2c-7.17-0.2-12.32-0.11-18.07-4.58
			c-3.87-3.01-9.25-5.67-10.14-10.82c-1.37-7.94,8.14-14.28,14.77-16.09c16.2-4.41,37.6,7.1,51.29,15.11
			c7.92,4.64,15.97,7.47,24.21,11.52c14.37,7.06,27.54,16.31,41.87,23.38c16.51,8.15,33.45,11.07,51.48,7.93
			c12.92-2.26,28.59-5.3,39.89-12.51c9.75-6.22,9.16-14.77,5.23-24.24c-7.98-19.24-11.89-40-22.36-58.27
			c-5.36-9.36-10.55-18.84-17.39-27.15c-6.94-8.43-15.15-15.3-23.59-22.15c-5.16-4.18-11.3-5.43-17.24-8.19
			c-4.74-2.2-9.55-4.57-13.98-7.36c-8.93-5.61-15.61-12.8-21.49-21.53c-4.37-6.49-11.01-13.74-12.03-21.69
			c-1.28-10,6.33-20.18,12.06-27.51c5.37-6.87,11-8.92,19.41-11.44c6.36-1.9,13.34-4.59,20.02-4.84c4.65-0.18,9.93,1.26,14.43,1.61
			c7.06,0.55,13.96,0.41,20.98,1.81c8.13,1.63,17.98,4.65,26.22,2.61c3.83-0.95,7.46-3.54,11.22-4.66
			c4.05-1.21,8.83-1.43,13.01-1.82c9.81-0.91,18.36-3.77,22.47,7c5.56,14.58-4.05,29.76-11.71,41.6
			c-8.14,12.59-13.72,26.87-26.24,35.6c-8.1,5.65-16.06,11.51-23.16,18.47c-9.98,9.79-20.35,16.77-34.62,11.77
			c-16.91-5.92-28.94-16.52-42.71-27.05c-8.98-6.88-15.33-19.93-17.45-31.02c-1.11-5.81-2.2-13.22-1.09-19.21
			c1.52-8.21,5.34-15.33,6.44-23.86c1.45-11.33,0.43-23.93-3.45-34.8c-1.39-3.89-3.94-7.34-5.49-11.15
			c-3.48-8.52-3.67-23.93,0.35-32.41c4.45-9.4,11.83-19.47,19.8-25.93c11.24-9.13,21.91-19.73,33.92-27.76
			c21.81-14.6,44.68-22.74,71.13-22.53c5.1,0.04,15.86-3.22,20.3-0.32c4.27,2.78-0.29,5.83-2.4,9.94
			c-4.67,9.06-9.28,18.74-11.92,28.59c-2.43,9.05-3.65,18.38-6.1,27.46c-6.49,24-15.7,48.71-35.87,64.59
			c-9.15,7.2-20.21,12.85-30.7,17.81c-11.46,5.43-21.68,8.79-33.74,4.09c-9.62-3.75-16.95-11.18-25.74-16.43
			c-8.82-5.27-16.95-7.39-26.8-9.64c-16.37-3.74-32.33-2.31-48.91-0.76c-8.35,0.78-16.74,4.22-25.02,4.52
			c-9.02,0.32-18.32-2.02-26.94-4.48c-23.54-6.7-37.8-29.56-57.95-41.91c-7.9-4.84-16.23-8.18-24.88-11.43
			c-8.05-3.03-15.55-6.1-24.16-3.48c-3.66,1.11-7.85,2.89-9.29,6.76c-3,8.05,6.19,9.8,12.32,10.83
			c27.99,4.69,51.03-20.37,73.84-32.28c16.98-8.87,33.62-14.35,52.75-8.93c14.71,4.17,26.68,18.53,39.08,26.84
			c14.29,9.58,25.27,21.94,38.14,33.09c10.21,8.85,21.03,19.04,33.32,24.73c3.81-4.26-5.82-11.82-8.22-14.8
			c-8.28-10.33-15.35-21.76-21.76-33.34c-9.19-16.59-14.4-35.47-22.34-52.8c-2.64-5.76-6.21-11.66-8.32-17.6
			c-2.52-7.09,2.97-10.24,9.14-13.26c5.71-2.8,10.38-5.66,15.81-8.97c10.86-6.62,25.46-9.76,37.64-12.6
			c8.85-2.06,18.19-2.55,26.62-6.35c9.64-4.35,18.18-17.65,24.58-25.84c7.08-9.06,13.67-18.8,20.3-28.24
			c3.98-5.67,8.41-11.23,10.89-17.78c3.17-8.36,6.47-18.11,0.12-25.86c-6.11-7.46-15.16-4.06-22.95-1.95
			c-4.48,1.21-9.6,1.97-13.7,4.33c-7.73,4.45-11.28,13.47-16.76,20.09c-14.52,17.54-31.35,32.58-45.05,50.92
			c-12.28,16.43-20.1,36.92-35.18,50.89c-4.26,3.95-4.72,6.64-10.08,2.25c-8.29-6.8-10.41-16.09-16.39-24.38
			c-15.8-21.89-50.96-13.74-73.82-11.97c-20.21,1.57-39.22-0.82-59.25-2.61c-22.59-2.03-46.22-3.22-68.9-1.93
			c-6.4,0.36-11.95,0.92-16.81,5.6c-2.97,2.86-6.5,8.37-5.32,12.79c1.55,5.81,12.28,8.38,16.97,9.94
			c8.78,2.92,18.15,2.89,27.14,4.67c16.8,3.33,31.56,11.03,47.58,16.45c19.84,6.71,42.23,1.38,62.34-1.58
			c7.56-1.11,15.13-2.32,22.72-3.18c6.09-0.69,16.4-0.27,22.73-3.05c6.98-3.06,10.77-14.6,14.06-20.85
			c4.62-8.78,11.22-16.86,13.63-26.55c2.64-10.66-3.21-19.2-7.57-28.72c-7.48-16.35-8.98-26.18-3.91-44.04
			c5.16-18.15,8.44-37.38,20.01-52.74c7.65-10.15,18.34-27.3,32.07-28.01c13.89-0.72,15.81,9.05,17.98,20.27
			c3.13,16.22,4.95,28.1-0.26,44.47c-7.85,24.67-25.11,43.57-37.08,66.09c-5.32,10-10.09,19.91-17.43,28.65"/>
		<path class="st0" d="M4191.24,1310.3c2.18-6.86,5.23-13.05,7.8-19.59c1.02-2.61,1.05-5.4,1.69-8.1c1.06-4.45,4.2-5.33,5.96-9.41
			c4.63-10.74,4.41-25.07,7.02-36.51c2.32-10.16,12.91-15.45,18.89-23.48c5.28-7.09,11.14-14.24,16.98-20.86
			c5.55-6.29,15.48-7.89,23.59-8.09c12.75-0.32,25.34-3.83,38.07-4.45c7.59-0.37,13.46,2.9,19.74,6.52
			c10.67,6.15,14.69,15.6,20.59,26.09c3.07,5.46,6.02,10.83,8.72,16.5c2.3,4.84,6.26,9.52,7.85,14.58
			c1.75,5.53,5.84,17.8,4.52,23.67c-1.45,6.46-8.57,12.64-14.95,13.57c-9.93,1.45-21.22,1.48-31.24,1.27
			c-22.1-0.46-44.31-7.02-66.04-11.14c-7.56-1.43-13.9-4.24-21.15-6.09c-7.98-2.04-15.81-9.33-14.82-17.76
			c1-8.54-0.63-17.16,0.7-25.52c0.77-4.84,0.47-9.19,0.77-14.07c0.38-5.97,2.16-12.21,3.29-18.07c1.77-9.18,2.59-21.18,9.87-28.07
			c3.2-3.03,11.09-8.04,15.27-9.83c4.39-1.88,9.45-1.75,13.9-3.41c10.4-3.86,18.79-11.35,29.59-14.47
			c12.11-3.5,23.17-4.21,35.52-4.94c5.47-0.32,10.58-2.12,16.3-1.69c12.42,0.95,23.96,5.47,35.15,10.67
			c13.9,6.47,26.27,12.26,38.05,22.08c6.37,5.31,16.53,10.78,21.36,17.7c1.4,2,3.84,2.19,2.06,5.3c-0.8,1.4-5.37,1.87-6.72,2.19
			c-6.32,1.49-12.53,1.93-18.97,2.26c-6.31,0.32-12.69,0.68-18.98,1.14c-5.32,0.39-9.86,2.37-15.08,3.41
			c-7.04,1.41-12.73,3.85-19.37,6.4c-4.7,1.8-8.99,4.82-13.83,6.26c-10.27,3.05-21.95,2.65-32.48,4.46
			c-4.35,0.75-9.39,2.92-13.83,2.47c-5.21-0.53-8.31-5.03-12.56-7.81c-4.49-2.94-9.57-4.95-13.96-8.02
			c-3.42-2.39-6.27-5.24-9.78-7.49c-4.41-2.82-10.84-5.12-14.43-8.95c-3.01-3.22-3.48-7.88-6.16-11.38
			c-2.96-3.88-6.4-7.54-9.51-11.3c-3.4-4.1-5.73-6.18-8.11-10.97c-2.4-4.84-6.25-8.04-9.44-12.35c-4.06-5.47-6.27-12.03-10.24-17.55
			c-2.39-3.32-5.39-5.63-8-8.73c-2.77-3.29-4.41-7-6.58-10.68c-5.51-9.33-13.88-20.12-23.9-24.78c-9.3-4.32-18.79-7.35-28.53-10.01
			c-11.26-3.07-22.05-8.05-33.5-10.77c-13.63-3.24-27.5-10.29-38.63-18.72c-5.72-4.33-9.96-7.24-12.05-14.22
			c-1.41-4.7-4.24-9.99-1.97-14.7c3.49-7.26,14.92-6.9,21.37-4.52c15.75,5.82,26.48,27.61,32.98,42.09
			c3.76,8.38,8.66,15.35,13.02,23.44c7.59,14.09,12.95,29.27,20.51,43.35c8.71,16.22,20.8,28.44,37.31,36.35
			c11.83,5.67,26.35,12.29,39.74,12.98c11.55,0.6,16.03-6.7,18.34-16.7c4.68-20.3,13.55-39.47,15.64-60.42
			c1.07-10.73,2.36-21.47,1.61-32.2c-0.76-10.89-3.44-21.25-6.34-31.74c-1.77-6.4-6.04-10.98-9.27-16.68
			c-2.58-4.54-5.12-9.27-7.11-14.11c-4.01-9.75-5.27-19.48-4.99-30.01c0.21-7.82-0.99-17.58,2.8-24.65
			c4.77-8.89,16.88-12.75,25.79-15.39c8.36-2.48,14.13-0.87,22.44,1.96c6.29,2.15,13.53,4.01,19.11,7.68
			c3.89,2.56,7.35,6.79,10.81,9.69c5.43,4.55,11.13,8.44,16.03,13.66c5.67,6.05,11.94,14.23,19.83,17.35
			c3.67,1.45,8.12,1.45,11.84,2.73c4,1.37,8.02,3.96,11.64,6.08c8.51,4.96,17.13,7.6,14.22,18.75c-3.94,15.1-20.58,21.87-33.7,27.06
			c-13.94,5.52-26.77,13.91-42.04,13.75c-9.87-0.11-19.76,0.04-29.58,1.59c-13.8,2.17-26.31,1.83-35.02-10.52
			c-10.33-14.64-13.96-30.25-19.05-46.83c-3.32-10.82-0.91-25.13,3.81-35.39c2.47-5.37,5.89-12.04,10.27-16.27
			c6.01-5.8,13.25-9.37,19.1-15.69c7.77-8.38,14.25-19.23,17.4-30.33c1.13-3.98,1.06-8.26,2-12.26c2.11-8.96,10.91-21.61,19.1-26.18
			c9.08-5.06,20.94-8.98,31.18-9.61c14.45-0.9,29.29-3.34,43.74-2.9c26.23,0.79,49.58,7.43,70.99,22.97
			c4.13,3,14.78,6.59,16.72,11.53c1.86,4.75-3.62,4.58-7.73,6.7c-9.06,4.67-18.44,9.87-26.31,16.35
			c-7.23,5.95-13.64,12.84-20.91,18.81c-19.22,15.77-41.07,30.53-66.71,31.75c-11.63,0.55-23.92-1.28-35.34-3.33
			c-12.48-2.23-22.76-5.44-29.84-16.27c-5.65-8.64-7.3-18.94-11.41-28.32c-4.12-9.41-9.5-15.86-16.22-23.42
			c-11.15-12.55-24.98-20.66-39.37-29.03c-7.25-4.22-16.08-6.28-22.99-10.85c-7.53-4.98-13.74-12.29-19.33-19.29
			c-15.27-19.12-13.6-46.02-22.83-67.77c-3.62-8.53-8.46-16.08-13.61-23.76c-4.79-7.14-9.11-14-17.65-16.87
			c-3.62-1.22-8.07-2.21-11.49,0.11c-7.12,4.82-0.66,11.57,3.74,15.97c20.06,20.07,53.37,13.05,78.86,16.6
			c18.97,2.64,35.7,7.84,48.13,23.36c9.55,11.94,10.95,30.58,16.22,44.54c6.07,16.1,7.83,32.54,11.83,49.09
			c3.17,13.14,6.07,27.71,12.76,39.48c5.57-1.26,2.12-13,1.91-16.82c-0.75-13.22,0.15-26.63,1.65-39.78
			c2.15-18.84,8.88-37.23,12.47-55.96c1.19-6.22,1.72-13.09,3.44-19.16c2.06-7.24,8.36-6.61,15.14-5.49
			c6.27,1.04,11.74,1.42,18.08,1.88c12.69,0.92,26.39,6.84,37.96,11.61c8.4,3.46,16.29,8.49,25.36,10.3
			c10.37,2.06,25.05-3.81,35.01-6.76c11.03-3.26,22.05-7.37,32.92-11.2c6.53-2.3,13.36-4.26,19.2-8.15
			c7.44-4.97,15.78-10.99,15.12-20.98c-0.64-9.63-9.99-12.11-17.55-14.92c-4.35-1.61-8.95-3.97-13.67-4.43
			c-8.87-0.87-17,4.41-25.31,6.62c-22.01,5.85-44.44,8.31-66.25,15.28c-19.54,6.24-37.81,18.38-58.19,21
			c-5.76,0.74-7.7,2.67-9.51-4.03c-2.8-10.35,0.87-19.14,0.81-29.37c-0.15-27-33.51-40.78-53.14-52.61
			c-17.36-10.46-31.45-23.44-46.72-36.54c-17.21-14.77-35.75-29.47-54.96-41.59c-5.42-3.42-10.27-6.19-16.94-5.2
			c-4.08,0.61-10.15,3.04-11.76,7.32c-2.11,5.63,5.13,13.96,8.04,17.95c5.45,7.47,13.1,12.9,19.38,19.56
			c11.75,12.47,19.29,27.3,29.18,41.02c12.25,16.99,33.57,25.65,51.67,34.92c6.8,3.48,13.67,6.9,20.35,10.61
			c5.36,2.97,13.5,9.31,20.27,10.72c7.46,1.56,17.25-5.63,23.55-8.81c8.86-4.47,18.93-7.21,26.51-13.7
			c8.34-7.14,8.54-17.5,10.52-27.77c3.4-17.66,7.9-26.53,22.4-38.12c14.75-11.78,28.58-25.52,46.92-31.31
			c12.12-3.82,30.79-11.58,42.37-4.18c11.73,7.48,7.62,16.55,2.86,26.95c-6.87,15.03-12.29,25.75-26.04,36.05
			c-20.72,15.52-45.75,20.89-68.57,32.26c-10.14,5.05-19.77,10.35-30.82,13.2"/>
		<path class="st0" d="M3181.03,1473.45c-1.52-7.03-3.97-13.48-5.91-20.24c-0.77-2.69-0.53-5.47-0.92-8.23
			c-0.64-4.53-3.68-5.7-5.05-9.93c-3.6-11.13-2.02-25.38-3.54-37.01c-1.35-10.33-11.39-16.6-16.58-25.16
			c-4.58-7.55-9.75-15.23-14.93-22.37c-4.93-6.79-14.66-9.32-22.72-10.28c-12.66-1.52-24.86-6.21-37.48-8.02
			c-7.52-1.08-13.68,1.62-20.27,4.63c-11.2,5.12-16.1,14.14-22.96,24.03c-3.57,5.14-7.02,10.21-10.23,15.6
			c-2.74,4.6-7.13,8.89-9.2,13.78c-2.26,5.34-7.5,17.17-6.74,23.13c0.84,6.57,7.34,13.39,13.6,14.93
			c9.75,2.39,20.99,3.48,30.98,4.21c22.05,1.62,44.77-2.81,66.79-4.85c7.67-0.71,14.24-2.91,21.63-4.07
			c8.14-1.28,16.62-7.79,16.43-16.28c-0.19-8.6,2.25-17.02,1.71-25.47c-0.31-4.89,0.4-9.19,0.56-14.08c0.19-5.98-1-12.36-1.57-18.3
			c-0.9-9.31-0.58-21.33-7.17-28.88c-2.9-3.32-10.28-9.05-14.27-11.23c-4.19-2.29-9.25-2.64-13.52-4.7
			c-9.99-4.83-17.64-13.08-28.09-17.2c-11.73-4.63-22.67-6.38-34.9-8.28c-5.42-0.84-10.33-3.11-16.07-3.22
			c-12.45-0.22-24.37,3.18-36,7.3c-14.45,5.13-27.31,9.73-39.96,18.39c-6.84,4.68-17.47,9.17-22.93,15.61
			c-1.58,1.86-4.03,1.82-2.56,5.08c0.67,1.47,5.17,2.37,6.49,2.81c6.15,2.08,12.29,3.11,18.67,4.04c6.25,0.91,12.57,1.87,18.79,2.93
			c5.26,0.89,9.59,3.29,14.69,4.82c6.88,2.06,12.31,5.04,18.68,8.2c4.51,2.24,8.5,5.65,13.18,7.54c9.94,4.01,21.61,4.71,31.91,7.51
			c4.26,1.16,9.07,3.8,13.53,3.77c5.23-0.04,8.75-4.22,13.24-6.59c4.75-2.5,9.99-4.03,14.66-6.66c3.63-2.05,6.74-4.63,10.45-6.53
			c4.65-2.39,11.28-4.07,15.21-7.54c3.3-2.92,4.21-7.51,7.21-10.75c3.31-3.58,7.08-6.9,10.53-10.35c3.77-3.76,6.29-5.61,9.1-10.15
			c2.84-4.6,6.98-7.42,10.57-11.4c4.56-5.06,7.38-11.38,11.86-16.51c2.69-3.08,5.9-5.1,8.79-7.93c3.07-3.02,5.05-6.56,7.56-10.01
			c6.37-8.77,15.72-18.72,26.14-22.41c9.67-3.42,19.4-5.54,29.35-7.27c11.5-2,22.71-5.93,34.36-7.56
			c13.88-1.94,28.35-7.64,40.22-14.98c6.1-3.77,10.6-6.27,13.34-13.02c1.84-4.54,5.17-9.54,3.35-14.45
			c-2.79-7.56-14.21-8.28-20.84-6.52c-16.23,4.3-28.97,24.99-36.81,38.79c-4.53,7.98-10.07,14.47-15.17,22.11
			c-8.89,13.31-15.65,27.92-24.51,41.22c-10.2,15.33-23.39,26.35-40.57,32.66c-12.31,4.53-27.39,9.74-40.79,9.17
			c-11.55-0.49-15.33-8.18-16.68-18.36c-2.74-20.65-9.76-40.58-9.86-61.63c-0.05-10.78-0.32-21.59,1.44-32.21
			c1.78-10.77,5.43-20.83,9.31-30.99c2.37-6.2,7.05-10.36,10.81-15.73c2.99-4.28,5.97-8.75,8.41-13.37c4.92-9.33,7.09-18.9,7.8-29.4
			c0.53-7.8,2.64-17.41-0.46-24.8c-3.91-9.3-15.6-14.29-24.22-17.76c-8.09-3.25-13.99-2.21-22.53-0.17
			c-6.46,1.54-13.85,2.71-19.75,5.84c-4.11,2.18-7.96,6.07-11.68,8.63c-5.83,4.02-11.88,7.35-17.24,12.08
			c-6.22,5.48-13.23,13.04-21.38,15.4c-3.79,1.1-8.23,0.68-12.05,1.6c-4.11,0.99-8.36,3.19-12.17,4.95
			c-8.94,4.13-17.77,5.95-15.93,17.32c2.5,15.4,18.43,23.72,30.99,30.12c13.35,6.81,25.34,16.38,40.55,17.65
			c9.84,0.83,19.67,1.91,29.29,4.37c13.54,3.47,26.02,4.3,35.86-7.17c11.67-13.6,16.76-28.8,23.39-44.82
			c4.33-10.45,3.28-24.93-0.45-35.59c-1.95-5.58-4.72-12.54-8.69-17.17c-5.43-6.34-12.31-10.58-17.53-17.42
			c-6.94-9.08-12.37-20.49-14.46-31.84c-0.75-4.07-0.28-8.33-0.84-12.4c-1.25-9.12-8.82-22.54-16.55-27.87
			c-8.56-5.9-20-10.91-30.13-12.52c-14.3-2.26-28.85-6.09-43.27-7.02c-26.19-1.69-50.06,2.72-72.84,16.16
			c-4.4,2.59-15.34,5.17-17.73,9.9c-2.3,4.55,3.17,4.9,7.06,7.4c8.58,5.5,17.42,11.57,24.65,18.77c6.63,6.61,12.37,14.07,19.04,20.7
			c17.64,17.51,38,34.28,63.42,37.91c11.53,1.65,23.93,0.98,35.49,0.03c12.64-1.04,23.17-3.26,31.25-13.38
			c6.44-8.07,9.06-18.17,14.03-27.11c4.99-8.98,10.96-14.89,18.36-21.78c12.29-11.44,26.82-18.21,41.94-25.18
			c7.62-3.51,16.6-4.73,23.91-8.63c7.97-4.24,14.84-10.93,21.07-17.38c17.01-17.59,17.89-44.53,29.13-65.31
			c4.41-8.15,9.94-15.21,15.8-22.36c5.45-6.66,10.4-13.07,19.16-15.13c3.72-0.87,8.24-1.44,11.43,1.19
			c6.63,5.47-0.44,11.58-5.23,15.55c-21.87,18.09-54.37,7.95-80.07,9.08c-19.14,0.84-36.29,4.43-50.12,18.71
			c-10.64,10.98-13.79,29.41-20.36,42.81c-7.57,15.45-10.87,31.65-16.42,47.75c-4.4,12.78-8.66,27.02-16.44,38.1
			c-5.43-1.78-0.89-13.15-0.31-16.93c1.99-13.09,2.37-26.53,2.12-39.76c-0.36-18.96-5.32-37.91-7.13-56.88
			c-0.6-6.31-0.47-13.2-1.62-19.4c-1.37-7.4-7.7-7.37-14.55-6.89c-6.34,0.44-11.82,0.31-18.18,0.16
			c-12.71-0.29-26.92,4.31-38.89,7.97c-8.69,2.65-17.02,6.92-26.22,7.85c-10.52,1.07-24.58-6.16-34.22-10.03
			c-10.67-4.29-21.25-9.42-31.72-14.26c-6.29-2.91-12.9-5.5-18.34-9.93c-6.94-5.65-14.67-12.43-13.07-22.31
			c1.55-9.52,11.09-11.11,18.88-13.19c4.48-1.2,9.29-3.11,14.03-3.12c8.91-0.02,16.51,6,24.57,8.98
			c21.36,7.9,43.45,12.47,64.51,21.47c18.86,8.06,35.9,21.87,55.95,26.4c5.66,1.28,7.41,3.38,9.85-3.11
			c3.77-10.04,0.94-19.14,1.96-29.31c2.7-26.86,37.21-37.43,57.88-47.36c18.27-8.77,33.53-20.37,49.96-31.96
			c18.53-13.08,38.38-25.96,58.65-36.21c5.72-2.89,10.8-5.19,17.35-3.58c4,0.99,9.82,3.99,11.02,8.4c1.57,5.8-6.43,13.41-9.7,17.11
			c-6.13,6.92-14.25,11.6-21.14,17.65c-12.87,11.3-21.78,25.36-32.93,38.08c-13.8,15.75-35.85,22.36-54.73,29.89
			c-7.1,2.83-14.26,5.58-21.26,8.64c-5.62,2.45-14.32,7.99-21.2,8.76c-7.57,0.85-16.64-7.23-22.62-10.99
			c-8.4-5.29-18.17-8.97-25.1-16.14c-7.63-7.9-6.85-18.22-7.85-28.64c-1.72-17.9-5.35-27.16-18.7-40.06
			c-13.57-13.12-26.04-28.11-43.75-35.6c-11.71-4.95-29.55-14.43-41.79-8.16c-12.38,6.34-9.15,15.75-5.4,26.56
			c5.42,15.61,9.8,26.8,22.52,38.35c19.16,17.41,43.57,25.11,65.21,38.59c9.61,5.99,18.71,12.17,29.44,16.05"/>
		<path class="st0" d="M3626.22,1310.02c0-24.66-1.48-49.82-0.13-74.44c0.6-10.91,6-21.27,7.41-32.14
			c1.42-10.95-1.72-22.63-0.32-33.6c0.67-5.19,3.3-9.7,3.88-15c0.64-5.86,0.17-10.93,1.54-16.79c2.93-12.51,8.74-25.49,8.98-38.25
			c0.58-30.11-0.08-60.32-0.08-90.44c0-28.6,0-57.19,0-85.79c0-13.32,1.15-27.23,0.16-40.5c-0.93-12.42-13.17-23.99-21.18-33.23
			c-20.18-23.27-61.42-40.31-91.8-33.91c-18.76,3.95-35.58,12.38-49.33,25.16c-6.2,5.76-14.22,8.01-20.59,13.37
			c-7.61,6.4-14.41,15.58-20.95,23.05c-6.75,7.7-10.82,14.73-13.53,24.49c-2.43,8.73-11.5,29.91-4.42,37.33
			c6.45,6.77,29.97-5.6,37.5-7.14c9.37-1.91,18.72-1.96,28.26-1.72c8.49,0.22,15.34,2.81,23.59,3.8
			c15.28,1.82,35.39,1.54,50.63-0.49c16.99-2.27,31.24-6.94,42.91-20.11c10.04-11.33,17.36-24.7,17.59-39.85
			c0.13-8.45,0.81-13.16-7.36-17.64c-5.8-3.19-12.88-3.57-19.27-3.69c-25.68-0.5-68.1-8.55-84.82,15.97
			c-23.26,34.1,49.88,26.49,65.92,26.62c18.2,0.15,23.89-2.51,34.58-16.75c10.49-13.96,25.74-24.48,43.35-25.88
			c10.66-0.85,20.93-2.21,31.22-5.24c6.61-1.94,12.57-4.92,19.51-5.49c18.2-1.49,33.81,6.46,51.35,5.38
			c49.5-3.03,68.07-43.12,94.01-78.49c4.74-6.46,12.46-16.62,21.28-13.35c6.38,2.36,9.45,10.27,10.94,16.32
			c3.97,16.11,1.62,34.81,1.61,51.34c0,12.05,1.41,24.69-0.01,36.64c-1.52,12.77-8.97,22.32-16.38,32.45
			c-7.83,10.71-13.29,20.81-25.92,26.12c-15.16,6.37-33.94,7.13-50.24,8.64c-24,2.23-50.95-5.92-72.59-15.69
			c-11.15-5.03-21.55-10.48-31.6-17.46c-5.84-4.06-16.89-8.84-17.89-16.52c10.47-8.7,28.66-1.36,39.95,1.24
			c15.52,3.57,34.68,8.87,50.34,9.52c18.11,0.75,37.81-5.49,53.66-13.55c13.84-7.03,36.25-16.25,37.31-35.25
			c-10.41-1.43-25.4,10.45-35.49,15.12c-11.43,5.28-22.6,10-34.7,13.5c-12.48,3.61-22.81,2.79-35.56,0.09
			c-11.49-2.43-23.62-5.33-34.68-8.84c-5.96-1.89-11.14-5.49-17.56-7.21c-5.64-1.5-11.23-3.48-16.4-6.2
			c-6.59-3.46-17.18-8.82-22.86-13.93c-7.02-6.3-7.74-16.48-10.6-24.81c-4.59-13.39-3.51-26.53-3.52-40.61
			c-0.01-18.99-2.12-39.21,0.8-57.91c1.49-9.53,2.62-20.63,6.15-29.69c1.73-4.45,5.21-8.54,6.54-13.07
			c1.98-6.74,1.8-12.55,4.23-19.48c4.26-12.1,2.55-23.42,10.57-34.04c5.26-6.97,12.75-14.62,20.48-18.62
			c7.38-3.82,14.85-3.88,22.16-8.43c10.02-6.24,18.77-12.02,29.33-16.92c9.13-4.23,12.71-12.37,20.96-17.27
			c11.43-6.79,25.21,0.78,35.09,8.05c10.08,7.42,16.24,19.03,24.43,28.3c5.06,5.73,9.37,10.14,16.17,13.9
			c6.03,3.34,11.49,4.97,15.32,10.98c5.75,9.04,5.91,23-1.38,30.83c-11.9,12.78-32.38,2.91-47.21,3.58
			c-16.79,0.76-28.31,12.56-43.34,18.7c-13.1,5.35-32.17,4.63-46.31,2.35c-19.05-3.06-31.39-9.62-34.66-30.66
			c-1.8-11.59,1.65-20.66,7.17-30.61c6.28-11.3,9.57-20.3,7.73-33.37c-2.51-17.79-12.53-9.2-18.86,2.97
			c-7.25,13.91-14.93,25.36-27.08,35.84c-13.84,11.94-32.02,14.4-49.19,19.37c-19.67,5.69-39.17,8.63-59.71,6.66
			c-24.28-2.33-33.13-17.53-38.73-38.84c-3.79-14.41-6.61-24.53-14.75-37.9c-7.08-11.62-11.93-19.94-15.67-33.76
			c-1.94-7.16-7.49-27.81-6.45-36.91c2.1-18.47,28.16-21.24,41.97-21.08c22.99,0.27,39.66,11.29,60.75,18.35
			c17.95,6,37.15,5.49,54.85,11c11.38,3.54,21.23,12.65,29.5,20.76c13.63,13.37,7.37,21.82-9.33,28.25
			c-24.36,9.38-55.04,12.42-75.11,29.41c-1.67,22.46,51.93,2.89,61.58-1.27c9.38-4.04,19.33-12.18,26.18-20.04
			c13.97-16.03-13.85-32.58-25.99-39.69c-37.02-21.66-143.3-29.58-119.43-96.36c6.45-18.04,17.21-29.83,29.14-44.57
			c17.92-22.15,29.24-44.93,59.17-52.74c13.13-3.43,24.2-0.53,37.55,1.2c13.66,1.78,23.81-0.3,36.48-5.5
			c19.45-7.98,48.26-14.02,59.52,9.28c18.33,37.95-6.19,85.15-11.8,122.73c-2.33,15.58-5.18,30.94-8.02,46.43
			c-1,5.48-7.27,25.78-4.02,30.66c2.92,4.39,10.28,2.72,14.28-0.37c7.32-5.63,6.82-17.86,8.57-26.32
			c3.14-15.19,1.89-30.56,3.11-45.95c1.65-20.79,9.72-41.21,15.1-61.23c3.67-13.64,9.46-22.09,16.2-34.18
			c4.62-8.28,10.15-29.27,21.35-32.21c8.61-2.26,20.48,11.92,27.19,16.78c5.91,4.28,12.6,7.16,19.6,8.57
			c13.38,2.69,24.21,3.73,36.87,9.68c15.4,7.23,28.06,18.55,42.44,27.44c13.6,8.4,21.18,15.4,28.1,30.54
			c10.6,23.2,3.88,44.5-8.38,65.95c-17.27,30.22-49.16,38.19-81.08,40.48c-16.72,1.2-59.92,16.52-67.81-7.35
			c6.85-10.98,25.45-1.83,34.52,0.26c14.07,3.25,28.05,6.7,42.16,9.74c15.69,3.39,30.43,6.85,46.41,2.78
			c11.56-2.94,21.21-7.64,33.27-6.48c9.56,0.91,21.7,1.13,27.73,9.2c7.71,10.31,8.11,28.22,6.67,40.42
			c-1.55,13.16-5.16,30.94-15.58,40.08c-8.61,7.55-21.44,12.31-31.39,17.62c-9.72,5.19-18.59,11.31-30.07,10.37
			c-10.96-0.89-21.11-8.98-30.83-13.92c-11.11-5.64-22.81-8.65-33.95-13.95c-7.34-3.49-13.69-8.7-21.05-12.17
			c-6.68-3.15-15.81-4.24-20.97-10.1c-7.43-8.44-6.35-24.42-7.04-34.52c-0.83-12.21-5.27-21.7-12.36-31.73
			c-6-8.48-11.3-15.23-21.67-17.67c-8.44-1.98-17.12-2.44-25.6-4.57c-15.27-3.82-31.21-16.63-47.43-12.56
			c-24.37,6.12-20.98,28.05-5.15,40.64c10.42,8.28,22.72,13,34.43,19.07c7.42,3.85,14.3,7.74,21.46,1.39
			c14.56-12.92-5.9-24.83-18.5-23.01"/>
		<path class="st0" d="M4822.12,1118.83c0-16.94,1.02-34.22,0.09-51.14c-0.41-7.49-4.12-14.61-5.09-22.08
			c-0.97-7.53,1.18-15.55,0.22-23.08c-0.46-3.57-2.27-6.67-2.66-10.3c-0.44-4.03-0.12-7.51-1.06-11.53
			c-2.01-8.59-6-17.51-6.17-26.28c-0.4-20.69,0.06-41.44,0.06-62.13c0-19.64,0-39.29,0-58.93c0-9.15-0.79-18.71-0.11-27.83
			c0.64-8.53,9.05-16.48,14.55-22.83c13.86-15.99,42.2-27.69,63.07-23.3c12.89,2.71,24.44,8.51,33.89,17.29
			c4.26,3.96,9.77,5.5,14.15,9.19c5.23,4.4,9.9,10.7,14.4,15.84c4.64,5.29,7.43,10.12,9.29,16.82c1.67,6,7.9,20.55,3.04,25.65
			c-4.43,4.65-20.59-3.85-25.76-4.91c-6.43-1.32-12.86-1.35-19.42-1.18c-5.83,0.15-10.54,1.93-16.21,2.61
			c-10.5,1.25-24.31,1.06-34.79-0.34c-11.67-1.56-21.46-4.77-29.48-13.82c-6.89-7.78-11.92-16.97-12.09-27.37
			c-0.09-5.81-0.55-9.04,5.06-12.12c3.98-2.19,8.85-2.45,13.24-2.54c17.65-0.34,46.78-5.88,58.27,10.97
			c15.98,23.43-34.27,18.2-45.29,18.28c-12.5,0.1-16.41-1.73-23.76-11.51c-7.2-9.59-17.68-16.82-29.78-17.78
			c-7.33-0.58-14.38-1.52-21.45-3.6c-4.54-1.34-8.63-3.38-13.4-3.77c-12.5-1.02-23.23,4.44-35.28,3.7
			c-34-2.08-46.76-29.63-64.59-53.93c-3.26-4.44-8.56-11.42-14.62-9.17c-4.38,1.62-6.49,7.06-7.51,11.21
			c-2.72,11.07-1.11,23.91-1.11,35.27c0,8.28-0.97,16.96,0.01,25.17c1.04,8.78,6.16,15.34,11.25,22.29
			c5.38,7.36,9.13,14.3,17.81,17.94c10.41,4.38,23.31,4.9,34.51,5.94c16.49,1.53,35-4.07,49.87-10.78
			c7.66-3.46,14.81-7.2,21.71-11.99c4.01-2.79,11.6-6.07,12.29-11.35c-7.19-5.98-19.69-0.93-27.45,0.85
			c-10.66,2.45-23.83,6.09-34.59,6.54c-12.44,0.52-25.97-3.77-36.86-9.31c-9.51-4.83-24.91-11.16-25.64-24.22
			c7.15-0.98,17.45,7.18,24.38,10.38c7.85,3.63,15.52,6.87,23.84,9.27c8.58,2.48,15.67,1.92,24.43,0.06
			c7.89-1.67,16.22-3.66,23.82-6.07c4.1-1.3,7.65-3.77,12.06-4.95c3.87-1.03,7.71-2.39,11.26-4.26c4.53-2.38,11.8-6.06,15.7-9.57
			c4.82-4.33,5.32-11.32,7.28-17.05c3.16-9.2,2.41-18.23,2.42-27.9c0.01-13.04,1.45-26.94-0.55-39.78
			c-1.02-6.55-1.8-14.18-4.23-20.4c-1.19-3.05-3.58-5.87-4.5-8.98c-1.36-4.63-1.24-8.62-2.91-13.38
			c-2.92-8.31-1.75-16.09-7.26-23.39c-3.61-4.78-8.76-10.05-14.07-12.79c-5.07-2.63-10.2-2.67-15.22-5.79
			c-6.89-4.29-12.89-8.26-20.15-11.62c-6.27-2.91-8.73-8.5-14.4-11.86c-7.85-4.67-17.32,0.54-24.11,5.53
			c-6.93,5.1-11.15,13.07-16.78,19.44c-3.48,3.94-6.44,6.97-11.11,9.55c-4.14,2.29-7.9,3.41-10.52,7.54
			c-3.95,6.21-4.06,15.8,0.95,21.18c8.17,8.78,22.25,2,32.43,2.46c11.53,0.52,19.45,8.63,29.78,12.84c9,3.68,22.1,3.18,31.81,1.62
			c13.09-2.1,21.56-6.61,23.81-21.07c1.24-7.96-1.13-14.2-4.93-21.03c-4.32-7.76-6.58-13.94-5.31-22.93
			c1.73-12.22,8.61-6.32,12.96,2.04c4.98,9.56,10.26,17.42,18.6,24.63c9.51,8.21,22,9.89,33.8,13.31
			c13.51,3.91,26.91,5.93,41.02,4.57c16.68-1.6,22.76-12.04,26.61-26.69c2.6-9.9,4.54-16.85,10.13-26.04
			c4.86-7.99,8.2-13.7,10.76-23.19c1.33-4.92,5.14-19.1,4.43-25.36c-1.44-12.69-19.35-14.59-28.84-14.48
			c-15.8,0.18-27.24,7.76-41.73,12.61c-12.33,4.12-25.52,3.77-37.68,7.56c-7.81,2.43-14.59,8.69-20.27,14.26
			c-9.37,9.19-5.06,14.99,6.41,19.41c16.74,6.44,37.81,8.53,51.6,20.21c1.15,15.43-35.67,1.99-42.31-0.87
			c-6.45-2.78-13.28-8.37-17.99-13.76c-9.6-11.01,9.52-22.38,17.86-27.27c25.43-14.88,98.45-20.32,82.05-66.2
			c-4.43-12.39-11.83-20.49-20.02-30.62c-12.31-15.22-20.09-30.86-40.65-36.24c-9.02-2.36-16.62-0.37-25.79,0.83
			c-9.38,1.22-16.36-0.2-25.06-3.78c-13.36-5.48-33.15-9.63-40.89,6.37c-12.59,26.07,4.25,58.5,8.1,84.31
			c1.6,10.71,3.56,21.26,5.51,31.9c0.69,3.76,5,17.71,2.76,21.07c-2.01,3.01-7.06,1.87-9.81-0.25c-5.03-3.87-4.69-12.27-5.89-18.08
			c-2.15-10.44-1.3-20.99-2.14-31.57c-1.13-14.28-6.68-28.31-10.37-42.07c-2.52-9.37-6.5-15.17-11.13-23.48
			c-3.17-5.69-6.98-20.11-14.67-22.13c-5.92-1.55-14.07,8.19-18.68,11.53c-4.06,2.94-8.65,4.92-13.47,5.89
			c-9.19,1.85-16.63,2.56-25.33,6.65c-10.58,4.97-19.27,12.75-29.16,18.85c-9.34,5.77-14.55,10.58-19.3,20.98
			c-7.28,15.94-2.67,30.57,5.75,45.31c11.86,20.76,33.77,26.24,55.7,27.81c11.49,0.82,41.17,11.35,46.59-5.05
			c-4.71-7.54-17.48-1.26-23.72,0.18c-9.67,2.23-19.27,4.6-28.97,6.69c-10.78,2.33-20.91,4.7-31.88,1.91
			c-7.94-2.02-14.57-5.25-22.85-4.45c-6.57,0.63-14.91,0.78-19.05,6.32c-5.29,7.08-5.57,19.39-4.58,27.77
			c1.07,9.04,3.55,21.26,10.71,27.53c5.92,5.19,14.73,8.46,21.56,12.1c6.68,3.57,12.77,7.77,20.66,7.13
			c7.53-0.61,14.5-6.17,21.18-9.56c7.63-3.88,15.67-5.94,23.32-9.58c5.04-2.4,9.4-5.98,14.46-8.36c4.59-2.16,10.86-2.91,14.4-6.94
			c5.11-5.8,4.36-16.77,4.84-23.71c0.57-8.39,3.62-14.91,8.49-21.8c4.12-5.82,7.76-10.46,14.89-12.14
			c5.8-1.36,11.76-1.68,17.59-3.14c10.49-2.63,21.44-11.42,32.58-8.63c16.74,4.2,14.41,19.27,3.54,27.92
			c-7.16,5.69-15.61,8.93-23.65,13.1c-5.1,2.64-9.83,5.32-14.74,0.95c-10-8.87,4.06-17.06,12.71-15.81"/>
		<path class="st0" d="M5308.31,911.11c2.21-6.84,3.32-13.66,5.03-20.48c0.68-2.72,2.28-5,3.33-7.58c1.72-4.24-0.33-6.78,0.61-11.13
			c2.47-11.43,10.97-22.97,15.49-33.8c4.01-9.61-1.54-20.08-1.74-30.09c-0.18-8.83-0.8-18.06-1.71-26.84
			c-0.86-8.34-8.02-15.41-14.5-20.29c-10.19-7.66-18.4-17.84-28.41-25.73c-5.96-4.71-12.65-5.46-19.86-6.16
			c-12.26-1.19-21.02,4.16-31.91,9.28c-5.67,2.66-11.2,5.32-16.68,8.37c-4.68,2.6-10.62,4.12-14.86,7.31
			c-4.63,3.49-15.09,11.09-17.43,16.64c-2.57,6.11-0.36,15.27,4.29,19.73c7.24,6.95,16.42,13.53,24.7,19.18
			c18.26,12.46,40.15,20.01,60.23,29.28c6.99,3.23,13.78,4.62,20.76,7.32c7.68,2.98,18.29,1.59,22.38-5.86
			c4.14-7.54,10.48-13.6,14.25-21.18c2.19-4.39,4.96-7.75,7.54-11.9c3.16-5.08,5.33-11.19,7.82-16.62
			c3.89-8.5,10.19-18.74,8.27-28.58c-0.84-4.32-4.36-12.98-6.72-16.87c-2.48-4.08-6.68-6.92-9.34-10.85
			c-6.23-9.19-8.7-20.15-15.68-28.97c-7.83-9.88-16.42-16.89-26.05-24.65c-4.27-3.44-7.38-7.87-12.29-10.84
			c-10.66-6.44-22.68-9.47-34.81-11.73c-15.07-2.81-28.51-5.27-43.8-4.12c-8.27,0.62-19.72-0.83-27.67,2.01
			c-2.3,0.82-4.4-0.44-4.76,3.11c-0.16,1.61,3.28,4.64,4.2,5.69c4.27,4.88,9.08,8.85,14.13,12.86c4.95,3.92,9.94,7.92,14.79,11.95
			c4.1,3.4,6.65,7.66,10.29,11.53c4.92,5.24,8.13,10.53,12.05,16.46c2.78,4.2,4.52,9.15,7.63,13.13
			c6.59,8.45,16.34,14.9,23.85,22.49c3.11,3.14,5.95,7.83,9.82,10.04c4.55,2.59,9.69,0.73,14.76,0.93
			c5.36,0.21,10.67,1.53,16.02,1.58c4.17,0.04,8.15-0.62,12.31-0.41c5.22,0.26,11.8,2.13,16.94,1.1c4.32-0.87,7.41-4.39,11.62-5.69
			c4.66-1.44,9.58-2.42,14.3-3.67c5.15-1.37,8.25-1.7,12.97-4.22c4.77-2.55,9.76-2.92,14.86-4.57c6.48-2.1,12.1-6.15,18.53-8.34
			c3.87-1.32,7.66-1.45,11.58-2.46c4.17-1.07,7.65-3.14,11.56-4.87c9.9-4.4,22.98-8.32,33.85-6.29c10.08,1.88,19.56,4.93,29.04,8.42
			c10.95,4.04,22.62,6.25,33.52,10.69c12.98,5.28,28.36,7.6,42.31,7.2c7.17-0.2,12.32-0.11,18.07-4.58
			c3.87-3.01,9.25-5.67,10.14-10.82c1.37-7.94-8.14-14.28-14.77-16.09c-16.2-4.41-37.6,7.1-51.29,15.11
			c-7.92,4.64-15.97,7.47-24.21,11.52c-14.37,7.06-27.54,16.31-41.87,23.38c-16.51,8.15-33.45,11.07-51.48,7.93
			c-12.92-2.26-28.59-5.3-39.89-12.51c-9.75-6.22-9.16-14.77-5.23-24.24c7.98-19.24,11.89-40,22.36-58.27
			c5.36-9.36,10.55-18.84,17.39-27.15c6.94-8.43,15.15-15.3,23.6-22.15c5.15-4.18,11.3-5.43,17.24-8.19
			c4.74-2.2,9.55-4.57,13.98-7.36c8.93-5.61,15.61-12.8,21.49-21.53c4.37-6.49,11.01-13.74,12.03-21.69
			c1.28-10-6.33-20.18-12.06-27.51c-5.37-6.87-11-8.92-19.41-11.44c-6.36-1.9-13.34-4.59-20.02-4.84
			c-4.65-0.18-9.93,1.26-14.43,1.61c-7.06,0.55-13.96,0.41-20.98,1.81c-8.13,1.63-17.98,4.65-26.22,2.61
			c-3.83-0.95-7.46-3.54-11.22-4.66c-4.05-1.21-8.83-1.43-13.01-1.82c-9.81-0.91-18.36-3.77-22.47,7
			c-5.56,14.58,4.05,29.76,11.71,41.6c8.14,12.59,13.72,26.87,26.24,35.6c8.1,5.65,16.06,11.51,23.15,18.47
			c9.98,9.79,20.35,16.77,34.62,11.77c16.91-5.92,28.94-16.52,42.71-27.05c8.98-6.88,15.33-19.93,17.45-31.02
			c1.11-5.81,2.2-13.22,1.09-19.21c-1.52-8.21-5.34-15.33-6.44-23.86c-1.45-11.33-0.43-23.93,3.45-34.8
			c1.39-3.89,3.94-7.34,5.49-11.15c3.48-8.52,3.67-23.93-0.35-32.41c-4.45-9.4-11.83-19.47-19.8-25.93
			c-11.24-9.13-21.91-19.73-33.92-27.76c-21.81-14.6-44.68-22.74-71.13-22.53c-5.1,0.04-15.86-3.22-20.3-0.32
			c-4.27,2.78,0.29,5.83,2.4,9.94c4.67,9.06,9.28,18.74,11.92,28.59c2.43,9.05,3.65,18.38,6.1,27.46c6.49,24,15.7,48.71,35.87,64.59
			c9.15,7.2,20.21,12.85,30.7,17.81c11.46,5.43,21.68,8.79,33.74,4.09c9.62-3.75,16.95-11.18,25.74-16.43
			c8.82-5.27,16.95-7.39,26.8-9.64c16.37-3.74,32.33-2.31,48.91-0.76c8.35,0.78,16.74,4.22,25.02,4.52
			c9.02,0.32,18.32-2.02,26.94-4.48c23.54-6.7,37.8-29.56,57.95-41.91c7.9-4.84,16.23-8.18,24.88-11.43
			c8.05-3.03,15.55-6.1,24.16-3.48c3.66,1.11,7.85,2.89,9.29,6.76c3,8.05-6.19,9.8-12.32,10.83c-27.99,4.69-51.03-20.37-73.84-32.28
			c-16.98-8.87-33.62-14.35-52.75-8.93c-14.71,4.17-26.68,18.53-39.08,26.84c-14.29,9.58-25.27,21.94-38.14,33.09
			c-10.21,8.85-21.03,19.04-33.32,24.73c-3.81-4.26,5.82-11.82,8.22-14.8c8.28-10.33,15.35-21.76,21.76-33.34
			c9.19-16.59,14.4-35.47,22.34-52.8c2.64-5.76,6.21-11.66,8.32-17.6c2.52-7.09-2.97-10.24-9.14-13.26
			c-5.71-2.8-10.38-5.66-15.81-8.97c-10.86-6.62-25.46-9.76-37.64-12.6c-8.85-2.06-18.19-2.55-26.62-6.35
			c-9.64-4.35-18.18-17.65-24.58-25.84c-7.08-9.06-13.67-18.8-20.3-28.24c-3.98-5.67-8.41-11.23-10.89-17.78
			c-3.17-8.36-6.47-18.11-0.12-25.86c6.11-7.46,15.16-4.06,22.95-1.95c4.48,1.21,9.6,1.97,13.7,4.33
			c7.73,4.45,11.28,13.47,16.76,20.09c14.52,17.54,31.35,32.58,45.05,50.92c12.28,16.43,20.1,36.92,35.18,50.89
			c4.26,3.95,4.72,6.64,10.08,2.25c8.29-6.8,10.41-16.09,16.39-24.38c15.8-21.89,50.96-13.74,73.82-11.97
			c20.21,1.57,39.22-0.82,59.25-2.61c22.59-2.03,46.22-3.22,68.9-1.93c6.4,0.36,11.95,0.92,16.81,5.6c2.97,2.86,6.5,8.37,5.32,12.79
			c-1.55,5.81-12.28,8.38-16.97,9.94c-8.78,2.92-18.15,2.89-27.14,4.67c-16.8,3.33-31.56,11.03-47.58,16.45
			c-19.84,6.71-42.23,1.38-62.34-1.58c-7.56-1.11-15.13-2.32-22.72-3.18c-6.09-0.69-16.4-0.27-22.73-3.05
			c-6.98-3.06-10.77-14.6-14.06-20.85c-4.62-8.78-11.22-16.86-13.63-26.55c-2.64-10.66,3.21-19.2,7.57-28.72
			c7.48-16.35,8.98-26.18,3.91-44.04c-5.16-18.15-8.44-37.38-20.01-52.74c-7.65-10.15-18.34-27.3-32.07-28.01
			c-13.89-0.72-15.81,9.05-17.98,20.27c-3.13,16.22-4.95,28.1,0.26,44.47c7.85,24.67,25.11,43.57,37.08,66.09
			c5.32,10,10.09,19.91,17.43,28.65"/>
		<path class="st0" d="M5256.72,1522.41c1.52-7.03,3.97-13.48,5.91-20.24c0.77-2.69,0.53-5.47,0.92-8.23
			c0.64-4.53,3.68-5.7,5.05-9.93c3.6-11.13,2.02-25.38,3.54-37.01c1.35-10.33,11.39-16.6,16.58-25.16
			c4.58-7.55,9.75-15.23,14.93-22.37c4.93-6.79,14.66-9.32,22.72-10.28c12.66-1.52,24.86-6.21,37.48-8.02
			c7.52-1.08,13.68,1.62,20.27,4.63c11.2,5.12,16.1,14.14,22.96,24.03c3.57,5.14,7.02,10.21,10.23,15.6
			c2.74,4.6,7.13,8.89,9.2,13.78c2.26,5.34,7.5,17.17,6.74,23.13c-0.84,6.57-7.34,13.39-13.6,14.93
			c-9.75,2.39-20.99,3.48-30.98,4.21c-22.05,1.62-44.77-2.81-66.79-4.85c-7.67-0.71-14.24-2.91-21.63-4.07
			c-8.14-1.28-16.62-7.79-16.43-16.28c0.19-8.6-2.25-17.02-1.72-25.47c0.31-4.89-0.4-9.19-0.56-14.08c-0.19-5.98,1-12.36,1.57-18.3
			c0.9-9.31,0.58-21.33,7.17-28.88c2.9-3.31,10.28-9.05,14.27-11.23c4.19-2.29,9.25-2.64,13.52-4.7
			c9.99-4.83,17.64-13.08,28.09-17.2c11.73-4.63,22.67-6.38,34.9-8.28c5.42-0.84,10.33-3.11,16.07-3.22
			c12.45-0.22,24.37,3.18,36,7.3c14.45,5.13,27.31,9.73,39.96,18.39c6.84,4.68,17.47,9.17,22.93,15.61
			c1.58,1.86,4.03,1.82,2.56,5.08c-0.67,1.47-5.17,2.37-6.49,2.81c-6.15,2.08-12.29,3.11-18.67,4.04
			c-6.25,0.91-12.57,1.87-18.79,2.93c-5.26,0.89-9.6,3.29-14.69,4.82c-6.88,2.06-12.31,5.03-18.68,8.2
			c-4.51,2.24-8.5,5.65-13.18,7.54c-9.94,4.01-21.61,4.71-31.91,7.51c-4.26,1.16-9.07,3.8-13.53,3.77
			c-5.24-0.04-8.75-4.22-13.24-6.59c-4.75-2.5-9.99-4.03-14.66-6.66c-3.63-2.05-6.74-4.63-10.45-6.53
			c-4.65-2.39-11.28-4.07-15.21-7.54c-3.3-2.92-4.21-7.51-7.21-10.75c-3.31-3.58-7.08-6.9-10.53-10.35
			c-3.77-3.76-6.29-5.61-9.1-10.15c-2.84-4.6-6.98-7.42-10.57-11.4c-4.56-5.06-7.38-11.38-11.86-16.51c-2.69-3.08-5.9-5.1-8.79-7.93
			c-3.07-3.02-5.05-6.56-7.56-10.01c-6.37-8.77-15.72-18.72-26.14-22.41c-9.67-3.42-19.4-5.54-29.35-7.27
			c-11.5-2-22.71-5.93-34.36-7.56c-13.88-1.94-28.35-7.64-40.22-14.98c-6.1-3.77-10.6-6.27-13.34-13.02
			c-1.84-4.54-5.17-9.54-3.35-14.45c2.79-7.56,14.21-8.28,20.84-6.52c16.23,4.3,28.97,24.99,36.81,38.79
			c4.53,7.98,10.07,14.47,15.17,22.11c8.89,13.31,15.65,27.92,24.51,41.22c10.2,15.33,23.39,26.35,40.57,32.66
			c12.31,4.53,27.39,9.74,40.79,9.17c11.55-0.49,15.33-8.18,16.68-18.36c2.74-20.65,9.76-40.58,9.86-61.63
			c0.05-10.78,0.32-21.59-1.44-32.21c-1.78-10.77-5.43-20.83-9.31-30.99c-2.37-6.2-7.05-10.36-10.81-15.73
			c-2.99-4.28-5.97-8.75-8.41-13.37c-4.92-9.33-7.09-18.9-7.8-29.4c-0.53-7.8-2.64-17.41,0.46-24.8c3.91-9.3,15.6-14.29,24.22-17.76
			c8.09-3.25,13.99-2.21,22.53-0.17c6.46,1.54,13.85,2.71,19.75,5.84c4.11,2.18,7.96,6.07,11.68,8.63
			c5.83,4.02,11.88,7.35,17.24,12.08c6.22,5.48,13.23,13.04,21.38,15.4c3.79,1.1,8.23,0.68,12.05,1.6
			c4.11,0.99,8.36,3.19,12.17,4.95c8.94,4.13,17.77,5.95,15.93,17.32c-2.5,15.4-18.43,23.72-30.99,30.12
			c-13.35,6.81-25.34,16.38-40.55,17.65c-9.84,0.83-19.67,1.91-29.29,4.37c-13.54,3.47-26.02,4.3-35.86-7.17
			c-11.67-13.6-16.76-28.8-23.39-44.82c-4.33-10.45-3.28-24.93,0.45-35.59c1.95-5.58,4.72-12.54,8.69-17.17
			c5.43-6.34,12.31-10.58,17.53-17.42c6.94-9.08,12.37-20.49,14.46-31.84c0.75-4.07,0.28-8.33,0.84-12.4
			c1.25-9.12,8.82-22.54,16.55-27.87c8.56-5.9,20-10.91,30.13-12.52c14.3-2.26,28.85-6.09,43.27-7.02
			c26.19-1.69,50.06,2.72,72.84,16.16c4.4,2.59,15.34,5.17,17.73,9.9c2.3,4.55-3.17,4.9-7.06,7.4c-8.58,5.5-17.42,11.57-24.65,18.77
			c-6.63,6.61-12.37,14.07-19.04,20.7c-17.64,17.51-38,34.27-63.42,37.91c-11.53,1.65-23.93,0.98-35.49,0.03
			c-12.64-1.04-23.17-3.26-31.25-13.38c-6.44-8.07-9.06-18.17-14.03-27.11c-4.99-8.98-10.96-14.89-18.36-21.78
			c-12.29-11.44-26.82-18.21-41.94-25.18c-7.62-3.51-16.6-4.73-23.91-8.63c-7.97-4.24-14.84-10.93-21.07-17.38
			c-17.01-17.59-17.89-44.53-29.13-65.31c-4.41-8.15-9.94-15.21-15.8-22.36c-5.45-6.66-10.4-13.07-19.16-15.13
			c-3.72-0.87-8.24-1.44-11.43,1.19c-6.63,5.47,0.44,11.58,5.23,15.55c21.87,18.09,54.37,7.95,80.07,9.08
			c19.14,0.84,36.29,4.43,50.12,18.71c10.64,10.98,13.79,29.41,20.36,42.81c7.57,15.45,10.87,31.65,16.42,47.75
			c4.4,12.78,8.66,27.02,16.44,38.1c5.43-1.78,0.89-13.15,0.31-16.93c-1.99-13.09-2.37-26.53-2.12-39.76
			c0.36-18.96,5.32-37.91,7.13-56.88c0.6-6.31,0.47-13.2,1.62-19.4c1.37-7.4,7.7-7.37,14.55-6.89c6.34,0.44,11.82,0.31,18.18,0.16
			c12.71-0.29,26.92,4.31,38.89,7.97c8.69,2.65,17.02,6.92,26.22,7.85c10.52,1.07,24.58-6.16,34.22-10.04
			c10.67-4.29,21.25-9.42,31.72-14.26c6.29-2.91,12.9-5.5,18.34-9.93c6.94-5.65,14.67-12.43,13.07-22.31
			c-1.55-9.52-11.09-11.11-18.88-13.19c-4.48-1.2-9.29-3.11-14.03-3.12c-8.91-0.02-16.51,6-24.57,8.98
			c-21.36,7.9-43.46,12.47-64.51,21.47c-18.86,8.06-35.9,21.87-55.95,26.4c-5.66,1.28-7.41,3.38-9.85-3.11
			c-3.77-10.04-0.94-19.14-1.96-29.31c-2.7-26.86-37.21-37.43-57.88-47.36c-18.27-8.77-33.53-20.37-49.96-31.96
			c-18.53-13.08-38.38-25.96-58.65-36.21c-5.72-2.89-10.8-5.19-17.35-3.58c-4,0.99-9.82,3.99-11.02,8.4
			c-1.57,5.8,6.43,13.41,9.7,17.11c6.13,6.92,14.25,11.6,21.14,17.65c12.87,11.3,21.78,25.36,32.93,38.08
			c13.8,15.75,35.85,22.36,54.73,29.89c7.1,2.83,14.26,5.58,21.26,8.64c5.62,2.45,14.32,7.99,21.2,8.76
			c7.57,0.85,16.64-7.23,22.62-10.99c8.4-5.29,18.17-8.97,25.1-16.14c7.63-7.9,6.85-18.22,7.85-28.64
			c1.72-17.9,5.35-27.16,18.7-40.06c13.57-13.12,26.04-28.11,43.75-35.6c11.71-4.95,29.55-14.43,41.79-8.16
			c12.38,6.34,9.15,15.75,5.4,26.56c-5.42,15.61-9.8,26.8-22.52,38.35c-19.16,17.41-43.57,25.11-65.21,38.59
			c-9.61,5.99-18.71,12.17-29.44,16.05"/>
		<path class="st0" d="M5875.14,1331.35c2.18-6.86,5.23-13.05,7.8-19.59c1.02-2.61,1.05-5.4,1.69-8.1c1.06-4.45,4.21-5.33,5.97-9.41
			c4.63-10.74,4.41-25.07,7.02-36.51c2.32-10.16,12.91-15.45,18.89-23.48c5.28-7.09,11.14-14.24,16.98-20.86
			c5.55-6.29,15.48-7.89,23.59-8.09c12.75-0.32,25.34-3.83,38.07-4.45c7.59-0.37,13.46,2.9,19.74,6.52
			c10.67,6.15,14.69,15.6,20.59,26.09c3.07,5.46,6.02,10.83,8.72,16.5c2.3,4.84,6.26,9.52,7.85,14.58
			c1.75,5.53,5.84,17.8,4.52,23.67c-1.45,6.46-8.57,12.64-14.95,13.57c-9.93,1.45-21.22,1.48-31.24,1.27
			c-22.1-0.46-44.31-7.02-66.04-11.14c-7.56-1.43-13.9-4.24-21.15-6.09c-7.98-2.04-15.81-9.33-14.82-17.76
			c1-8.54-0.63-17.16,0.7-25.52c0.77-4.84,0.46-9.19,0.77-14.07c0.38-5.97,2.16-12.21,3.29-18.07c1.77-9.18,2.59-21.18,9.87-28.07
			c3.2-3.03,11.09-8.04,15.27-9.83c4.39-1.88,9.45-1.75,13.9-3.41c10.4-3.86,18.79-11.35,29.59-14.47
			c12.11-3.5,23.17-4.21,35.52-4.94c5.47-0.32,10.58-2.12,16.3-1.69c12.42,0.95,23.96,5.47,35.15,10.67
			c13.9,6.47,26.27,12.26,38.05,22.08c6.37,5.31,16.53,10.78,21.36,17.7c1.4,2,3.84,2.19,2.06,5.3c-0.8,1.4-5.37,1.87-6.72,2.19
			c-6.31,1.5-12.53,1.93-18.97,2.26c-6.31,0.32-12.69,0.68-18.98,1.14c-5.32,0.39-9.86,2.37-15.08,3.41
			c-7.05,1.41-12.73,3.85-19.37,6.4c-4.7,1.8-8.99,4.82-13.83,6.26c-10.27,3.05-21.95,2.65-32.48,4.46
			c-4.35,0.75-9.39,2.92-13.82,2.47c-5.21-0.53-8.31-5.03-12.56-7.81c-4.49-2.94-9.57-4.95-13.96-8.02
			c-3.42-2.39-6.27-5.24-9.78-7.49c-4.41-2.82-10.84-5.12-14.43-8.95c-3.01-3.22-3.48-7.88-6.16-11.38
			c-2.96-3.88-6.4-7.54-9.51-11.3c-3.4-4.1-5.73-6.18-8.11-10.97c-2.4-4.84-6.25-8.04-9.44-12.35c-4.06-5.47-6.27-12.03-10.24-17.55
			c-2.39-3.32-5.39-5.63-8-8.73c-2.77-3.29-4.41-7-6.58-10.68c-5.51-9.33-13.88-20.12-23.91-24.78c-9.3-4.32-18.79-7.35-28.53-10.01
			c-11.26-3.07-22.05-8.05-33.5-10.77c-13.64-3.24-27.5-10.29-38.63-18.72c-5.72-4.33-9.96-7.24-12.05-14.22
			c-1.41-4.7-4.24-9.99-1.97-14.7c3.49-7.26,14.92-6.9,21.37-4.52c15.75,5.82,26.48,27.61,32.98,42.09
			c3.76,8.38,8.66,15.35,13.02,23.44c7.59,14.09,12.95,29.27,20.51,43.35c8.71,16.22,20.8,28.44,37.31,36.35
			c11.83,5.67,26.35,12.29,39.74,12.98c11.55,0.6,16.03-6.7,18.34-16.7c4.68-20.3,13.55-39.47,15.64-60.42
			c1.07-10.73,2.36-21.47,1.61-32.2c-0.76-10.89-3.44-21.25-6.34-31.74c-1.77-6.4-6.04-10.98-9.27-16.68
			c-2.58-4.54-5.12-9.27-7.11-14.11c-4.01-9.75-5.27-19.48-4.99-30.01c0.21-7.82-0.99-17.58,2.8-24.65
			c4.77-8.89,16.88-12.75,25.79-15.39c8.36-2.48,14.13-0.87,22.44,1.96c6.29,2.15,13.53,4.01,19.11,7.68
			c3.89,2.56,7.35,6.79,10.81,9.69c5.43,4.55,11.13,8.44,16.03,13.66c5.67,6.05,11.94,14.23,19.83,17.35
			c3.67,1.45,8.12,1.45,11.84,2.73c4,1.37,8.02,3.96,11.64,6.08c8.51,4.96,17.13,7.6,14.22,18.75c-3.94,15.1-20.58,21.87-33.7,27.06
			c-13.94,5.52-26.77,13.91-42.04,13.75c-9.87-0.11-19.76,0.04-29.58,1.59c-13.81,2.17-26.31,1.83-35.02-10.52
			c-10.33-14.64-13.96-30.25-19.05-46.83c-3.32-10.82-0.91-25.13,3.81-35.39c2.47-5.37,5.89-12.04,10.27-16.27
			c6.01-5.8,13.25-9.37,19.1-15.69c7.77-8.38,14.25-19.23,17.4-30.33c1.13-3.98,1.06-8.26,2-12.26c2.11-8.96,10.91-21.61,19.1-26.18
			c9.08-5.06,20.94-8.98,31.18-9.61c14.45-0.9,29.29-3.34,43.74-2.9c26.23,0.79,49.58,7.43,70.99,22.97
			c4.13,3,14.78,6.59,16.72,11.53c1.86,4.75-3.62,4.58-7.73,6.7c-9.06,4.67-18.44,9.87-26.31,16.35
			c-7.23,5.95-13.64,12.84-20.91,18.81c-19.22,15.77-41.07,30.53-66.71,31.75c-11.63,0.55-23.92-1.28-35.34-3.33
			c-12.48-2.23-22.76-5.44-29.84-16.27c-5.65-8.64-7.3-18.94-11.41-28.32c-4.12-9.41-9.5-15.86-16.22-23.42
			c-11.15-12.55-24.98-20.66-39.37-29.03c-7.25-4.22-16.08-6.28-22.99-10.85c-7.53-4.98-13.74-12.29-19.33-19.29
			c-15.27-19.12-13.6-46.02-22.83-67.77c-3.62-8.53-8.46-16.08-13.61-23.76c-4.79-7.14-9.11-14-17.65-16.87
			c-3.62-1.22-8.07-2.21-11.49,0.11c-7.12,4.82-0.66,11.57,3.74,15.97c20.06,20.07,53.37,13.05,78.86,16.6
			c18.97,2.64,35.7,7.84,48.13,23.36c9.56,11.94,10.95,30.58,16.22,44.54c6.07,16.1,7.84,32.54,11.83,49.09
			c3.17,13.14,6.06,27.71,12.76,39.48c5.57-1.26,2.12-13,1.91-16.82c-0.75-13.22,0.15-26.63,1.65-39.78
			c2.15-18.84,8.88-37.23,12.47-55.96c1.19-6.22,1.72-13.09,3.44-19.16c2.06-7.24,8.36-6.61,15.14-5.49
			c6.27,1.04,11.74,1.42,18.08,1.88c12.68,0.92,26.39,6.84,37.96,11.61c8.4,3.46,16.29,8.49,25.36,10.3
			c10.37,2.06,25.05-3.81,35.01-6.76c11.03-3.26,22.05-7.37,32.92-11.2c6.53-2.3,13.36-4.26,19.2-8.15
			c7.44-4.97,15.78-10.99,15.12-20.98c-0.64-9.63-9.99-12.11-17.55-14.92c-4.35-1.61-8.95-3.97-13.67-4.43
			c-8.87-0.87-17,4.41-25.31,6.62c-22.01,5.85-44.44,8.31-66.25,15.28c-19.54,6.24-37.81,18.38-58.19,21
			c-5.76,0.74-7.7,2.67-9.51-4.03c-2.8-10.35,0.87-19.14,0.81-29.37c-0.15-27-33.51-40.78-53.14-52.61
			c-17.36-10.46-31.45-23.44-46.72-36.54c-17.21-14.77-35.76-29.47-54.96-41.59c-5.42-3.42-10.27-6.19-16.94-5.2
			c-4.08,0.61-10.15,3.04-11.76,7.32c-2.11,5.63,5.13,13.96,8.04,17.95c5.45,7.47,13.1,12.9,19.38,19.56
			c11.75,12.47,19.29,27.3,29.18,41.02c12.25,16.99,33.57,25.65,51.67,34.92c6.8,3.48,13.67,6.9,20.35,10.61
			c5.36,2.97,13.5,9.31,20.27,10.72c7.46,1.56,17.25-5.63,23.55-8.81c8.86-4.47,18.93-7.21,26.51-13.7
			c8.34-7.14,8.54-17.5,10.52-27.77c3.4-17.66,7.9-26.53,22.4-38.12c14.75-11.78,28.58-25.52,46.92-31.31
			c12.12-3.82,30.79-11.58,42.37-4.18c11.73,7.48,7.62,16.55,2.86,26.95c-6.87,15.03-12.29,25.75-26.04,36.05
			c-20.72,15.52-45.75,20.89-68.57,32.26c-10.14,5.05-19.77,10.34-30.83,13.2"/>
	</g>
</g>
<g id="Layer_3">
</g>
</svg>
